<?xml version="1.0" standalone="no"?><!DOCTYPE svg PUBLIC "-//W3C//DTD SVG 1.1//EN" "http://www.w3.org/Graphics/SVG/1.1/DTD/svg11.dtd"><svg t="1601261696184" class="icon" viewBox="0 0 1024 1024" version="1.1" xmlns="http://www.w3.org/2000/svg" p-id="2271" xmlns:xlink="http://www.w3.org/1999/xlink" width="200" height="200"><defs><style type="text/css"></style></defs><path d="M0 0h1024v1024H0z" fill="#CBCBCB" fill-opacity="0" p-id="2272"></path><path d="M329.142857 804.571429A256 256 0 1 1 585.142857 548.571429 256 256 0 0 1 329.142857 804.571429z m0-438.857143A182.857143 182.857143 0 1 0 512 548.571429 182.857143 182.857143 0 0 0 329.142857 365.714286z" fill="#165DD9" p-id="2273"></path><path d="M256 438.857143a36.571429 36.571429 0 0 1 36.571429 36.571428v146.285715a36.571429 36.571429 0 0 1-36.571429 36.571428 36.571429 36.571429 0 0 1-36.571429-36.571428v-146.285715a36.571429 36.571429 0 0 1 36.571429-36.571428z" fill="#404040" p-id="2274"></path><path d="M402.285714 438.857143a36.571429 36.571429 0 0 1 36.571429 36.571428v146.285715a36.571429 36.571429 0 0 1-36.571429 36.571428 36.571429 36.571429 0 0 1-36.571428-36.571428v-146.285715a36.571429 36.571429 0 0 1 36.571428-36.571428z" fill="#404040" p-id="2275"></path><path d="M950.857143 438.857143h73.142857v146.285714h-73.142857z" fill="#165DD9" p-id="2276"></path><path d="M804.571429 365.714286h73.142857v292.571428h-73.142857z" fill="#165DD9" p-id="2277"></path><path d="M658.285714 219.428571h73.142857v585.142858H658.285714z" fill="#165DD9" p-id="2278"></path></svg>