<?xml version="1.0" standalone="no"?><!DOCTYPE svg PUBLIC "-//W3C//DTD SVG 1.1//EN" "http://www.w3.org/Graphics/SVG/1.1/DTD/svg11.dtd"><svg t="1601261809075" class="icon" viewBox="0 0 1024 1024" version="1.1" xmlns="http://www.w3.org/2000/svg" p-id="2544" xmlns:xlink="http://www.w3.org/1999/xlink" width="200" height="200"><defs><style type="text/css"></style></defs><path d="M585.142857 761.417143V258.194286L420.571429 386.925714l-19.748572 16.091429h-26.331428L219.428571 400.822857v215.771429h183.588572l19.017143 15.36L585.142857 761.417143m36.571429 111.908571a38.034286 38.034286 0 0 1-22.674286-7.314285l-219.428571-174.811429L146.285714 688.274286V326.948571h229.668572l223.085714-175.542857A34.377143 34.377143 0 0 1 621.714286 146.285714a35.84 35.84 0 0 1 36.571428 36.571429v653.897143a35.84 35.84 0 0 1-36.571428 36.571428z" fill="#999999" p-id="2545"></path><path d="M754.834286 674.377143l-46.811429-56.32a130.925714 130.925714 0 0 0 47.542857-98.011429 113.371429 113.371429 0 0 0-52.662857-99.474285l38.765714-62.171429a189.44 189.44 0 0 1 87.04 163.84 202.605714 202.605714 0 0 1-73.874285 152.137143z" fill="#165DD9" p-id="2546"></path><path d="M839.68 743.862857l-46.811429-57.051428A231.862857 231.862857 0 0 0 877.714286 512a209.92 209.92 0 0 0-96.548572-182.125714l39.497143-61.44A283.062857 283.062857 0 0 1 950.857143 512a308.662857 308.662857 0 0 1-111.177143 231.862857z" fill="#165DD9" p-id="2547"></path></svg>