<?xml version="1.0" standalone="no"?><!DOCTYPE svg PUBLIC "-//W3C//DTD SVG 1.1//EN" "http://www.w3.org/Graphics/SVG/1.1/DTD/svg11.dtd"><svg t="1601261882145" class="icon" viewBox="0 0 1024 1024" version="1.1" xmlns="http://www.w3.org/2000/svg" p-id="2723" xmlns:xlink="http://www.w3.org/1999/xlink" width="200" height="200"><defs><style type="text/css"></style></defs><path d="M718.262857 528.091429l-46.811428-56.32a130.925714 130.925714 0 0 0 47.542857-98.011429 113.371429 113.371429 0 0 0-52.662857-99.474286l38.765714-62.171428a189.44 189.44 0 0 1 87.04 163.84 203.337143 203.337143 0 0 1-73.874286 152.137143z" fill="#165DD9" p-id="2724"></path><path d="M804.571429 596.845714l-46.811429-56.32A231.862857 231.862857 0 0 0 841.142857 365.714286a209.92 209.92 0 0 0-96.548571-182.125715l39.497143-61.44A283.062857 283.062857 0 0 1 914.285714 365.714286 306.468571 306.468571 0 0 1 804.571429 596.845714z" fill="#165DD9" p-id="2725"></path><path d="M438.857143 512a182.857143 182.857143 0 1 1 182.857143-182.857143A182.857143 182.857143 0 0 1 438.857143 512z m0-292.571429a109.714286 109.714286 0 1 0 109.714286 109.714286A109.714286 109.714286 0 0 0 438.857143 219.428571z" fill="#999999" p-id="2726"></path><path d="M768 818.468571l-73.142857-4.388571A276.48 276.48 0 0 0 438.857143 523.702857a275.748571 275.748571 0 0 0-253.805714 292.571429l-73.142858 4.388571A350.354286 350.354286 0 0 1 438.857143 450.56a351.085714 351.085714 0 0 1 329.142857 367.908571z" fill="#999999" p-id="2727"></path></svg>