<?xml version="1.0" encoding="UTF-8"?>
<svg width="65px" height="12px" viewBox="0 0 65 12" version="1.1" xmlns="http://www.w3.org/2000/svg" xmlns:xlink="http://www.w3.org/1999/xlink">
    <title>编组 4</title>
    <g id="新页" stroke="none" stroke-width="1" fill="none" fill-rule="evenodd">
        <g id="icon" transform="translate(-227.000000, -277.000000)" fill="#5675E8">
            <g id="编组-4" transform="translate(227.000000, 277.000000)">
                <g id="编组-21">
                    <polygon id="三角形" transform="translate(2.769231, 6.000000) rotate(-270.000000) translate(-2.769231, -6.000000) " points="2.76923077 3.23076923 8.76923077 8.76923077 -3.23076923 8.76923077"></polygon>
                    <polygon id="三角形备份" transform="translate(9.230769, 6.000000) scale(-1, 1) rotate(-270.000000) translate(-9.230769, -6.000000) " points="9.23076923 3.23076923 15.2307692 8.76923077 3.23076923 8.76923077"></polygon>
                    <rect id="矩形" x="5.53846154" y="0" width="1" height="12"></rect>
                </g>
                <path d="M19.688,11.2 L19.688,3.04 C20.084,2.248 20.42,1.396 20.696,0.508 L19.892,0.136 C19.376,1.984 18.548,3.64 17.42,5.08 L17.708,5.992 C18.104,5.536 18.476,5.044 18.812,4.54 L18.812,11.2 L19.688,11.2 Z M28.124,1.936 L28.124,1.168 L24.704,1.168 C24.584,0.784 24.476,0.436 24.356,0.136 L23.48,0.28 C23.612,0.556 23.732,0.856 23.84,1.168 L20.696,1.168 L20.696,1.936 L28.124,1.936 Z M27.2,4.9 L27.2,2.632 L21.488,2.632 L21.488,4.9 L27.2,4.9 Z M26.36,4.24 L22.328,4.24 L22.328,3.292 L26.36,3.292 L26.36,4.24 Z M23.852,11.116 C24.548,11.116 24.908,10.78 24.908,10.132 L24.908,8.188 L27.5,8.188 L27.5,7.648 L28.148,7.648 L28.148,5.596 L20.588,5.596 L20.588,7.648 L21.392,7.648 L21.392,8.188 L24.02,8.188 L24.02,9.916 C24.02,10.18 23.864,10.324 23.552,10.324 C23.156,10.324 22.748,10.3 22.316,10.276 L22.496,11.116 L23.852,11.116 Z M27.32,7.444 L21.428,7.444 L21.428,6.352 L27.32,6.352 L27.32,7.444 Z M31.436,10.828 C32.648,10.528 33.728,10.168 34.664,9.748 L34.496,8.944 C33.872,9.256 33.2,9.508 32.468,9.712 L32.468,7.516 L34.256,7.516 L34.256,3.688 L33.44,3.688 L33.44,6.712 L32.468,6.712 L32.468,2.62 L34.484,2.62 L34.484,1.78 L32.468,1.78 L32.468,0.22 L31.604,0.22 L31.604,1.78 L29.456,1.78 L29.456,2.62 L31.604,2.62 L31.604,6.712 L30.632,6.712 L30.632,3.688 L29.828,3.688 L29.828,7.516 L31.604,7.516 L31.604,9.328 C31.604,9.664 31.472,9.88 31.208,9.988 L31.436,10.828 Z M36.008,8.5 L36.008,3.628 L39.152,3.628 L39.152,8.5 L39.992,8.5 L39.992,2.836 L37.832,2.836 C37.904,2.404 37.952,1.948 38,1.468 L40.412,1.468 L40.412,0.652 L34.796,0.652 L34.796,1.468 L37.112,1.468 C37.076,1.936 37.016,2.392 36.944,2.836 L35.168,2.836 L35.168,8.5 L36.008,8.5 Z M35.144,11.176 C36.128,10.768 36.824,10.216 37.256,9.52 C37.7,8.752 37.94,7.732 37.964,6.46 L37.964,4.396 L37.124,4.396 L37.124,6.46 C37.1,7.492 36.92,8.32 36.584,8.956 C36.224,9.58 35.588,10.072 34.676,10.444 L35.144,11.176 Z M39.848,11.188 L40.46,10.576 C39.908,9.88 39.224,9.196 38.42,8.5 L37.832,9.052 C38.684,9.808 39.356,10.516 39.848,11.188 Z M44.6,10.168 C45.62,10.168 46.388,9.712 46.916,8.812 C47.372,8.044 47.6,7.012 47.6,5.716 C47.6,4.42 47.372,3.388 46.916,2.62 C46.388,1.708 45.62,1.264 44.6,1.264 C43.568,1.264 42.8,1.708 42.284,2.62 C41.828,3.388 41.6,4.42 41.6,5.716 C41.6,7.012 41.828,8.044 42.284,8.812 C42.8,9.712 43.568,10.168 44.6,10.168 Z M44.6,9.328 C43.832,9.328 43.28,8.908 42.944,8.092 C42.704,7.504 42.584,6.712 42.584,5.716 C42.584,4.708 42.704,3.916 42.944,3.34 C43.28,2.512 43.832,2.104 44.6,2.104 C45.368,2.104 45.92,2.512 46.256,3.34 C46.496,3.916 46.628,4.708 46.628,5.716 C46.628,6.712 46.496,7.504 46.256,8.092 C45.92,8.908 45.368,9.328 44.6,9.328 Z M49.784,10.048 C49.976,10.048 50.156,9.976 50.3,9.832 C50.444,9.688 50.516,9.52 50.516,9.316 C50.516,9.1 50.444,8.932 50.3,8.788 C50.156,8.644 49.976,8.572 49.784,8.572 C49.568,8.572 49.4,8.644 49.268,8.788 C49.124,8.932 49.052,9.1 49.052,9.316 C49.052,9.52 49.124,9.688 49.268,9.832 C49.4,9.976 49.568,10.048 49.784,10.048 Z M54.896,10.168 C55.736,10.168 56.456,9.904 57.032,9.388 C57.644,8.836 57.956,8.128 57.956,7.264 C57.956,6.34 57.692,5.62 57.188,5.092 C56.684,4.576 56.024,4.324 55.208,4.324 C54.812,4.324 54.452,4.384 54.116,4.528 C53.744,4.672 53.432,4.888 53.192,5.176 L53.144,5.176 L53.432,2.308 L57.608,2.308 L57.608,1.432 L52.628,1.432 L52.172,6.16 L53.108,6.16 C53.276,5.824 53.54,5.56 53.876,5.392 C54.2,5.212 54.56,5.128 54.968,5.128 C55.592,5.128 56.084,5.308 56.432,5.692 C56.792,6.064 56.984,6.592 56.984,7.276 C56.984,7.876 56.78,8.368 56.396,8.752 C56,9.136 55.508,9.328 54.908,9.328 C54.38,9.328 53.936,9.196 53.6,8.944 C53.216,8.656 53,8.236 52.952,7.696 L51.98,7.696 C52.04,8.476 52.364,9.1 52.964,9.556 C53.492,9.964 54.14,10.168 54.896,10.168 Z M61.616,10.168 C63.368,10.168 64.244,9.52 64.244,8.248 C64.244,7.708 63.992,7.288 63.5,6.976 C63.176,6.772 62.648,6.58 61.904,6.4 C61.28,6.232 60.848,6.1 60.62,5.992 C60.26,5.812 60.092,5.584 60.092,5.32 C60.092,5.044 60.224,4.828 60.488,4.672 C60.728,4.504 61.064,4.432 61.496,4.432 C61.988,4.432 62.372,4.528 62.636,4.72 C62.876,4.888 63.032,5.176 63.116,5.56 L64.052,5.56 C63.884,4.264 63.044,3.628 61.508,3.628 C60.812,3.628 60.236,3.784 59.804,4.096 C59.336,4.408 59.108,4.816 59.108,5.344 C59.108,5.872 59.336,6.268 59.816,6.556 C60.104,6.748 60.62,6.928 61.352,7.108 C62.024,7.276 62.468,7.408 62.672,7.504 C63.056,7.696 63.26,7.96 63.26,8.308 C63.26,9.004 62.696,9.364 61.592,9.364 C61.064,9.364 60.668,9.268 60.404,9.076 C60.14,8.86 59.96,8.512 59.888,8.02 L58.952,8.02 C59.096,9.448 59.984,10.168 61.616,10.168 Z" id="停顿0.5s" fill-rule="nonzero"></path>
            </g>
        </g>
    </g>
</svg>