<svg xmlns="http://www.w3.org/2000/svg" xmlns:xlink="http://www.w3.org/1999/xlink" width="20" height="20" viewBox="0 0 20 20"><defs><style>.a{fill:#dedede;opacity:0;}.b{fill:url(#a);}</style><linearGradient id="a" x1="0.5" y1="-0.151" x2="0.5" y2="1" gradientUnits="objectBoundingBox"><stop offset="0" stop-color="#fff"/><stop offset="1" stop-color="#fff"/></linearGradient></defs><g transform="translate(-372 -1082)"><rect class="a" width="20" height="20" transform="translate(372 1082)"/><path class="b" d="M63.7,124.825H49.2a2.75,2.75,0,0,0-2.75,2.75v11a2.75,2.75,0,0,0,2.75,2.75H63.7a2.75,2.75,0,0,0,2.75-2.75v-11A2.75,2.75,0,0,0,63.7,124.825Zm-9.75,2.75a3,3,0,1,1-3,3A3,3,0,0,1,53.95,127.575Zm2,10.75h-4a2.25,2.25,0,0,1,0-4.5h4a2.25,2.25,0,0,1,0,4.5Zm6.748-2.25H60.2a.75.75,0,1,1,0-1.5h2.5a.75.75,0,1,1,0,1.5Zm0-3H59.2a.75.75,0,0,1,0-1.5h3.5a.75.75,0,1,1,0,1.5Zm0-3H59.2a.75.75,0,0,1,0-1.5h3.5a.75.75,0,1,1,0,1.5Z" transform="translate(325.55 959.2)"/></g></svg>