<?xml version="1.0" standalone="no"?><!DOCTYPE svg PUBLIC "-//W3C//DTD SVG 1.1//EN" "http://www.w3.org/Graphics/SVG/1.1/DTD/svg11.dtd"><svg t="1593572016532" class="icon" viewBox="0 0 1342 1024" version="1.1" xmlns="http://www.w3.org/2000/svg" p-id="5907" xmlns:xlink="http://www.w3.org/1999/xlink" width="262.109375" height="200"><defs><style type="text/css"></style></defs><path d="M1163.440188 38.081071a51.409446 51.409446 0 0 0-35.986612-16.501797L736.23404 6.346845l-29.639767 65.372505 40.746746 122.938391-73.623404 139.630594 29.957109 112.656502 74.321557 96.598984 107.896368-99.518533a25.768191 25.768191 0 0 1 36.430891 1.523243l138.424694 149.785546a25.83166 25.83166 0 0 1-19.929094 43.412421l-379.414405-14.915086-19.040535 54.392463 20.563778 49.061113 436.1552 16.882608a51.726788 51.726788 0 0 0 53.630842-49.695797l24.308417-619.325152A50.774761 50.774761 0 0 0 1163.440188 38.081071z m-280.340151 283.894385A77.49498 77.49498 0 1 1 963.578034 247.526962a77.49498 77.49498 0 0 1-80.477997 74.448494zM601.871328 679.112433l13.137969-57.121606-308.075864 21.198463A25.768191 25.768191 0 0 1 285.608033 600.411553l228.486426-262.188174a25.768191 25.768191 0 0 1 19.040535-8.822115 26.085534 26.085534 0 0 1 19.040536 7.933557l76.162142 79.716375-32.876658-84.984257L653.725053 185.391347l-53.503905-117.416635L622.308169 0 202.08355 29.005082a51.599851 51.599851 0 0 0-47.918681 55.090617L196.7522 702.532292a50.774761 50.774761 0 0 0 17.517293 35.288459 51.917194 51.917194 0 0 0 37.446387 12.693691l375.162018-25.83166zM188.691707 824.709062v198.719722H171.999504v-9.583736H16.438329v9.583736H0v-198.719722z m-16.692203 174.093963v-158.67113H16.438329v158.67113z m-21.198463-130.681542a136.266766 136.266766 0 0 1-40.683277 39.033097 233.119623 233.119623 0 0 0 57.121606 18.025041 67.720838 67.720838 0 0 0-9.329862 12.69369 234.388992 234.388992 0 0 1-61.945209-22.594769 269.550514 269.550514 0 0 1-67.593901 25.387381A69.815297 69.815297 0 0 0 20.563778 926.639395a267.646461 267.646461 0 0 0 61.247056-19.611752A158.099913 158.099913 0 0 1 57.121607 886.590802a165.398785 165.398785 0 0 1-20.817653 16.247924 83.397546 83.397546 0 0 0-11.614726-10.28189 151.6896 151.6896 0 0 0 50.267013-47.53787l13.899591 4.569729a97.106731 97.106731 0 0 1-9.139457 13.582248h58.708318l2.792612-0.698153zM51.409446 959.262179a511.873063 511.873063 0 0 1 91.83885 19.611752l-7.80662 12.69369A485.533656 485.533656 0 0 0 43.666295 971.067311z m21.70621-27.418371a291.383662 291.383662 0 0 1 53.821247 16.692203l-7.044998 11.424321a269.994794 269.994794 0 0 0-53.69431-17.834635z m-6.346845-54.392463a118.622536 118.622536 0 0 0 29.005083 22.404363A137.72654 137.72654 0 0 0 126.936903 875.864634h-58.835254zM267.773398 896.174538c0 10.281889 0 20.563778-0.888559 30.845668h112.148755v96.218173h-18.025041V944.410562H265.044254c-3.68117 28.560803-12.69369 56.16958-33.574811 79.272096a71.528945 71.528945 0 0 0-12.69369-13.264907c28.751209-32.178505 31.734226-74.258089 31.734226-114.243213v-75.40052h17.326887v52.805751h64.610884v-58.517912h17.834635v58.517912h63.912731v17.136482H267.773398zM549.509855 865.138465c-4.379323 99.137722-7.997025 132.966406-16.247924 143.438701a19.040536 19.040536 0 0 1-15.54977 8.695178 130.871947 130.871947 0 0 1-24.879633 0 47.53787 47.53787 0 0 0-5.014008-17.390356c9.583736 0.952027 18.278914 1.142432 22.404363 1.142432a8.695178 8.695178 0 0 0 7.997025-3.871575c6.346845-7.298872 10.472295-38.842692 14.153465-124.525102H500.1314c-2.729143 57.121607-11.170448 114.243213-39.731251 149.404735a54.455932 54.455932 0 0 0-13.455312-11.424321c26.720218-31.734226 34.272964-84.730383 36.49436-137.980414h-31.734226v-16.438329h31.734226c0.444279-13.899591 0.444279-27.86265 0.444279-40.873683H501.400769c0 13.264906 0 26.974092-0.634685 40.873683h48.870708z m95.202678-21.960084v175.236395h-17.073014v-15.042023h-44.427916v16.628735h-16.565266v-176.823107z m-17.326888 143.692575v-127.254246h-44.427916v127.254246zM871.866121 895.984133a299.444155 299.444155 0 0 1-34.463369 78.320069c6.346845 19.67522 14.851618 30.655262 24.625759 30.655262 5.712161 0 7.997025-9.83761 9.393331-36.557828a38.081071 38.081071 0 0 0 13.264906 8.695178c-2.729143 34.01909-8.250899 44.427916-23.991074 44.427916s-26.085534-11.424321-34.526838-30.845667a196.7522 196.7522 0 0 1-32.876658 33.320937 64.483947 64.483947 0 0 0-11.8686-11.614727 160.257841 160.257841 0 0 0 38.081071-39.73125 447.008305 447.008305 0 0 1-13.264907-92.537003h-127.635056v-13.709186h55.027147v-19.421346h-43.348952v-13.709185h43.348952v-18.278915h16.247924v18.278915h40.238998v13.709185h-40.238998v19.421346H806.049337c-0.888558-16.247924-1.396306-33.574811-1.396306-50.774761h16.692203c0 17.834635 0 34.971117 0.698153 50.774761H882.211479v13.709186h-59.216066A515.046486 515.046486 0 0 0 831.436717 953.296145a275.960828 275.960828 0 0 0 24.879634-61.691335z m-72.861782 92.283129c-13.709186 1.586711-27.418371 2.983017-41.127557 4.315854v29.95711h-15.99405v-28.560804c-22.15049 2.284864-42.714268 4.315855-59.152597 6.346846l-1.840585-15.740177c16.247924-1.142432 37.446387-2.983017 60.993182-5.014007v-22.658237h-29.703235a35.224991 35.224991 0 0 0-18.278914 3.236891 97.804884 97.804884 0 0 0-5.267882-15.549771c3.427296-0.698153 6.854593-5.267881 10.535763-11.424321 1.840585-2.729143 4.823602-8.949052 8.695178-16.438329h-25.83166v-13.96306h31.734226a185.454816 185.454816 0 0 0 8.441304-22.150489l16.692203 4.569728c-2.284864 5.966034-4.823602 11.8686-7.552746 17.580761h67.149622v13.96306h-73.496467c-4.823602 9.139457-9.83761 18.02504-14.661212 25.38738h31.734225v-18.532788h15.99405v18.532788h36.113549v14.597744h-36.113549v21.261932c13.455312-1.142432 27.672245-2.538738 41.127557-3.871576z m61.88174-130.935416a160.829057 160.829057 0 0 0-27.608776-29.893641l12.122474-7.80662a136.774513 136.774513 0 0 1 28.053056 28.814678zM1022.921036 933.684393c15.740176 38.081071 45.697285 63.468452 92.092724 74.004215a73.940746 73.940746 0 0 0-11.424322 15.549771 132.458659 132.458659 0 0 1-94.821866-82.508988c-10.535763 32.686253-35.66927 62.643362-93.933309 82.508988a52.678815 52.678815 0 0 0-10.472294-14.597744c55.027148-18.532788 78.320069-45.697285 87.967274-75.146647h-85.238131v-16.946077h88.855832a181.265898 181.265898 0 0 0 2.284865-31.734226v-13.709185h-51.219041a197.323416 197.323416 0 0 1-22.340895 35.859675 97.106731 97.106731 0 0 0-16.438329-8.949052c17.580761-19.421346 31.734226-49.568861 39.985125-80.414528l17.771166 3.871576a254.952771 254.952771 0 0 1-11.424321 32.686252h43.666295v-39.731251h17.326887v39.731251h74.511962v16.946077h-74.258088v13.709185a249.304078 249.304078 0 0 1-1.777117 31.734226h95.710425v16.946077zM1191.302839 917.880749c0 33.828685-5.204413 77.939259-48.616834 105.35763a64.991695 64.991695 0 0 0-10.535763-11.424322c41.381431-23.800669 44.427916-64.674352 44.427916-93.933308V856.824098h14.851618z m-33.574811 45.951159h-14.153465v-137.980414h80.668402v137.282261h-14.851618v-121.986364h-51.663319z m42.968142 5.458287a461.415644 461.415644 0 0 1 29.005082 39.73125l-12.69369 8.695178a488.262799 488.262799 0 0 0-28.30693-41.317962z m121.288211-99.137722c-4.569729 41.82571-14.153465 74.258089-28.053056 99.391595a133.283749 133.283749 0 0 0 47.918681 40.873683 92.600471 92.600471 0 0 0-10.726168 12.693691 143.184827 143.184827 0 0 1-45.697285-39.731251 127.381183 127.381183 0 0 1-44.427917 40.17553 46.649312 46.649312 0 0 0-10.281889-12.31288 121.478617 121.478617 0 0 0 45.50688-40.873683 249.113673 249.113673 0 0 1-28.560803-61.500929c-2.983017 4.823602-5.966034 9.583736-8.695178 13.709185a108.657989 108.657989 0 0 0-10.535763-13.709185c16.247924-22.340895 28.116524-57.121607 34.971117-92.029255l15.549771 3.427296c-2.538738 11.614727-5.521755 23.292922-8.949052 34.463369h68.101649v15.549771z m-57.121607 0a188.057022 188.057022 0 0 1-7.997025 19.865625 249.177141 249.177141 0 0 0 27.862651 65.816785 248.986736 248.986736 0 0 0 22.848642-85.68241z" fill="#BEBFBF" p-id="5908"></path></svg>