<?xml version="1.0" encoding="UTF-8"?>
<svg width="30px" height="30px" viewBox="0 0 30 30" version="1.1" xmlns="http://www.w3.org/2000/svg" xmlns:xlink="http://www.w3.org/1999/xlink">
    <title>编组</title>
    <defs>
        <rect id="path-1" x="0" y="0" width="100" height="210" rx="4"></rect>
        <filter x="-35.0%" y="-11.9%" width="170.0%" height="133.3%" filterUnits="objectBoundingBox" id="filter-2">
            <feOffset dx="0" dy="10" in="SourceAlpha" result="shadowOffsetOuter1"></feOffset>
            <feGaussianBlur stdDeviation="10" in="shadowOffsetOuter1" result="shadowBlurOuter1"></feGaussianBlur>
            <feColorMatrix values="0 0 0 0 0.364705882   0 0 0 0 0.494117647   0 0 0 0 0.921568627  0 0 0 0.1 0" type="matrix" in="shadowBlurOuter1"></feColorMatrix>
        </filter>
    </defs>
    <g id="简视页面" stroke="none" stroke-width="1" fill="none" fill-rule="evenodd">
        <g id="智能创作页面" transform="translate(-305.000000, -322.000000)">
            <rect fill="#F7F8F9" x="0" y="0" width="1920" height="1957"></rect>
            <g id="编组-11" transform="translate(270.000000, 302.000000)">
                <g id="矩形备份-17">
                    <use fill="black" fill-opacity="1" filter="url(#filter-2)" xlink:href="#path-1"></use>
                    <use fill="#FFFFFF" fill-rule="evenodd" xlink:href="#path-1"></use>
                </g>
                <g id="编组-12">
                    <rect id="矩形" x="0" y="0" width="100" height="100"></rect>
                    <g id="编组" transform="translate(35.000000, 20.000000)" fill-rule="nonzero">
                        <path d="M0,15 C0,23.2842712 6.71572875,30 15,30 C23.2842712,30 30,23.2842712 30,15 C30,6.71572875 23.2842712,0 15,0 C6.71572875,0 0,6.71572875 0,15 Z" id="路径" fill="#5675E8"></path>
                        <path d="M18.6323984,13.5022876 C18.6225212,13.4836273 18.6159363,13.464967 18.6060591,13.4463068 C18.6027667,13.4431967 18.6027667,13.4400867 18.5994743,13.4338666 C18.3624211,12.9829103 17.8520983,12.6905663 17.2858045,12.7309968 C16.5450133,12.7869776 15.9885968,13.3996561 16.0478601,14.0994159 C16.0643221,14.2797984 16.1170006,14.4446307 16.1993107,14.5939128 C16.574645,15.3931939 16.4100247,16.3666374 15.7186195,17.0228566 L12.0969735,20.4501243 C11.1981468,21.2991661 9.73631878,21.2991661 8.83749208,20.4501243 C7.93866539,19.6010825 7.93866539,18.2202232 8.83749208,17.3711814 L10.1873783,16.0960637 L10.1775011,16.0867335 C10.4902796,15.83171 10.6713619,15.4429546 10.6384379,15.0262088 C10.5791746,14.326449 9.9305707,13.8008517 9.18977947,13.8568325 C8.83419968,13.8817128 8.52471356,14.037215 8.30082999,14.2673582 L8.29753758,14.2642482 L6.92131209,15.5642463 C4.96562324,17.411612 4.96562324,20.4034736 6.92131209,22.2508393 C8.87700095,24.0982051 12.044295,24.0982051 13.9999839,22.2508393 L17.6315071,18.8204616 C19.1525984,17.3805116 19.481839,15.2501319 18.6323984,13.5022876 L18.6323984,13.5022876 Z" id="路径" fill="#FFFFFF"></path>
                        <path d="M23.080985,6.84046485 C21.1250662,4.99257232 17.9573996,4.99257232 16.0014808,6.84046485 L12.3695304,10.2718208 C10.8482602,11.7090706 10.518981,13.8400578 11.3652287,15.5884005 C11.375107,15.6070661 11.3816926,15.6257317 11.391571,15.6443973 C11.3948638,15.6475082 11.3948638,15.6506191 11.3981566,15.656841 C11.6352377,16.1079259 12.1456205,16.4003533 12.7119809,16.3599112 C13.4528592,16.3039145 14.0093412,15.6910612 13.9500709,14.9911019 C13.933607,14.810668 13.8809223,14.6457887 13.7986025,14.496464 C13.4232241,13.696955 13.5878637,12.7232338 14.2793502,12.0668276 L17.9047149,8.64169342 C18.8036473,7.79240949 20.2656473,7.79240949 21.1645797,8.64169342 C22.0635121,9.49097736 22.0635121,10.8722304 21.1645797,11.7215143 L19.8145347,12.9969957 L19.824413,13.0063285 C19.5115977,13.2614247 19.3304941,13.650291 19.3634221,14.0671557 C19.4226923,14.767115 20.0713725,15.2928622 20.8122509,15.2368654 C21.1678725,15.211978 21.477395,15.0564315 21.7013049,14.8262226 L21.7045977,14.8293336 L23.080985,13.5289647 C25.0336111,11.6810722 25.0336111,8.68524645 23.080985,6.84046485 Z" id="路径" fill="#FFFFFF"></path>
                    </g>
                </g>
            </g>
        </g>
    </g>
</svg>