<?xml version="1.0" encoding="UTF-8"?>
<svg width="14px" height="14px" viewBox="0 0 14 14" version="1.1" xmlns="http://www.w3.org/2000/svg" xmlns:xlink="http://www.w3.org/1999/xlink">
    <title>形状结合</title>
    <defs>
        <rect id="path-1" x="400" y="301" width="870" height="673" rx="4"></rect>
        <filter x="-4.0%" y="-3.7%" width="108.0%" height="110.4%" filterUnits="objectBoundingBox" id="filter-2">
            <feOffset dx="0" dy="10" in="SourceAlpha" result="shadowOffsetOuter1"></feOffset>
            <feGaussianBlur stdDeviation="10" in="shadowOffsetOuter1" result="shadowBlurOuter1"></feGaussianBlur>
            <feColorMatrix values="0 0 0 0 0.364705882   0 0 0 0 0.494117647   0 0 0 0 0.921568627  0 0 0 0.1 0" type="matrix" in="shadowBlurOuter1"></feColorMatrix>
        </filter>
    </defs>
    <g id="简视页面" stroke="none" stroke-width="1" fill="none" fill-rule="evenodd">
        <g id="智能创作页面" transform="translate(-533.000000, -558.000000)">
            <rect fill="#F7F8F9" x="0" y="0" width="1920" height="1957"></rect>
            <g id="矩形">
                <use fill="black" fill-opacity="1" filter="url(#filter-2)" xlink:href="#path-1"></use>
                <use fill="#FFFFFF" fill-rule="evenodd" xlink:href="#path-1"></use>
            </g>
            <path d="M533.25,569.5 C533.513965,569.293751 533.606334,569.26315 533.659888,569.307796 C533.699426,569.340758 533.728763,569.385646 533.742061,569.437022 L533.742061,569.437022 L533.750107,571.25 L535.5,571.25 C535.569036,571.25 535.631536,571.277982 535.676777,571.323223 C535.722018,571.368464 535.75,571.430964 535.75,571.5 C535.75,571.560805 535.728324,571.616561 535.692204,571.659888 C535.65927,571.699391 535.614432,571.728712 535.563112,571.742026 L535.563112,571.742026 L533.25,571.749221 Z M546.25,569.5 C546.515211,569.297171 546.621268,569.267715 546.676777,569.323223 C546.722018,569.368464 546.75,569.430964 546.75,569.5 L546.75,569.5 L546.75,571.75 L544.5,571.75 C544.430964,571.75 544.368464,571.722018 544.323223,571.676777 C544.277982,571.631536 544.25,571.569036 544.25,571.5 C544.25,571.430964 544.277982,571.368464 544.323223,571.323223 C544.368464,571.277982 544.430964,571.25 544.5,571.25 L544.5,571.25 L546.251167,571.25 Z M544.75,562.25 L544.75,567.75 L535.25,567.75 L535.25,562.25 L544.75,562.25 Z M534.673848,558.25 L533.748911,558.866214 L533.369258,558.25 L534.673848,558.25 Z M546.75,558.369258 L546.75,559.673618 L546.13487,558.75 L546.75,558.369258 Z" id="形状结合" stroke="#5675E8" stroke-width="0.5"></path>
        </g>
    </g>
</svg>