<?xml version="1.0" encoding="UTF-8"?>
<svg width="16px" height="16px" viewBox="0 0 16 16" version="1.1" xmlns="http://www.w3.org/2000/svg" xmlns:xlink="http://www.w3.org/1999/xlink">
    <title>设置</title>
    <g id="后台" stroke="none" stroke-width="1" fill-rule="evenodd" opacity="0.800000012">
        <g id="画板" transform="translate(-29.000000, -42.000000)" fill-rule="nonzero">
            <path d="M43.5892857,50 C43.5892857,49.0642857 44.1767857,48.2714286 45,47.9553571 C44.8035714,47.1839286 44.5,46.4571429 44.1035714,45.7892857 C43.2964286,46.1482143 42.3214286,46.0017857 41.6607143,45.3392857 C41,44.6785714 40.8535714,43.7017857 41.2125,42.8964286 C40.5428571,42.5 39.8160714,42.1964286 39.0446429,42 C38.7267857,42.8232143 37.9339286,43.4107143 37,43.4107143 C36.0642857,43.4107143 35.2714286,42.8232143 34.9553571,42 C34.1839286,42.1964286 33.4571429,42.5 32.7892857,42.8964286 C33.1482143,43.7035714 33.0017857,44.6785714 32.3410714,45.3392857 C31.6803571,46 30.7035714,46.1464286 29.8982143,45.7892857 C29.5,46.4571429 29.1964286,47.1839286 29,47.9553571 C29.8232143,48.2732143 30.4107143,49.0660714 30.4107143,50 C30.4107143,50.9357143 29.8232143,51.7285714 29,52.0446429 C29.1964286,52.8160714 29.5,53.5428571 29.8964286,54.2107143 C30.7035714,53.8517857 31.6785714,53.9982143 32.3392857,54.6607143 C33,55.3214286 33.1464286,56.2982143 32.7875,57.1035714 C33.4571429,57.5 34.1839286,57.8035714 34.9553571,58 C35.2732143,57.1767857 36.0660714,56.5892857 37,56.5892857 C37.9357143,56.5892857 38.7285714,57.1767857 39.0446429,58 C39.8160714,57.8035714 40.5428571,57.5 41.2107143,57.1035714 C40.8517857,56.2964286 40.9982143,55.3214286 41.6589286,54.6607143 C42.3196429,54 43.2964286,53.8535714 44.1017857,54.2107143 C44.5,53.5428571 44.8035714,52.8160714 45,52.0446429 C44.1767857,51.7285714 43.5892857,50.9357143 43.5892857,50 Z M37,52.1964286 C35.7875,52.1964286 34.8035714,51.2125 34.8035714,50 C34.8035714,48.7875 35.7875,47.8035714 37,47.8035714 C38.2125,47.8035714 39.1964286,48.7875 39.1964286,50 C39.1964286,51.2125 38.2125,52.1964286 37,52.1964286 Z" id="设置"></path>
        </g>
    </g>
</svg>
