<svg xmlns="http://www.w3.org/2000/svg" xmlns:xlink="http://www.w3.org/1999/xlink" width="20" height="20.001" viewBox="0 0 20 20.001"><defs><style>.a{fill:none;}.b{fill:url(#a);}.c{fill:url(#b);}.d{fill:#fff;opacity:0.902;}</style><linearGradient id="a" x1="0.271" y1="0.806" x2="0.957" y2="0.051" gradientUnits="objectBoundingBox"><stop offset="0" stop-color="#FFCA87"/><stop offset="1" stop-color="#E6932B"/></linearGradient><linearGradient id="b" x1="0.76" x2="-0.093" y2="1.192" gradientUnits="objectBoundingBox"><stop offset="0" stop-color="#FFCA87"/><stop offset="1" stop-color="#E6932B"/></linearGradient></defs><g transform="translate(-75.8 -0.282)"><rect class="a" width="20" height="20" transform="translate(75.8 0.282)"/><path class="b" d="M94.8,19.158a1.22,1.22,0,0,1-1.251,1.124H77.912A1.08,1.08,0,0,1,76.8,19.255V1.18a.936.936,0,0,1,.973-.9h9.661c.013,0,.023.006.036.007a.924.924,0,0,1,.625.25l6.359,5.49a1.037,1.037,0,0,1,.216.288.6.6,0,0,1,.131.354V19.158Z" transform="translate(0)"/><path class="c" d="M557.545,7.473a.924.924,0,0,1-.656-.257,1.054,1.054,0,0,1-.3-.8V1.148h0a.785.785,0,0,1,.427-.8.747.747,0,0,1,.853.192l6.007,5.49a.869.869,0,0,1,.262.9.835.835,0,0,1-.821.514l-5.777.032Z" transform="translate(-469.408 0)"/><path class="d" d="M238.027,345.057h-6.236a.642.642,0,1,1,0-1.284h6.236a.642.642,0,1,1,0,1.284ZM235.8,341.2h-4a.642.642,0,1,1,0-1.284h3.972a.651.651,0,0,1,.657.642.624.624,0,0,1-.624.642Zm4.366,7.737h-8.37a.642.642,0,1,1,0-1.284h8.37a.642.642,0,1,1,0,1.284Z" transform="translate(-150.903 -332.994)"/></g></svg>