<?xml version="1.0" encoding="UTF-8"?>
<svg width="12px" height="12px" viewBox="0 0 12 12" version="1.1" xmlns="http://www.w3.org/2000/svg" xmlns:xlink="http://www.w3.org/1999/xlink">
    <title>编组 16</title>
    <defs>
        <rect id="path-1" x="400" y="301" width="870" height="673" rx="4"></rect>
        <filter x="-4.0%" y="-3.7%" width="108.0%" height="110.4%" filterUnits="objectBoundingBox" id="filter-2">
            <feOffset dx="0" dy="10" in="SourceAlpha" result="shadowOffsetOuter1"></feOffset>
            <feGaussianBlur stdDeviation="10" in="shadowOffsetOuter1" result="shadowBlurOuter1"></feGaussianBlur>
            <feColorMatrix values="0 0 0 0 0.364705882   0 0 0 0 0.494117647   0 0 0 0 0.921568627  0 0 0 0.1 0" type="matrix" in="shadowBlurOuter1"></feColorMatrix>
        </filter>
    </defs>
    <g id="简视页面" stroke="none" stroke-width="1" fill="none" fill-rule="evenodd">
        <g id="智能创作页面" transform="translate(-555.000000, -818.000000)">
            <rect fill="#F7F8F9" x="0" y="0" width="1920" height="1957"></rect>
            <g id="矩形">
                <use fill="black" fill-opacity="1" filter="url(#filter-2)" xlink:href="#path-1"></use>
                <use fill="#FFFFFF" fill-rule="evenodd" xlink:href="#path-1"></use>
            </g>
            <rect id="矩形备份-10" fill="#F8F9FC" x="433" y="730" width="577" height="120" rx="4"></rect>
            <g id="编组-16" transform="translate(555.000000, 818.000000)">
                <rect id="矩形" x="0" y="0" width="12" height="12"></rect>
                <g id="编组" transform="translate(1.000000, 0.000000)" fill="#5675E8" fill-rule="nonzero">
                    <path d="M10,6.40677966 C10,6.18212288 9.80045961,6 9.55431755,6 C9.30817549,6 9.1086351,6.18212288 9.1086351,6.40677966 C9.1086351,8.47454237 7.26550139,10.1567797 5,10.1567797 C2.73449861,10.1567797 0.891364903,8.47454237 0.891364903,6.40677966 C0.891364903,6.18212288 0.691824513,6 0.445682451,6 C0.19954039,6 0,6.18212288 0,6.40677966 C0,8.78605932 2.00529248,10.745911 4.55431755,10.9523644 L4.55431755,11.5932203 C4.55431755,11.8169492 4.75487465,12 5,12 C5.24512535,12 5.44568245,11.8169492 5.44568245,11.5932203 L5.44568245,10.9523644 C7.99470752,10.745911 10,8.78605932 10,6.40677966 Z" id="路径"></path>
                    <path d="M5,0 C5.79851628,0 6.55109767,0.300267857 7.11913023,0.845477679 C7.68716279,1.3906875 8,2.11304464 8,2.87946429 L8,2.87946429 L8,6.12053571 C8,6.88695536 7.68716279,7.60929911 7.11913023,8.15452232 C6.55109767,8.69974554 5.79851628,9 5,9 C4.20148372,9 3.44890233,8.69973214 2.88086977,8.15452232 C2.31283721,7.6093125 2,6.88695536 2,6.12053571 L2,6.12053571 L2,2.87946429 C2,2.11304464 2.31283721,1.39070089 2.88086977,0.845477679 C3.44890233,0.300254464 4.20148372,0 5,0 Z M5,0.857142857 C4.4400186,0.857142857 3.91169767,1.06825446 3.51233488,1.45157143 C3.11297209,1.83488839 2.89302326,2.34199554 2.89302326,2.87946429 L2.89302326,2.87946429 L2.89302326,6.12053571 C2.89302326,6.65800446 3.11297209,7.16511161 3.51233488,7.54842857 C3.91169767,7.93174554 4.4400186,8.14285714 5,8.14285714 C5.5599814,8.14285714 6.08830233,7.93174554 6.48766512,7.54842857 C6.88702791,7.16511161 7.10697674,6.65800446 7.10697674,6.12053571 L7.10697674,6.12053571 L7.10697674,2.87946429 C7.10697674,2.34199554 6.88702791,1.83488839 6.48766512,1.45157143 C6.08830233,1.06825446 5.5599814,0.857142857 5,0.857142857 Z" id="形状"></path>
                </g>
            </g>
        </g>
    </g>
</svg>