<?xml version="1.0" encoding="UTF-8"?>
<svg width="140px" height="174px" viewBox="0 0 140 174" version="1.1" xmlns="http://www.w3.org/2000/svg" xmlns:xlink="http://www.w3.org/1999/xlink">
    <title>编组 16</title>
    <defs>
        <linearGradient x1="49.9997623%" y1="0.0020716386%" x2="49.9997623%" y2="100.00127%" id="linearGradient-1">
            <stop stop-color="#D4DBE5" offset="0%"></stop>
            <stop stop-color="#FFFFFF" offset="100%"></stop>
        </linearGradient>
        <linearGradient x1="50.0000766%" y1="100.001495%" x2="50.0000766%" y2="0.001272467%" id="linearGradient-2">
            <stop stop-color="#FFFFFF" offset="11.19%"></stop>
            <stop stop-color="#E2E6ED" offset="92.05%"></stop>
        </linearGradient>
        <linearGradient x1="50.0026333%" y1="100.006254%" x2="50.0026333%" y2="-0.0108624095%" id="linearGradient-3">
            <stop stop-color="#F1F3F6" offset="11.19%"></stop>
            <stop stop-color="#D2D9E3" offset="92.05%"></stop>
        </linearGradient>
        <linearGradient x1="50.0057978%" y1="100.005102%" x2="50.0057978%" y2="-0.0118274583%" id="linearGradient-4">
            <stop stop-color="#F1F3F6" offset="11.19%"></stop>
            <stop stop-color="#D2D9E3" offset="92.05%"></stop>
        </linearGradient>
        <linearGradient x1="100.004082%" y1="50.0044898%" x2="-0.0126530612%" y2="50.0044898%" id="linearGradient-5">
            <stop stop-color="#F1F3F6" offset="11.19%"></stop>
            <stop stop-color="#D2D9E3" offset="92.05%"></stop>
        </linearGradient>
        <linearGradient x1="50.4245399%" y1="100.204108%" x2="49.55094%" y2="-0.181625461%" id="linearGradient-6">
            <stop stop-color="#C9D5E2" offset="11.19%"></stop>
            <stop stop-color="#DAE0E8" offset="92.05%"></stop>
        </linearGradient>
        <linearGradient x1="49.9978773%" y1="99.999701%" x2="49.9978773%" y2="5.94845292e-05%" id="linearGradient-7">
            <stop stop-color="#D2DAE4" offset="11.19%"></stop>
            <stop stop-color="#E2E6EC" offset="92.05%"></stop>
        </linearGradient>
        <linearGradient x1="50.001893%" y1="100.002375%" x2="50.001893%" y2="0.00273357908%" id="linearGradient-8">
            <stop stop-color="#C9D5E2" offset="11.19%"></stop>
            <stop stop-color="#DAE0E8" offset="92.05%"></stop>
        </linearGradient>
        <linearGradient x1="50.0033631%" y1="100.00038%" x2="50.0033631%" y2="0.000737986131%" id="linearGradient-9">
            <stop stop-color="#CDD7E2" offset="11.19%"></stop>
            <stop stop-color="#EBEEF2" offset="92.05%"></stop>
        </linearGradient>
        <linearGradient x1="50.0002627%" y1="100.000549%" x2="50.0002627%" y2="0.00267544762%" id="linearGradient-10">
            <stop stop-color="#C2CFDD" offset="11.19%"></stop>
            <stop stop-color="#DAE0E8" offset="92.05%"></stop>
        </linearGradient>
        <linearGradient x1="27.3947004%" y1="-0.482866943%" x2="72.6039834%" y2="100.481495%" id="linearGradient-11">
            <stop stop-color="#EBEEF2" offset="8.84%"></stop>
            <stop stop-color="#D2D9E3" offset="100%"></stop>
        </linearGradient>
        <linearGradient x1="-0.0106075217%" y1="49.9633431%" x2="100.002786%" y2="49.9633431%" id="linearGradient-12">
            <stop stop-color="#CAD5E2" offset="11.19%"></stop>
            <stop stop-color="#D2D9E3" offset="92.05%"></stop>
        </linearGradient>
        <linearGradient x1="6.27155784e-05%" y1="49.9995112%" x2="100.006387%" y2="49.9995112%" id="linearGradient-13">
            <stop stop-color="#CAD5E2" offset="11.19%"></stop>
            <stop stop-color="#D2D9E3" offset="92.05%"></stop>
        </linearGradient>
        <linearGradient x1="6.27155784e-05%" y1="49.9868035%" x2="100.006387%" y2="49.9868035%" id="linearGradient-14">
            <stop stop-color="#CAD5E2" offset="11.19%"></stop>
            <stop stop-color="#D2D9E3" offset="92.05%"></stop>
        </linearGradient>
        <linearGradient x1="6.27155784e-05%" y1="49.973607%" x2="100.006387%" y2="49.973607%" id="linearGradient-15">
            <stop stop-color="#CAD5E2" offset="11.19%"></stop>
            <stop stop-color="#D2D9E3" offset="92.05%"></stop>
        </linearGradient>
    </defs>
    <g id="icon以及组件与规范" stroke="none" stroke-width="1" fill="none" fill-rule="evenodd">
        <g id="icon" transform="translate(-424.000000, -734.000000)" fill-rule="nonzero">
            <g id="编组-16" transform="translate(424.000000, 734.000000)">
                <g id="编组" opacity="0.400000006">
                    <g>
                        <ellipse id="椭圆形" fill="url(#linearGradient-1)" cx="70" cy="109.237995" rx="70" ry="17.7620053"></ellipse>
                        <polygon id="路径" fill="url(#linearGradient-2)" points="110.235622 32.4022469 110.235622 4.08796755 104.546072 -6.74721405e-15 79.6940993 9.87094603 79.6940993 38.7834645 74.0045495 38.7834645 74.0045495 30.8069424 63.1269098 30.8069424 63.1269098 38.2849319 57.9364433 38.2849319 57.9364433 24.3260183 48.5536769 24.3260183 48.5536769 49.0508627 45.9584437 49.0508627 45.9584437 5.48385891 23.801521 5.48385891 23.801521 45.4638017 12.5246147 45.4638017 12.5246147 60.2702208 6.03653154 60.2702208 6.03653154 74.6255865 130.196578 74.6255865 130.196578 73.4765875 130.196578 60.2702208 130.196578 32.4022469"></polygon>
                        <ellipse id="椭圆形" fill="url(#linearGradient-3)" cx="10.190806" cy="53.2029273" rx="3.61003599" ry="3.60605268"></ellipse>
                        <ellipse id="椭圆形" fill="url(#linearGradient-4)" cx="117.519861" cy="31.1559153" rx="5.12392205" ry="5.11826831"></ellipse>
                        <ellipse id="椭圆形" fill="url(#linearGradient-5)" cx="112.395939" cy="103.986784" rx="2.91131935" ry="2.908107"></ellipse>
                    </g>
                    <g transform="translate(16.070420, 34.902032)" id="路径">
                        <path d="M45.6091482,61.0370114 L16.857196,66.4995046 C12.6054815,67.3066527 8.50111538,64.5196179 7.69307572,60.2702208 L0.17830693,20.8030544 C-0.855508511,15.3761706 2.71174891,10.141578 8.14225071,9.11127727 L34.7600276,4.05473204 C39.0117421,3.24758398 43.1161082,6.03461876 43.9241479,10.2840159 L51.8453131,51.8830028 C52.6533528,56.1323999 49.8608628,60.2298634 45.6091482,61.0370114 Z" fill="url(#linearGradient-6)"></path>
                        <path d="M49.5400235,60.4506421 L20.7880713,65.9131353 C16.5363568,66.7202834 12.4319906,63.9332486 11.623951,59.6838514 L4.32069846,21.3277006 C3.5126588,17.0806774 6.3027722,12.98084 10.5568633,12.173692 L39.3088155,6.71119876 C43.5605301,5.90405069 47.6648962,8.69108548 48.4729358,12.9404826 L55.7761884,51.2966335 C56.584228,55.5436567 53.791738,59.6411201 49.5400235,60.4506421 Z" fill="url(#linearGradient-7)"></path>
                        <path d="M56.2277399,56.8089799 L84.9796921,62.2714732 C89.2314067,63.0786212 93.3357728,60.2915864 94.1438125,56.0421893 L101.447065,17.6860385 C102.255105,13.4390153 99.4649913,9.3391779 95.2109001,8.53202983 L66.4589479,3.06953661 C62.2072334,2.26238855 58.1028673,5.04942333 57.2948276,9.29882049 L49.9915751,47.6549713 C49.1835354,51.9043685 51.9760254,56.0018319 56.2277399,56.8089799 Z" fill="url(#linearGradient-8)"></path>
                        <path d="M55.807084,60.1657663 L84.5590362,65.6282595 C88.8107507,66.4354076 92.9151169,63.6483728 93.7231565,59.3989756 L101.026409,21.0428248 C101.834449,16.7958016 99.0443353,12.6959643 94.7902442,11.8888162 L66.038292,6.42632297 C61.7865775,5.61917491 57.6822113,8.40620969 56.8741717,12.6556069 L49.5709191,51.0117577 C48.7628795,55.2587809 51.5553695,59.3586182 55.807084,60.1657663 Z" fill="url(#linearGradient-9)"></path>
                        <path d="M69.130232,69.2105726 L34.0660641,69.2105726 C28.7591448,69.2105726 24.457522,64.9136961 24.457522,59.6126325 L24.457522,9.59794007 C24.457522,4.29687646 28.7591448,-1.34944281e-14 34.0660641,-1.34944281e-14 L69.130232,-1.34944281e-14 C74.4371512,-1.34944281e-14 78.7387741,4.29687646 78.7387741,9.59794007 L78.7387741,59.6126325 C78.7387741,64.9136961 74.4371512,69.2105726 69.130232,69.2105726 Z" fill="url(#linearGradient-10)"></path>
                        <path d="M70.9007894,69.2105726 L35.6417414,69.2105726 C31.3115995,69.2105726 27.8037568,65.7042264 27.8037568,61.3812363 L27.8037568,11.292951 C27.8037568,6.96758697 31.3139761,3.46361478 35.6417414,3.46361478 L70.9007894,3.46361478 C75.2309314,3.46361478 78.7387741,6.96996093 78.7387741,11.292951 L78.7387741,61.3812363 C78.7387741,65.7066004 75.2285548,69.2105726 70.9007894,69.2105726 Z" fill="url(#linearGradient-11)"></path>
                        <path d="M54.2979511,18.4290895 L36.97976,18.4290895 C35.6369883,18.4290895 34.5485113,17.3418136 34.5485113,16.0005234 L34.5485113,16.0005234 C34.5485113,14.6592332 35.6369883,13.5719573 36.97976,13.5719573 L54.2979511,13.5719573 C55.6407229,13.5719573 56.7291998,14.6592332 56.7291998,16.0005234 L56.7291998,16.0005234 C56.7291998,17.3418136 55.6407229,18.4290895 54.2979511,18.4290895 Z" fill="url(#linearGradient-12)"></path>
                        <path d="M70.0119458,31.7422846 L36.9773835,31.7422846 C35.6346117,31.7422846 34.5461347,30.6550087 34.5461347,29.3137185 L34.5461347,29.3137185 C34.5461347,27.9724284 35.6346117,26.8851524 36.9773835,26.8851524 L70.0095692,26.8851524 C71.352341,26.8851524 72.4408218,27.9724284 72.4408218,29.3137185 L72.4408218,29.3137185 C72.4431946,30.6550087 71.3547176,31.7422846 70.0119458,31.7422846 Z" fill="url(#linearGradient-13)"></path>
                        <path d="M70.0119458,45.0578537 L36.9773835,45.0578537 C35.6346117,45.0578537 34.5461347,43.9705778 34.5461347,42.6292876 L34.5461347,42.6292876 C34.5461347,41.2879975 35.6346117,40.2007215 36.9773835,40.2007215 L70.0095692,40.2007215 C71.352341,40.2007215 72.4408218,41.2879975 72.4408218,42.6292876 L72.4408218,42.6292876 C72.4431946,43.9705778 71.3547176,45.0578537 70.0119458,45.0578537 Z" fill="url(#linearGradient-14)"></path>
                        <path d="M70.0119458,58.3734228 L36.9773835,58.3734228 C35.6346117,58.3734228 34.5461347,57.2861469 34.5461347,55.9448567 L34.5461347,55.9448567 C34.5461347,54.6035666 35.6346117,53.5162906 36.9773835,53.5162906 L70.0095692,53.5162906 C71.352341,53.5162906 72.4408218,54.6035666 72.4408218,55.9448567 L72.4408218,55.9448567 C72.4431946,57.2861469 71.3547176,58.3734228 70.0119458,58.3734228 Z" fill="url(#linearGradient-15)"></path>
                    </g>
                </g>
                <path d="M22.302,170.358 C24.248,169.518 25.648,168.328 26.516,166.816 C26.992,165.92 27.342,164.87 27.566,163.652 L28.7,163.652 L28.7,168.748 C28.7,169.7 29.148,170.176 30.072,170.176 L32.34,170.176 C32.928,170.176 33.348,170.05 33.614,169.798 C33.922,169.49 34.132,168.664 34.244,167.292 L33.292,166.984 C33.222,168.076 33.096,168.72 32.9,168.944 C32.746,169.126 32.494,169.224 32.158,169.224 L30.38,169.224 C29.932,169.224 29.708,168.986 29.708,168.538 L29.708,163.652 L34.048,163.652 L34.048,162.686 L27.72,162.686 C27.818,161.93 27.874,161.104 27.902,160.236 L27.902,159.298 L32.914,159.298 L32.914,158.318 L22.862,158.318 L22.862,159.298 L26.88,159.298 L26.88,160.236 C26.866,161.104 26.81,161.93 26.698,162.686 L21.924,162.686 L21.924,163.652 L26.53,163.652 C26.348,164.534 26.096,165.332 25.76,166.032 C25.004,167.46 23.674,168.594 21.742,169.462 L22.302,170.358 Z M42.518,161.748 C42.924,161.174 43.288,160.53 43.624,159.83 L44.87,159.83 C45.22,160.376 45.528,160.936 45.794,161.524 L46.718,161.174 C46.522,160.754 46.256,160.306 45.948,159.83 L48.09,159.83 L48.09,158.906 L44.002,158.906 C44.156,158.514 44.296,158.094 44.422,157.646 L43.442,157.436 C43.078,158.808 42.476,160.068 41.664,161.202 L42.518,161.748 Z M36.47,161.79 C36.974,161.202 37.408,160.544 37.8,159.83 L38.808,159.83 C39.172,160.362 39.48,160.922 39.746,161.51 L40.684,161.16 C40.474,160.74 40.208,160.306 39.886,159.83 L41.846,159.83 L41.846,158.906 L38.248,158.906 C38.416,158.514 38.584,158.108 38.724,157.674 L37.758,157.464 C37.31,158.836 36.582,160.096 35.602,161.244 L36.47,161.79 Z M38.598,170.33 L38.598,163.386 C38.892,162.854 39.158,162.308 39.382,161.72 L38.528,161.314 C37.926,162.896 36.974,164.296 35.658,165.528 L35.966,166.578 C36.568,166.046 37.114,165.458 37.604,164.842 L37.604,170.33 L38.598,170.33 Z M45.108,170.288 C45.976,170.288 46.41,169.84 46.41,168.958 L46.41,164.38 L48.202,164.38 L48.202,163.4 L46.41,163.4 L46.41,161.93 L45.416,161.93 L45.416,163.4 L39.69,163.4 L39.69,164.38 L45.416,164.38 L45.416,168.706 C45.416,169.154 45.192,169.392 44.744,169.392 C44.128,169.392 43.47,169.364 42.784,169.322 L43.008,170.288 L45.108,170.288 Z M42.756,168.328 L43.54,167.782 C43.064,167.04 42.364,166.172 41.468,165.178 L40.684,165.654 C41.552,166.634 42.252,167.516 42.756,168.328 Z M49.966,163.4 C52.458,162 54.474,160.362 56,158.458 C57.652,160.474 59.64,162.112 61.978,163.372 L62.524,162.406 C60.2,161.23 58.142,159.606 56.364,157.548 L55.636,157.548 C53.984,159.494 51.926,161.118 49.434,162.434 L49.966,163.4 Z M59.64,162.966 L59.64,162 L52.36,162 L52.36,162.966 L59.64,162.966 Z M52.556,170.386 L52.556,169.546 L59.444,169.546 L59.444,170.386 L60.424,170.386 L60.424,164.744 L51.576,164.744 L51.576,170.386 L52.556,170.386 Z M59.444,168.58 L52.556,168.58 L52.556,165.696 L59.444,165.696 L59.444,168.58 Z M64.064,164.38 C66.36,164.002 68.334,163.386 70.014,162.518 C71.638,163.316 73.598,163.89 75.922,164.226 L76.384,163.288 C74.312,163.022 72.52,162.574 71.008,161.944 C72.142,161.23 73.108,160.39 73.906,159.41 L73.906,158.626 L68.446,158.626 C68.67,158.318 68.88,157.982 69.104,157.632 L68.124,157.408 C67.158,158.892 65.94,160.11 64.456,161.034 L65.1,161.804 C65.744,161.384 66.36,160.894 66.934,160.348 C67.536,160.95 68.236,161.496 69.048,161.986 C67.508,162.686 65.702,163.176 63.63,163.47 L64.064,164.38 Z M70.028,161.496 C69.048,160.992 68.222,160.404 67.55,159.732 L67.732,159.522 L72.646,159.522 C71.904,160.264 71.036,160.922 70.028,161.496 Z M69.258,170.358 C70.126,170.358 70.56,169.924 70.56,169.084 L70.56,165.976 L75.208,165.976 L75.208,165.01 L70.56,165.01 L70.56,163.638 L69.524,163.638 L69.524,165.01 L64.75,165.01 L64.75,165.976 L69.524,165.976 L69.524,168.832 C69.524,169.252 69.314,169.462 68.908,169.462 C68.46,169.462 67.97,169.434 67.466,169.392 L67.69,170.358 L69.258,170.358 Z M75.11,170.036 L75.838,169.294 C74.62,168.174 73.556,167.334 72.66,166.774 L72.002,167.39 C73.052,168.146 74.088,169.028 75.11,170.036 Z M64.568,170.064 C65.828,169.322 66.892,168.454 67.76,167.46 L67.06,166.844 C66.22,167.754 65.17,168.538 63.924,169.21 L64.568,170.064 Z M80.234,170.414 L80.234,161.062 C80.794,160.068 81.256,159.018 81.62,157.912 L80.668,157.478 C79.996,159.662 78.932,161.608 77.448,163.288 L77.77,164.366 C78.302,163.806 78.792,163.218 79.24,162.602 L79.24,170.414 L80.234,170.414 Z M86.618,170.344 L86.618,165.836 L90.356,165.836 L90.356,164.87 L86.618,164.87 L86.618,161.496 L89.838,161.496 L89.838,160.516 L86.618,160.516 L86.618,157.604 L85.61,157.604 L85.61,160.516 L83.552,160.516 C83.748,159.9 83.902,159.228 84.014,158.528 L83.02,158.402 C82.712,160.264 82.138,161.846 81.284,163.134 L81.928,163.974 C82.446,163.246 82.88,162.42 83.23,161.496 L85.61,161.496 L85.61,164.87 L81.494,164.87 L81.494,165.836 L85.61,165.836 L85.61,170.344 L86.618,170.344 Z M93.492,170.386 L93.492,160.796 L97.482,160.796 C97.384,161.44 97.258,162.028 97.104,162.574 C96.6,164.128 95.564,165.416 93.996,166.452 L94.668,167.278 C96.292,166.214 97.384,164.898 97.958,163.302 C99.274,164.646 100.352,165.92 101.164,167.124 L101.92,166.354 C100.926,165.024 99.708,163.666 98.252,162.294 C98.364,161.832 98.448,161.328 98.518,160.796 L102.522,160.796 L102.522,168.608 C102.522,169.056 102.298,169.294 101.85,169.294 L99.708,169.238 L99.988,170.246 L102.186,170.246 C103.082,170.246 103.544,169.77 103.544,168.832 L103.544,159.816 L98.63,159.816 C98.686,159.116 98.728,158.346 98.728,157.52 L97.706,157.52 C97.706,158.332 97.664,159.102 97.594,159.816 L92.47,159.816 L92.47,170.386 L93.492,170.386 Z M107.254,161.3 L107.254,159.676 L116.746,159.676 L116.746,161.23 L117.726,161.23 L117.726,158.738 L112.644,158.738 C112.49,158.276 112.336,157.856 112.168,157.492 L111.09,157.674 C111.258,157.996 111.426,158.346 111.594,158.738 L106.274,158.738 L106.274,161.3 L107.254,161.3 Z M106.61,163.582 C108.346,162.798 109.802,161.888 110.992,160.852 L110.32,160.25 C109.144,161.23 107.716,162.07 106.008,162.798 L106.61,163.582 Z M117.194,163.554 L117.894,162.868 C116.746,162 115.318,161.132 113.638,160.264 L112.994,160.894 C114.772,161.832 116.172,162.714 117.194,163.554 Z M108.948,170.414 L108.948,169.826 L115.206,169.826 L115.206,170.414 L116.172,170.414 L116.172,165.836 C116.648,166.06 117.166,166.284 117.726,166.508 L118.272,165.682 C115.5,164.618 113.54,163.386 112.406,161.972 L111.636,161.972 C110.236,163.512 108.262,164.744 105.7,165.696 L106.232,166.522 C106.82,166.298 107.394,166.06 107.968,165.78 L107.968,170.414 L108.948,170.414 Z M116.018,165.766 L107.996,165.766 C109.55,164.996 110.894,164.03 112.014,162.854 C112.966,163.946 114.31,164.926 116.018,165.766 Z M115.206,168.902 L108.948,168.902 L108.948,166.662 L115.206,166.662 L115.206,168.902 Z" id="无符合条件内容" fill="#404040"></path>
            </g>
        </g>
    </g>
</svg>