<?xml version="1.0" encoding="UTF-8"?>
<svg width="18px" height="18px" viewBox="0 0 18 18" version="1.1" xmlns="http://www.w3.org/2000/svg" xmlns:xlink="http://www.w3.org/1999/xlink">
    <title>编组 33</title>
    <g id="云媒资" stroke="none" stroke-width="1" fill="none" fill-rule="evenodd">
        <g id="icon" transform="translate(-906.000000, -604.000000)">
            <g id="编组-33" transform="translate(906.000000, 604.000000)">
                <rect id="矩形" x="0" y="0" width="18" height="18"></rect>
                <g id="编组-30" transform="translate(3.000000, 0.000000)">
                    <rect id="矩形备份-56" fill="rgba(64, 64, 64, 1)" x="2" y="8.5" width="8" height="1" rx="0.5"></rect>
                    <rect id="矩形备份-57" fill="rgba(64, 64, 64, 1)" x="2" y="11.5" width="8" height="1" rx="0.5"></rect>
                    <rect id="矩形备份-58" fill="rgba(64, 64, 64, 1)" x="9" y="1.5" width="4" height="1" rx="0.5"></rect>
                    <rect id="矩形备份-59" fill="rgba(64, 64, 64, 1)" x="10.5" y="0" width="1" height="4" rx="0.5"></rect>
                    <path d="M12,12.5 L12,3.5 C12,2.3954305 11.1045695,1.5 10,1.5 L2,1.5 C0.8954305,1.5 -8.01404565e-16,2.3954305 0,3.5 L0,14.5 C1.3527075e-16,15.6045695 0.8954305,16.5 2,16.5 L8,16.5 L8,16.5" id="路径-4备份" stroke="rgba(64, 64, 64, 1)" transform="translate(6.000000, 9.000000) scale(1, -1) translate(-6.000000, -9.000000) "></path>
                </g>
            </g>
        </g>
    </g>
</svg>