<?xml version="1.0" encoding="UTF-8"?>
<svg width="14px" height="14px" viewBox="0 0 14 14" version="1.1" xmlns="http://www.w3.org/2000/svg" xmlns:xlink="http://www.w3.org/1999/xlink">
    <title>编组 28</title>
    <g id="新页" stroke="none" stroke-width="1" fill="none" fill-rule="evenodd">
        <g id="icon" transform="translate(-68.000000, -277.000000)">
            <g id="编组-28" transform="translate(68.000000, 277.000000)">
                <rect id="矩形" x="2" y="2" width="10" height="10"></rect>
                <path d="M11,7.33898305 C11,7.15176907 10.8403677,7 10.643454,7 C10.4465404,7 10.2869081,7.15176907 10.2869081,7.33898305 C10.2869081,9.06211864 8.81240111,10.4639831 7,10.4639831 C5.18759889,10.4639831 3.71309192,9.06211864 3.71309192,7.33898305 C3.71309192,7.15176907 3.55345961,7 3.35654596,7 C3.15963231,7 3,7.15176907 3,7.33898305 C3,9.3217161 4.60423398,10.9549258 6.64345404,11.1269703 L6.64345404,11.6610169 C6.64345404,11.8474576 6.80389972,12 7,12 C7.19610028,12 7.35654596,11.8474576 7.35654596,11.6610169 L7.35654596,11.1269703 C9.39576602,10.9549258 11,9.3217161 11,7.33898305 Z" id="路径" fill="#5675e8" fill-rule="nonzero"></path>
                <path d="M7,2 C7.63881302,2 8.24087814,2.25022321 8.69530419,2.70456473 C9.14973023,3.15890625 9.4,3.76087054 9.4,4.39955357 L9.4,4.39955357 L9.4,7.10044643 C9.4,7.73912946 9.14973023,8.34108259 8.69530419,8.79543527 C8.24087814,9.24978795 7.63881302,9.5 7,9.5 C6.36118698,9.5 5.75912186,9.24977679 5.30469581,8.79543527 C4.85026977,8.34109375 4.6,7.73912946 4.6,7.10044643 L4.6,7.10044643 L4.6,4.39955357 C4.6,3.76087054 4.85026977,3.15891741 5.30469581,2.70456473 C5.75912186,2.25021205 6.36118698,2 7,2 Z M7,2.71428571 C6.55201488,2.71428571 6.12935814,2.89021205 5.80986791,3.20964286 C5.49037767,3.52907366 5.3144186,3.95166295 5.3144186,4.39955357 L5.3144186,4.39955357 L5.3144186,7.10044643 C5.3144186,7.54833705 5.49037767,7.97092634 5.80986791,8.29035714 C6.12935814,8.60978795 6.55201488,8.78571429 7,8.78571429 C7.44798512,8.78571429 7.87064186,8.60978795 8.19013209,8.29035714 C8.50962233,7.97092634 8.6855814,7.54833705 8.6855814,7.10044643 L8.6855814,7.10044643 L8.6855814,4.39955357 C8.6855814,3.95166295 8.50962233,3.52907366 8.19013209,3.20964286 C7.87064186,2.89021205 7.44798512,2.71428571 7,2.71428571 Z" id="形状" fill="#5675e8" fill-rule="nonzero"></path>
                <path d="M0.5,10 C0.776142375,10 1,10.2238576 1,10.5 L1,13 L3.5,13 C3.77614237,13 4,13.2238576 4,13.5 C4,13.7761424 3.77614237,14 3.5,14 L0.5,14 L0.5,14 C0.223857625,14 3.38176876e-17,13.7761424 0,13.5 L0,10.5 C-3.38176876e-17,10.2238576 0.223857625,10 0.5,10 Z M13.5,10 C13.7761424,10 14,10.2238576 14,10.5 L14,13.5 L14,13.5 C14,13.7454599 13.8231248,13.9496084 13.5898756,13.9919443 L13.5,14 L13.5,14 L10.5,14 C10.2238576,14 10,13.7761424 10,13.5 C10,13.2238576 10.2238576,13 10.5,13 L13,13 L13,10.5 C13,10.2238576 13.2238576,10 13.5,10 Z M3.5,0 C3.77614237,0 4,0.223857625 4,0.5 C4,0.776142375 3.77614237,1 3.5,1 L3.5,1 L1,1 L1,3.5 C1,3.74545989 0.823124839,3.94960837 0.589875632,3.99194433 L0.5,4 C0.223857625,4 -3.38176876e-17,3.77614237 0,3.5 L0,3.5 L0,0.5 C3.38176876e-17,0.223857625 0.223857625,0 0.5,0 L0.5,0 Z M13.5,0 C13.7761424,0 14,0.223857625 14,0.5 L14,0.5 L14,3.5 C14,3.77614237 13.7761424,4 13.5,4 C13.2238576,4 13,3.77614237 13,3.5 L13,3.5 L13,1 L10.5,1 C10.2545401,1 10.0503916,0.823124839 10.0080557,0.589875632 L10,0.5 C10,0.223857625 10.2238576,0 10.5,0 L10.5,0 Z" id="形状结合" fill="#5675e8"></path>
            </g>
        </g>
    </g>
</svg>