<?xml version="1.0" encoding="UTF-8"?>
<svg width="14px" height="14px" viewBox="0 0 14 14" version="1.1" xmlns="http://www.w3.org/2000/svg" xmlns:xlink="http://www.w3.org/1999/xlink">
    <title>形状备份</title>
    <g id="icon以及组件与规范" stroke="none" stroke-width="1" fill="none" fill-rule="evenodd">
        <g id="icon" transform="translate(-64.000000, -617.000000)" fill="#5675E8" fill-rule="nonzero">
            <path d="M71,617 C74.8599955,617 78,620.140004 78,624 C78,627.859996 74.8599955,631 71,631 C67.1400045,631 64,627.859996 64,624 C64,620.140004 67.1400045,617 71,617 Z M69,620 C68.4477153,620 68,620.447715 68,621 L68,621 L68,627 C68,627.552285 68.4477153,628 69,628 C69.5522847,628 70,627.552285 70,627 L70,627 L70,621 C70,620.447715 69.5522847,620 69,620 Z M73,620 C72.4477153,620 72,620.447715 72,621 L72,621 L72,627 C72,627.552285 72.4477153,628 73,628 C73.5522847,628 74,627.552285 74,627 L74,627 L74,621 C74,620.447715 73.5522847,620 73,620 Z" id="形状备份"></path>
        </g>
    </g>
</svg>