<?xml version="1.0" encoding="UTF-8"?>
<svg width="36px" height="42px" viewBox="0 0 36 42" version="1.1" xmlns="http://www.w3.org/2000/svg" xmlns:xlink="http://www.w3.org/1999/xlink">
    <title>编组备份</title>
    <g id="新页" stroke="none" stroke-width="1" fill="none" fill-rule="evenodd">
        <g id="icon" transform="translate(-462.000000, -170.000000)" fill-rule="nonzero">
            <g id="编组备份" transform="translate(462.000000, 170.000000)">
                <path d="M35.9983069,11.55 L35.9983069,37.3329431 C35.9983069,39.9104875 33.9834935,42 31.4980953,42 L4.49851858,42 C2.01378153,41.9990305 0,39.9098019 0,37.3329431 L0,4.66705686 C0,2.09019807 2.01378153,0.000969457686 4.49851858,0 L24.8629074,0 L36,11.55 L35.9983069,11.55 Z" id="路径" fill="#5C7AEB"></path>
                <path d="M24.9230769,7.9840515 L24.9230769,0 L36,11.4545455 L28.2791589,11.4545455 C26.4268307,11.4545455 24.9230769,9.90126868 24.9230769,7.9840515 Z" id="路径" fill="#C6D2FC"></path>
                <path d="M23.9995084,17.3731878 L23.9995084,25.9167089 C23.9995084,26.862078 22.8782107,27.6314474 21.4191728,27.6314474 C19.9601349,27.6314474 18.8489693,26.862078 18.8489693,25.9167089 C18.8489693,24.9696637 19.9719557,24.2002943 21.4191728,24.2002943 C21.9207171,24.1969419 22.418884,24.2991892 22.8782107,24.5020078 L22.8782107,18.5213754 L15.3938864,20.2696376 L15.3938864,27.8761706 C15.3938864,28.8232158 14.2709,29.5909091 12.7797767,29.5909091 C11.2869648,29.5909091 10.1538462,28.8232158 10.1538462,27.8761706 C10.1538462,26.9291254 11.330871,26.1614321 12.7797767,26.1614321 C13.293142,26.1547274 13.8031298,26.2620033 14.2709,26.4732027 L14.2709,19.0996596 C14.2568261,18.5721202 14.6179245,18.1072914 15.1355151,17.986672 L22.6080185,16.2602002 C22.9485255,16.176124 23.3090507,16.2551093 23.5822672,16.4736424 C23.8554836,16.6921755 24.0098857,17.0250564 23.9995084,17.3731878 L23.9995084,17.3731878 Z" id="路径" fill="#FFFFFF"></path>
            </g>
        </g>
    </g>
</svg>