<?xml version="1.0" encoding="UTF-8"?>
<svg width="88px" height="70px" viewBox="0 0 88 70" version="1.1" xmlns="http://www.w3.org/2000/svg" xmlns:xlink="http://www.w3.org/1999/xlink">
    <title>目录</title>
    <defs>
        <polygon id="path-1" points="0 0 48 0 48 13 0 13"></polygon>
        <linearGradient x1="0%" y1="46.3324034%" x2="100%" y2="53.6675966%" id="linearGradient-3">
            <stop stop-color="#7D99FF" offset="0%"></stop>
            <stop stop-color="#5675E8" offset="100%"></stop>
        </linearGradient>
        <polygon id="path-4" points="0 1.75744975e-15 88 1.75744975e-15 88 60 0 60"></polygon>
        <linearGradient x1="0%" y1="26.7561931%" x2="100%" y2="73.2438069%" id="linearGradient-6">
            <stop stop-color="#7D99FF" offset="0%"></stop>
            <stop stop-color="#5675E8" offset="100%"></stop>
        </linearGradient>
    </defs>
    <g id="新页" stroke="none" stroke-width="1" fill="none" fill-rule="evenodd">
        <g id="画板" transform="translate(-552.000000, -102.000000)">
            <g id="目录" transform="translate(552.000000, 102.000000)">
                <g id="Fill-1-Clipped">
                    <mask id="mask-2" fill="white">
                        <use xlink:href="#path-1"></use>
                    </mask>
                    <g id="path-1"></g>
                    <path d="M48,13 L0,13 L0,3.87763514 C0,1.73604356 1.69328268,-0.000109577956 3.78225609,-0.000109577956 L44.2177439,-0.000109577956 C46.3065035,-0.000109577956 48,1.73604356 48,3.87763514 L48,13 Z" id="Fill-1" fill="url(#linearGradient-3)" opacity="0.400000006" mask="url(#mask-2)"></path>
                </g>
                <g id="Fill-3-Clipped" transform="translate(0.000000, 10.000000)">
                    <mask id="mask-5" fill="white">
                        <use xlink:href="#path-4"></use>
                    </mask>
                    <g id="path-3"></g>
                    <path d="M84.7170441,60.0000218 L3.2829338,60.0000218 C1.46965535,60.0000218 -2.20539826e-05,58.5447811 -2.20539826e-05,56.7498023 L-2.20539826e-05,3.25021952 C-2.20539826e-05,1.4552407 1.46965535,1.75744975e-15 3.2829338,1.75744975e-15 L84.7170441,1.75744975e-15 C86.5303226,1.75744975e-15 88,1.4552407 88,3.25021952 L88,56.7498023 C88,58.5447811 86.5303226,60.0000218 84.7170441,60.0000218" id="Fill-3" fill="url(#linearGradient-6)" mask="url(#mask-5)"></path>
                </g>
                <path d="M51.8446953,34 L13.1553047,34 C11.4125492,34 10,32.4329515 10,30.5001211 C10,28.5670485 11.4125492,27 13.1553047,27 L51.8446953,27 C53.5872324,27 55,28.5670485 55,30.5001211 C55,32.4329515 53.5872324,34 51.8446953,34" id="Fill-5" fill="#F5F7FF" fill-rule="nonzero"></path>
                <path d="M42.2425087,45 L12.7577057,45 C11.2347264,45 10,43.6054262 10,41.8852822 L10,41.1147178 C10,39.3945738 11.2347264,38 12.7577057,38 L42.2425087,38 C43.7654881,38 45,39.3945738 45,41.1147178 L45,41.8852822 C45,43.6054262 43.7654881,45 42.2425087,45" id="Fill-7" fill="#F5F7FF" fill-rule="nonzero"></path>
                <path d="M32.6040467,57 L12.3957266,57 C11.0724225,57 10,55.8534796 10,54.4390421 L10,52.5609579 C10,51.1465204 11.0724225,50 12.3957266,50 L32.6040467,50 C33.9273509,50 35,51.1465204 35,52.5609579 L35,54.4390421 C35,55.8534796 33.9273509,57 32.6040467,57" id="Fill-9" fill="#F5F7FF" fill-rule="nonzero"></path>
            </g>
        </g>
    </g>
</svg>