<?xml version="1.0" encoding="UTF-8"?>
<svg width="18px" height="18px" viewBox="0 0 18 18" version="1.1" xmlns="http://www.w3.org/2000/svg" xmlns:xlink="http://www.w3.org/1999/xlink">
    <title>文件夹信息</title>
    <g id="新页" stroke="none" stroke-width="1" fill="currentColor" fill-rule="evenodd">
        <g id="画板" transform="translate(-92.000000, -274.000000)">
            <g id="文件夹信息" transform="translate(92.000000, 274.000000)">
                <rect id="矩形" x="0" y="0" width="18" height="18"></rect>
                <g id="编组" transform="translate(3.000000, 1.500000)">
                    <path d="M12,7.125 L12,3.75 L8.625,0 L0.75,0 C0.33578625,0 0,0.33578625 0,0.75 L0,14.25 C0,14.664225 0.33578625,15 0.75,15 L5.25,15" id="路径" stroke="#FFFFFF" stroke-width="0.75" stroke-linejoin="round"></path>
                    <line x1="9.375" y1="8.25" x2="9.375" y2="12" id="路径" stroke="#FFFFFF" stroke-width="0.75" stroke-linejoin="round"></line>
                    <path d="M9.375,15.75 C9.8927625,15.75 10.3125,15.3302625 10.3125,14.8125 C10.3125,14.2947375 9.8927625,13.875 9.375,13.875 C8.8572375,13.875 8.4375,14.2947375 8.4375,14.8125 C8.4375,15.3302625 8.8572375,15.75 9.375,15.75 Z" id="路径" fill="#FFFFFF"></path>
                    <polyline id="路径" stroke="#FFFFFF" stroke-width="0.75" stroke-linejoin="round" points="8.25 0 8.25 3.75 12 3.75"></polyline>
                </g>
            </g>
        </g>
    </g>
</svg>
