<?xml version="1.0" encoding="UTF-8"?>
<svg width="38px" height="38px" viewBox="0 0 38 38" version="1.1" xmlns="http://www.w3.org/2000/svg" xmlns:xlink="http://www.w3.org/1999/xlink">
    <title>编组 11备份</title>
    <defs>
        <linearGradient x1="10.7445764%" y1="3.28280172%" x2="91.5807276%" y2="99.4845022%" id="linearGradient-1">
            <stop stop-color="#00C6FB" offset="0%"></stop>
            <stop stop-color="#005BEA" offset="100%"></stop>
        </linearGradient>
        <linearGradient x1="15.6771604%" y1="3.28280172%" x2="86.3559608%" y2="99.4845022%" id="linearGradient-2">
            <stop stop-color="#00C6FB" offset="0%"></stop>
            <stop stop-color="#005BEA" offset="100%"></stop>
        </linearGradient>
    </defs>
    <g id="新页" stroke="none" stroke-width="1" fill="none" fill-rule="evenodd">
        <g id="icon" transform="translate(-1263.000000, -35.000000)">
            <g id="编组-11备份" transform="translate(1263.000000, 35.000000)">
                <rect id="矩形" x="0" y="0" width="38" height="38"></rect>
                <path d="M2,16.2857143 L12.8710465,16.2857143 L12.8710465,16.2857143 L19.9047619,23.4954687 L19.9047619,36 C19.9047619,37.1045695 19.0093314,38 17.9047619,38 L2,38 C0.8954305,38 1.3527075e-16,37.1045695 0,36 L0,18.2857143 C-1.3527075e-16,17.1811448 0.8954305,16.2857143 2,16.2857143 Z" id="蒙版" fill="url(#linearGradient-1)" opacity="0.400000006"></path>
                <path d="M7.42857143,0 L36,0 C37.1045695,-2.02906125e-16 38,0.8954305 38,2 L38,36 C38,37.1045695 37.1045695,38 36,38 L7.42857143,38 C6.32400193,38 5.42857143,37.1045695 5.42857143,36 L5.42857143,2 C5.42857143,0.8954305 6.32400193,2.02906125e-16 7.42857143,0 Z" id="蒙版" fill="url(#linearGradient-2)"></path>
                <path d="M29.8571429,17.6428571 L29.8571429,28 C29.8571429,28.2761424 29.6332852,28.5 29.3571429,28.5 L24.4285714,28.5 L24.4285714,24.4285714 L19,24.4285714 L19,28.5 L14.0714286,28.5 C13.7952862,28.5 13.5714286,28.2761424 13.5714286,28 L13.5714286,17.6428571 L29.8571429,17.6428571 Z M21.7742857,8.18785714 L32.3314286,16.1057143 C32.3756114,16.1388514 32.3845657,16.2015315 32.3514286,16.2457143 C32.3325431,16.2708949 32.3029043,16.2857143 32.2714286,16.2857143 L11.1571429,16.2857143 C11.1019144,16.2857143 11.0571429,16.2409428 11.0571429,16.1857143 C11.0571429,16.1542386 11.0719623,16.1245997 11.0971429,16.1057143 L21.6542857,8.18785714 C21.6898413,8.16119048 21.7387302,8.16119048 21.7742857,8.18785714 Z" id="形状结合" fill="#FFFFFF"></path>
            </g>
        </g>
    </g>
</svg>