<?xml version="1.0" encoding="UTF-8"?>
<svg width="52px" height="42px" viewBox="0 0 52 42" version="1.1" xmlns="http://www.w3.org/2000/svg" xmlns:xlink="http://www.w3.org/1999/xlink">
    <title>编组 5备份</title>
    <g id="icon以及组件与规范" stroke="none" stroke-width="1" fill="none" fill-rule="evenodd">
        <g id="icon" transform="translate(-486.000000, -613.000000)">
            <g id="编组-5备份" transform="translate(486.000000, 613.000000)">
                <path d="M9,20 C6.790861,20 5,18.209139 5,16 L5,4 C5,1.790861 6.790861,4.05812251e-16 9,0 L25.9418684,0 L35,5.99099675 L35,6 L44,6 C46.209139,6 48,7.790861 48,10 L48,16 C48,18.209139 46.209139,20 44,20 L9,20 Z" id="形状结合" fill="#D2812A"></path>
                <rect id="矩形" fill="#FAB755" x="0" y="8" width="52" height="34" rx="4"></rect>
                <path d="M21,18.5999999 L21.0075769,18.4453328 C21.0578494,17.9343589 21.3553624,17.4742003 21.8124536,17.2143645 C22.315254,16.9285452 22.934746,16.9285452 23.4375464,17.2143645 C23.4944954,17.2467375 23.5489674,17.28222 23.6007928,17.320523 L23.6,17.32 L32.9158198,23.4919621 C33.5434647,23.7128481 33.9935312,24.3067041 33.9999314,24.9998321 C34.0058069,25.6476899 33.6335485,26.2118895 33.0797876,26.4625463 L23.6,32.6799994 C23.32388,32.8900867 22.9837765,33.0124503 22.6249914,32.9989939 C21.7312461,32.9669973 21,32.2790694 21,31.3991616 L21,31.3991616 L21,18.5999999 Z" id="形状结合" fill="#D89636" fill-rule="nonzero"></path>
            </g>
        </g>
    </g>
</svg>