<?xml version="1.0" encoding="UTF-8"?>
<svg width="31px" height="30px" viewBox="0 0 31 30" version="1.1" xmlns="http://www.w3.org/2000/svg" xmlns:xlink="http://www.w3.org/1999/xlink">
    <title>编组</title>
    <g id="icon以及组件与规范" stroke="none" stroke-width="1" fill="" fill-rule="evenodd">
        <g id="icon" transform="translate(-71.000000, -550.000000)" fill="" fill-rule="nonzero">
            <g id="编组" transform="translate(71.000000, 550.000000)">
                <path d="M31,9.70588233 L31,9.57983192 L28.4590164,0.756302521 C28.3319672,0.378151261 27.9508197,0 27.442623,0 L3.55737704,0 C3.04918033,0 2.66803279,0.252100853 2.54098362,0.756302521 L0,9.57983192 L0,29.1176471 C0,29.6218487 0.508196709,30 1.01639346,30 L30.1106557,30 C30.6188525,30 31,29.4957983 31,28.9915966 L31,9.70588233 Z M4.31967212,2.01680671 L26.6803279,2.01680671 L28.5860656,8.8235294 L2.41393441,8.8235294 L4.31967212,2.01680671 Z M28.9672131,27.9831933 L2.03278687,27.9831933 L2.03278687,10.8403361 L28.9672131,10.8403361 L28.9672131,27.9831933 L28.9672131,27.9831933 Z" id="形状"></path>
                <path d="M8.00840337,22 L21.117647,22 C21.6218487,22 22,21.25 22,20.5 C22,19.75 21.4957983,19 20.9915966,19 L7.88235293,19 C7.37815126,19 7,19.75 7,20.5 C7,21.25 7.37815126,22 8.00840337,22 Z" id="路径"></path>
            </g>
        </g>
    </g>
</svg>