<?xml version="1.0" encoding="UTF-8"?>
<svg width="70px" height="70px" viewBox="0 0 70 70" version="1.1" xmlns="http://www.w3.org/2000/svg" xmlns:xlink="http://www.w3.org/1999/xlink">
    <title>编组 7</title>
    <defs>
        <linearGradient x1="0%" y1="0%" x2="99.2214816%" y2="99.2214816%" id="linearGradient-1">
            <stop stop-color="#AE9DFF" offset="0%"></stop>
            <stop stop-color="#FE6984" offset="100%"></stop>
        </linearGradient>
    </defs>
    <g id="新页" stroke="none" stroke-width="1" fill="none" fill-rule="evenodd">
        <g id="icon" transform="translate(-802.000000, -400.000000)">
            <g id="编组-7" transform="translate(802.000000, 400.000000)">
                <g id="编组-18" fill="url(#linearGradient-1)">
                    <rect id="矩形" x="0" y="0" width="70" height="70" rx="4"></rect>
                </g>
                <g id="编组-4" transform="translate(15.000000, 18.000000)" fill="#FFFFFF">
                    <path d="M2,0 L38,0 C39.1045695,-2.02906125e-16 40,0.8954305 40,2 L40,8 L40,8 L0,8 L0,2 C-1.3527075e-16,0.8954305 0.8954305,2.02906125e-16 2,0 Z" id="矩形"></path>
                    <path d="M40,10 L40,32 C40,33.1045695 39.1045695,34 38,34 L2,34 C0.8954305,34 -3.0881846e-16,33.1045695 0,32 L0,10 L40,10 Z M37,26 C36.4477153,26 36,26.4477153 36,27 L36,27 L36,30 L33,30 C32.4477153,30 32,30.4477153 32,31 C32,31.5522847 32.4477153,32 33,32 L33,32 L37,32 C37.5522847,32 38,31.5522847 38,31 L38,31 L38,27 C38,26.4477153 37.5522847,26 37,26 Z M18.1169319,15 C16.9514156,15 16,16.0115793 16,17.2491301 L16,24.7462305 C16,25.1478546 16.1060956,25.552257 16.2905593,25.8928459 C16.914224,26.9727371 18.2207445,27.314693 19.2376605,26.6866565 L24.965829,22.9822069 C25.2665164,22.783225 25.5093409,22.5273975 25.671473,22.2324969 C26.3029413,21.1605438 25.9931636,19.7683764 25.0073375,19.1013549 L19.2376605,15.3528047 C18.9058418,15.1166461 18.5193564,15 18.1169319,15 Z M7,12 L3,12 C2.44771525,12 2,12.4477153 2,13 L2,13 L2,17 C2,17.5522847 2.44771525,18 3,18 C3.55228475,18 4,17.5522847 4,17 L4,17 L4,14 L7,14 C7.55228475,14 8,13.5522847 8,13 C8,12.4477153 7.55228475,12 7,12 L7,12 Z" id="形状结合"></path>
                </g>
            </g>
        </g>
    </g>
</svg>