<?xml version="1.0" encoding="UTF-8"?>
<svg width="88px" height="68px" viewBox="0 0 88 68" version="1.1" xmlns="http://www.w3.org/2000/svg" xmlns:xlink="http://www.w3.org/1999/xlink">
    <title>成员</title>
    <defs>
        <linearGradient x1="12.439217%" y1="0%" x2="87.560783%" y2="100%" id="linearGradient-1">
            <stop stop-color="#7D99FF" offset="0%"></stop>
            <stop stop-color="#5675E8" offset="100%"></stop>
        </linearGradient>
        <linearGradient x1="0%" y1="36.9231356%" x2="100%" y2="63.0768644%" id="linearGradient-2">
            <stop stop-color="#7D99FF" offset="0%"></stop>
            <stop stop-color="#5675E8" offset="100%"></stop>
        </linearGradient>
    </defs>
    <g id="新页" stroke="none" stroke-width="1" fill="none" fill-rule="evenodd">
        <g id="画板" transform="translate(-701.000000, -102.000000)">
            <g id="成员" transform="translate(701.000000, 102.000000)">
                <path d="M55.0889647,37.5970592 C62.6987376,32.680575 66.1627475,23.3415636 63.5993818,14.6528742 C61.0360161,5.96418481 53.057207,0 43.9969568,0 C34.9367065,0 26.9578975,5.96418481 24.3945318,14.6528742 C21.8311661,23.3415636 25.2951759,32.680575 32.9049488,37.5970592 C33.4316985,37.9442342 33.7236749,38.5538394 33.6639803,39.1818086 C33.6042857,39.8097778 33.2026769,40.3534718 32.619945,40.5952133 C23.1727512,44.4991453 16.374338,52.9572337 14.5940618,63.0216986 C14.3840699,64.26374 14.7336798,65.535086 15.5492458,66.4951968 C16.3648118,67.4553075 17.5629891,68.0060668 18.8228366,68 L69.1856925,68 C70.4451152,68.0053455 71.6426149,67.4542771 72.4576308,66.4942609 C73.2726466,65.5342447 73.6219486,64.2633184 73.4120314,63.0216986 C71.62736,52.9637853 64.8293108,44.5134978 55.3861482,40.6146977 C54.7970432,40.3743657 54.390767,39.8260896 54.332378,39.1926184 C54.2739891,38.5591471 54.5732008,37.9458648 55.1084522,37.6019303 L55.0889647,37.5970592 Z" id="路径" fill="url(#linearGradient-1)"></path>
                <path d="M87.9594063,53.2088935 C86.7785788,46.5490163 82.2767283,40.9538285 76.0233485,38.3739976 C75.6337447,38.216372 75.3647875,37.854417 75.3263199,37.4359562 C75.2878523,37.0174953 75.4863145,36.6125858 75.8406537,36.386594 C80.777522,33.2147486 83.1029849,27.2199226 81.5962106,21.5493065 C80.0894363,15.8786903 75.0948012,11.8283153 69.2344112,11.5245652 C68.6727036,11.495762 68.1097574,11.5014556 67.5487475,11.5416141 C71.0898546,20.8860802 68.7571595,31.4403523 61.6075138,38.4227085 C68.5439241,42.5244689 73.8317019,48.917375 76.5592531,56.4993594 L85.1556507,56.4993594 C85.9894359,56.504092 86.7828406,56.1407561 87.3238436,55.5063993 C87.8648466,54.8720424 88.0983088,54.0313184 87.9618422,53.2088935 L87.9594063,53.2088935 Z M26.3790919,38.4348862 C19.248241,31.4363386 16.9151948,20.8920324 20.4281146,11.5391785 L20.2283683,11.5245652 C14.0978706,11.1782593 8.50438006,15.0076495 6.6104404,20.8476096 C4.71650075,26.6875696 6.99818668,33.0701237 12.1654394,36.386594 C12.5179681,36.6141435 12.7142036,37.0192208 12.6742273,37.4368548 C12.6342511,37.8544888 12.3647332,38.214998 11.9754369,38.371562 C5.72141181,40.9518455 1.21944226,46.5480998 0.0393791672,53.2088935 C-0.0994198098,54.032025 0.132627115,54.8744147 0.673363547,55.510419 C1.21409998,56.1464233 2.00826582,56.5110462 2.84313477,56.5066593 L11.4346604,56.5066593 C14.1594805,48.9287685 19.44173,42.5380198 26.3717841,38.4348862 L26.3790919,38.4348862 Z" id="形状" fill="url(#linearGradient-2)" opacity="0.200000003"></path>
            </g>
        </g>
    </g>
</svg>