<?xml version="1.0" encoding="UTF-8"?>
<svg width="36px" height="42px" viewBox="0 0 36 42" version="1.1" xmlns="http://www.w3.org/2000/svg" xmlns:xlink="http://www.w3.org/1999/xlink">
    <title>编组 12</title>
    <g id="新页" stroke="none" stroke-width="1" fill="none" fill-rule="evenodd">
        <g id="icon" transform="translate(-459.000000, -279.000000)">
            <g id="编组-12" transform="translate(459.000000, 279.000000)">
                <g id="矩形">
                    <g id="蒙版">
                        <path d="M35.9983069,11.55 L35.9983069,37.3329431 C35.9983069,39.9104875 33.9834935,42 31.4980953,42 L4.49851858,42 C2.01378153,41.9990305 0,39.9098019 0,37.3329431 L0,4.66705686 C0,2.09019807 2.01378153,0.000969457686 4.49851858,0 L24.8629074,0 L36,11.55 L35.9983069,11.55 Z" id="路径" fill="#3A4C90"></path>
                        <path d="M24.9230769,7.9840515 L24.9230769,0 L36,11.4545455 L28.2791589,11.4545455 C26.4268307,11.4545455 24.9230769,9.90126868 24.9230769,7.9840515 Z" id="路径" fill="#79819A"></path>
                    </g>
                    <!-- <rect fill="#080808" opacity="0.400000006" x="0" y="-0.04" width="36" height="42"></rect> -->
                </g>
                <g id="编组-4" transform="translate(9.000000, 12.000000)">
                    <rect id="矩形" x="0" y="0" width="20" height="20"></rect>
                    <g id="编组" transform="translate(3.333333, 2.000000)" fill="#FFFFFF" fill-rule="nonzero">
                        <path d="M0,1.59999995 L0.00653501042,1.45811768 C0.0542584343,0.942042129 0.360567539,0.476365594 0.833285783,0.214364517 C1.34897841,-0.0714548391 1.98435492,-0.0714548391 2.50004755,0.214364517 C2.55858163,0.246806657 2.61456424,0.282371649 2.66782038,0.320768494 L2.66666667,0.319999991 L12.2220606,6.49220493 C12.86543,6.71328306 13.326701,7.30695793 13.333263,7.9998322 C13.3392847,8.64721907 12.9580405,9.21106925 12.3907641,9.46199923 L2.66666667,15.6799996 C2.38349659,15.8900764 2.03465832,16.012451 1.66665787,15.9989941 C0.749996044,15.9669974 0,15.2790695 0,14.3991617 L0,14.3991617 L0,1.59999995 Z" id="形状结合"></path>
                    </g>
                </g>
            </g>
        </g>
    </g>
</svg>