<?xml version="1.0" encoding="UTF-8"?>
<svg width="16px" height="16px" viewBox="0 0 16 16" version="1.1" xmlns="http://www.w3.org/2000/svg" xmlns:xlink="http://www.w3.org/1999/xlink">
    <title>加号</title>
    <g id="新页" stroke="none" stroke-width="1" fill="currentColor" fill-rule="evenodd">
        <g id="icon" transform="translate(-92.000000, -496.000000)" fill-rule="nonzero">
            <g id="加号" transform="translate(92.000000, 496.000000)">
                <path d="M8,0 C3.58171735,0 0,3.58171735 0,8 C0,12.4182827 3.58173297,16 8,16 C12.4182827,16 16,12.418267 16,8 C16,3.58171735 12.4182827,0 8,0 Z M12.9939306,12.9939306 C12.3450161,13.6428294 11.5896315,14.1521953 10.7487615,14.5078717 C9.87865666,14.875892 8.95384805,15.0624881 8.00000781,15.0624881 C7.04616758,15.0624881 6.12134334,14.875892 5.25125417,14.5078717 C4.41036849,14.1521953 3.65496828,13.6428451 3.00606941,12.9939306 C2.35715492,12.3450161 1.84780471,11.5896315 1.49212832,10.7487615 C1.12410802,9.87865666 0.937511902,8.95384805 0.937511902,8.00000781 C0.937511902,7.04616758 1.12410802,6.12134334 1.49212832,5.25125417 C1.84778908,4.41036849 2.35715492,3.6549839 3.00606941,3.00606941 C3.6549839,2.35715492 4.41036849,1.84780471 5.25125417,1.49212832 C6.12134334,1.12410802 7.04616758,0.937511902 8.00000781,0.937511902 C8.95384805,0.937511902 9.87865666,1.12410802 10.7487615,1.49212832 C11.5896315,1.84780471 12.3450161,2.35715492 12.9939306,3.00606941 C13.6428294,3.6549839 14.1521953,4.41038412 14.5078717,5.25125417 C14.875892,6.12134334 15.0624881,7.04616758 15.0624881,8.00000781 C15.0624881,8.95384805 14.875892,9.87865666 14.5078717,10.7487615 C14.1521953,11.5896315 13.6428451,12.3450161 12.9939306,12.9939306 Z" id="形状"></path>
                <path d="M12.4292047,8.00000781 C12.4292047,8.36693435 12.1317478,8.66439125 11.7648212,8.66439125 L4.23519439,8.66439125 C3.86826786,8.66439125 3.57081096,8.36694997 3.57081096,8.00000781 C3.57081096,7.63308128 3.86826786,7.33562438 4.23519439,7.33562438 L11.7648212,7.33562438 C12.1317478,7.33562438 12.4292047,7.63308128 12.4292047,8.00000781 Z" id="路径"></path>
                <path d="M8.00000781,12.4292047 C7.63308128,12.4292047 7.33562438,12.1317478 7.33562438,11.7648212 L7.33562438,4.23517877 C7.33562438,3.86826786 7.63306565,3.57079533 7.99999219,3.57079533 C8.36691872,3.57079533 8.66437562,3.86825223 8.66437562,4.23517877 L8.66437562,11.7648212 C8.66439125,12.1317478 8.36693435,12.4292047 8.00000781,12.4292047 L8.00000781,12.4292047 Z" id="路径"></path>
            </g>
        </g>
    </g>
</svg>
