<?xml version="1.0" encoding="UTF-8"?>
<svg width="14px" height="14px" viewBox="0 0 14 14" version="1.1" xmlns="http://www.w3.org/2000/svg" xmlns:xlink="http://www.w3.org/1999/xlink">
    <title>形状结合</title>
    <g id="新页" stroke="none" stroke-width="1" fill="none" fill-rule="evenodd">
        <g id="icon" transform="translate(-30.000000, -277.000000)" fill="#5675E8">
            <path d="M30.5,287 C30.7761424,287 31,287.223858 31,287.5 L31,290 L33.5,290 C33.7761424,290 34,290.223858 34,290.5 C34,290.776142 33.7761424,291 33.5,291 L30.5,291 C30.2238576,291 30,290.776142 30,290.5 L30,287.5 C30,287.223858 30.2238576,287 30.5,287 Z M43.5,287 C43.7761424,287 44,287.223858 44,287.5 L44,290.5 C44,290.74546 43.8231248,290.949608 43.5898756,290.991944 L43.5,291 L40.5,291 C40.2238576,291 40,290.776142 40,290.5 C40,290.223858 40.2238576,290 40.5,290 L43,290 L43,287.5 C43,287.223858 43.2238576,287 43.5,287 Z M39,279 C39.5522847,279 40,279.447715 40,280 L40,288 C40,288.552285 39.5522847,289 39,289 L35,289 C34.4477153,289 34,288.552285 34,288 L34,280 C34,279.447715 34.4477153,279 35,279 L39,279 Z M39,280 L35,280 L35,288 L39,288 L39,280 Z M33.5,277 C33.7761424,277 34,277.223858 34,277.5 C34,277.74546 33.8231248,277.949608 33.5898756,277.991944 L33.5,278 L31,278 L31,280.5 C31,280.74546 30.8231248,280.949608 30.5898756,280.991944 L30.5,281 C30.2545401,281 30.0503916,280.823125 30.0080557,280.589876 L30,280.5 L30,277.5 C30,277.25454 30.1768752,277.050392 30.4101244,277.008056 L30.5,277 L33.5,277 Z M43.5,277 C43.7454599,277 43.9496084,277.176875 43.9919443,277.410124 L44,277.5 L44,280.5 C44,280.776142 43.7761424,281 43.5,281 C43.2545401,281 43.0503916,280.823125 43.0080557,280.589876 L43,280.5 L43,278 L40.5,278 C40.2545401,278 40.0503916,277.823125 40.0080557,277.589876 L40,277.5 C40,277.25454 40.1768752,277.050392 40.4101244,277.008056 L40.5,277 L43.5,277 Z" id="形状结合"></path>
        </g>
    </g>
</svg>