<?xml version="1.0" encoding="UTF-8"?>
<svg width="24px" height="27px" viewBox="0 0 24 27" version="1.1" xmlns="http://www.w3.org/2000/svg" xmlns:xlink="http://www.w3.org/1999/xlink">
    <title>形状</title>
    <g id="新页" stroke="none" stroke-width="1" fill="" fill-rule="evenodd">
        <g id="icon" transform="translate(-196.000000, -340.000000)" fill="" fill-rule="nonzero">
            <g id="编组" transform="translate(196.000000, 340.000000)">
                <path d="M11.999872,1.5295397 C11.199325,1.5295397 10.550373,2.18424168 10.550373,2.99188178 L10.550373,25.5376579 C10.550373,26.345298 11.199325,27 11.999872,27 L11.999872,27 C12.800419,27 13.4493711,26.345298 13.4493711,25.5376579 L13.4493711,2.99191257 C13.4493711,2.18427246 12.800419,1.5295397 11.999872,1.5295397 L11.999872,1.5295397 Z M13.0285586,0.450696691 C12.4624943,-0.120383113 11.5771993,-0.153148975 11.0511761,0.37753498 L0.374207307,11.1491053 C-0.15178539,11.6797893 -0.119337812,12.5729283 0.446726473,13.1440081 L0.446726473,13.1440081 C1.01279076,13.7150879 1.89808577,13.7478537 2.42410895,13.2171698 L13.1011083,2.44556868 C13.627101,1.91491551 13.5946229,1.02177649 13.0285586,0.450696691 L13.0285586,0.450696691 Z M10.9713989,0.450696691 C10.4053346,1.02177649 10.3728565,1.91491551 10.8988798,2.44559944 L21.5758791,13.2172005 C22.1018718,13.7478537 22.9871973,13.7151186 23.5532616,13.1440388 L23.5532616,13.1440388 C24.1193258,12.572959 24.1518039,11.67982 23.6257807,11.1491361 L12.9487814,0.37753498 C12.4227887,-0.153148975 11.5374632,-0.120383083 10.9713989,0.450696691 L10.9713989,0.450696691 Z" id="形状"></path>
            </g>
        </g>
    </g>
</svg>