<?xml version="1.0" encoding="UTF-8"?>
<svg width="18px" height="18px" viewBox="0 0 18 18" version="1.1" xmlns="http://www.w3.org/2000/svg" xmlns:xlink="http://www.w3.org/1999/xlink">
    <title>编组 32</title>
    <g id="云媒资" stroke="none" stroke-width="1" fill="none" fill-rule="evenodd">
        <g id="icon" transform="translate(-863.000000, -569.000000)">
            <g id="编组-32" transform="translate(863.000000, 569.000000)">
                <rect id="矩形" x="0" y="0" width="18" height="18"></rect>
                <g id="编组-31" transform="translate(3.000000, 1.500000)">
                    <rect id="矩形" fill="rgba(64, 64, 64, 1)" x="2" y="4" width="8" height="1" rx="0.5"></rect>
                    <rect id="矩形备份-7" fill="rgba(64, 64, 64, 1)" x="2" y="7" width="8" height="1" rx="0.5"></rect>
                    <path d="M12,8 L12,2 C12,0.8954305 11.1045695,-2.02906125e-16 10,0 L2,0 C0.8954305,2.02906125e-16 -8.01404565e-16,0.8954305 0,2 L0,13 C1.3527075e-16,14.1045695 0.8954305,15 2,15 L6,15 L6,15" id="路径-4" stroke="rgba(64, 64, 64, 1)"></path>
                    <path d="M9.284,15.5 L9.804,14.068 L12.196,14.068 L12.716,15.5 L13.716,15.5 L11.532,9.788 L10.468,9.788 L8.284,15.5 L9.284,15.5 Z M11.916,13.3 L10.084,13.3 L10.988,10.796 L11.02,10.796 L11.916,13.3 Z" id="A" fill="rgba(64, 64, 64, 1)" fill-rule="nonzero"></path>
                </g>
            </g>
        </g>
    </g>
</svg>