<?xml version="1.0" encoding="UTF-8"?>
<svg width="40px" height="40px" viewBox="0 0 40 40" version="1.1" xmlns="http://www.w3.org/2000/svg" xmlns:xlink="http://www.w3.org/1999/xlink">
    <title>上传</title>
    <g id="新页" stroke="none" stroke-width="1">
        <g id="画板" transform="translate(-139.000000, -327.000000)">
            <g id="上传" transform="translate(139.000000, 327.000000)">
                <!-- <rect id="矩形" x="0" y="0" width="40" height="40"></rect> -->
                <path d="M19.9751665,5 C25.7545998,5 30.4413591,9.46698317 30.4684502,14.9827363 C35.8099108,15.4445404 40,19.7345706 40,24.9697885 C40,30.5071213 35.3042104,35 29.5067163,35 L29.5067163,35 L27.2717011,35 L27.2717011,32.2378075 L29.5067163,32.2378075 C33.6968055,32.2378075 37.1102833,28.9792836 37.1102833,24.9697885 C37.1102833,21.1890375 34.1438086,18.0772551 30.2065696,17.7362969 L30.2065696,17.7362969 L27.592279,17.5075529 L27.5787335,14.9956841 C27.5561576,11.0077687 24.1471949,7.76219249 19.9751665,7.76219249 C15.8031381,7.76219249 12.3896602,11.0077687 12.3715995,14.9956841 L12.3715995,14.9956841 L12.358054,17.4946051 L9.75730895,17.731981 C5.8426459,18.0902028 2.88971667,21.1976694 2.88971667,24.9654726 C2.88971667,28.9706517 6.29867931,32.2334916 10.4932837,32.2334916 L10.4932837,32.2334916 L12.7282989,32.2334916 L12.7282989,34.9956841 L10.4932837,34.9956841 C4.70030477,34.9956841 0,30.5071213 0,24.9654726 C0,19.7518343 4.16299808,15.4704359 9.48188283,14.9870522 C9.50897392,9.46698317 14.1957332,5 19.9751665,5 Z M19.1172819,21.2019853 C19.7358618,20.6063876 20.8375663,20.5977557 21.4696918,21.1976694 L21.4696918,21.1976694 L21.7089965,21.4264135 L21.7722091,21.4264135 L21.7722091,21.4868364 L28.2153742,27.6456625 L26.179027,29.6007769 L21.7767242,25.3927492 L21.7767242,35 L18.8870076,35 L18.8870076,25.3280104 L14.4847048,29.536038 L12.4393272,27.5809236 Z" id="形状结合" fill="" fill-rule="nonzero"></path>
            </g>
        </g>
    </g>
</svg>