<?xml version="1.0" encoding="UTF-8"?>
<svg width="30px" height="30px" viewBox="0 0 30 30" version="1.1" xmlns="http://www.w3.org/2000/svg" xmlns:xlink="http://www.w3.org/1999/xlink">
    <title>播放</title>
    <g id="新页" stroke="none" stroke-width="1" fill="none" fill-rule="evenodd">
        <g id="icon" transform="translate(0.000000, -226.000000)">
            <g id="播放" transform="translate(0.000000, 226.000000)">
                <rect id="矩形" x="0" y="0" width="30" height="30"></rect>
                <g id="编组" transform="translate(5.000000, 3.000000)" fill="rgba(86, 117, 232, 1)" fill-rule="nonzero">
                    <path d="M1.24992867,0.321546776 C2.02346762,-0.107182259 2.97653238,-0.107182259 3.75007133,0.321546776 C3.83770301,0.370116079 3.92152225,0.423351601 4.00126806,0.480819361 L4,0.479999986 L18.3332466,9.7383609 C19.2982194,10.0700204 19.9900521,10.9604928 19.9998945,11.9997483 C20.0089396,12.9721797 19.4354683,13.8189572 18.5825927,14.1945672 L4,23.5199993 C3.57669516,23.8346054 3.05275248,24.0187045 2.4999868,23.9984911 C1.12499407,23.9504961 0,22.9186043 0,21.5987426 L0,21.5987426 L0,2.39999993 L0.00628337581,2.22947447 C0.0647623991,1.43856473 0.527958993,0.721693875 1.24992867,0.321546776 Z" id="形状结合"></path>
                </g>
            </g>
        </g>
    </g>
</svg>