<?xml version="1.0" encoding="UTF-8"?>
<svg width="24px" height="24px" viewBox="0 0 24 24" version="1.1" xmlns="http://www.w3.org/2000/svg" xmlns:xlink="http://www.w3.org/1999/xlink">
    <title>编组</title>
    <g id="icon以及组件与规范" stroke="none" stroke-width="1" fill="none" fill-rule="evenodd">
        <g id="icon" transform="translate(-10.000000, -617.000000)" fill="#02A9F1" fill-rule="nonzero">
            <g id="编组" transform="translate(10.000000, 617.000000)">
                <path d="M24.000002,16.3334477 L16.2800455,13.7374069 C16.2800455,13.7374069 16.8733463,12.8493168 17.5066373,11.1081435 C18.1400205,9.36684706 18.2307367,8.41068136 18.2307367,8.41068136 L13.2333767,8.36949145 L13.2333767,6.66261738 L19.2854014,6.61995092 L19.2854014,5.41326198 L13.232177,5.41326198 L13.232177,2.66655041 L10.2680417,2.66655041 L10.2680417,5.41338503 L4.6213023,5.41338503 L4.6213023,6.62007396 L10.2680417,6.57996072 L10.2680417,8.41068136 L5.73869004,8.41068136 L5.73869004,9.36672402 L15.0614518,9.36672402 C15.0614518,9.36672402 14.9588,10.1426262 14.6014107,11.1080204 C14.2441136,12.0733223 13.8760499,12.9187152 13.8760499,12.9187152 C13.8760499,12.9187152 9.49866102,11.3866598 7.19199547,11.3866598 C4.88532991,11.3866598 2.07995578,12.3132943 1.80796089,15.0026969 C1.53725799,17.6907459 3.11474838,19.1467891 5.33718842,19.6827501 C7.55990531,20.2214796 9.61189481,19.6774283 11.3984724,18.8027503 C13.1853269,17.9293951 14.9385588,15.9439739 14.9385588,15.9439739 L23.9359234,20.3133955 C23.5688749,22.4451809 21.7190205,24.0021532 19.5558582,24.0000019 L4.44402266,24.0000019 C1.99188506,24.0023993 0.00228027143,22.0163936 1.95139199e-06,19.5643483 L1.95139199e-06,4.4441456 C-0.00227245915,1.99182343 1.98391778,0.00218788182 4.43599386,1.89919499e-06 L19.5559505,1.89919499e-06 C22.0080881,-0.00224180199 23.9978159,1.98382539 24.000002,4.43593223 L24.000002,16.3334477 L24.000002,16.3334477 Z M12.7486031,14.8293547 C12.7486031,14.8293547 9.93999903,18.375009 6.63074838,18.375009 C3.32008268,18.375009 2.62502222,16.6902833 2.62502222,15.4786418 C2.62502222,14.2684768 3.31325358,12.9517533 6.13010182,12.7613691 C8.94538121,12.5712619 12.7500182,14.8293547 12.7500182,14.8293547 L12.7485724,14.8293547 L12.7486031,14.8293547 Z" id="形状"></path>
            </g>
        </g>
    </g>
</svg>