<?xml version="1.0" encoding="UTF-8"?>
<svg width="12px" height="15px" viewBox="0 0 12 15" version="1.1" xmlns="http://www.w3.org/2000/svg" xmlns:xlink="http://www.w3.org/1999/xlink">
    <title>导航New</title>
    <g id="新页" stroke="none" stroke-width="1" fill="none" fill-rule="evenodd">
        <g id="导航New">
            <path d="M0,2 C-1.3527075e-16,0.8954305 0.8954305,6.46995335e-16 2,0 L10,0 C11.1045695,-1.18396092e-15 12,0.8954305 12,2 L12,9.2 C12,10.3045695 11.1045695,11.2 10,11.2 L2.10507479,11.2 L1.13686838e-13,14.2407048 L0,2 Z" id="形状结合" fill="#E52B11"></path>
            <polygon id="N" fill="#FFFFFF" points="4.568 8.6 4.568 4.424 4.6 4.424 7.456 8.6 8.368 8.6 8.368 2.888 7.424 2.888 7.424 7.008 7.392 7.008 4.568 2.888 3.632 2.888 3.632 8.6"></polygon>
        </g>
    </g>
</svg>