<?xml version="1.0" encoding="UTF-8"?>
<svg width="15px" height="14px" viewBox="0 0 15 14" version="1.1" xmlns="http://www.w3.org/2000/svg" xmlns:xlink="http://www.w3.org/1999/xlink">
    <title>形状</title>
    <g id="新页" stroke="none" stroke-width="1" fill="" fill-rule="evenodd">
        <g id="icon" transform="translate(-36.000000, -455.000000)" fill="" fill-rule="nonzero">
            <path d="M46.7839225,455 C45.4925884,455 44.295325,455.652761 43.5,456.72638 C42.7132269,455.652761 41.5074116,455 40.2160775,455 C37.8899658,455 36,457.078528 36,459.629448 C36,461.149693 36.6755986,462.223313 37.222919,463.082209 C38.8050171,465.581595 42.7901938,468.682209 42.9612315,468.811043 C43.1237172,468.939877 43.3118586,469 43.5,469 C43.6881414,469 43.8762828,468.939877 44.0387685,468.811043 C44.2098062,468.682209 48.186431,465.573006 49.777081,463.082209 C50.3244014,462.223313 51,461.149693 51,459.629448 C51,457.078528 49.1100342,455 46.7839225,455 Z" id="形状"></path>
        </g>
    </g>
</svg>