<?xml version="1.0" encoding="UTF-8"?>
<svg width="60px" height="60px" viewBox="0 0 60 60" version="1.1" xmlns="http://www.w3.org/2000/svg" xmlns:xlink="http://www.w3.org/1999/xlink">
    <title>放大镜</title>
    <!-- <g id="新页" stroke="none" stroke-width="1" fill="" fill-rule="evenodd"> -->
        <!-- <g id="画板" transform="translate(-12.000000, 0.000000)"> -->
            <!-- <g id="放大镜" transform="translate(12.000000, 0.000000)"> -->
                <!-- <rect id="矩形" x="0" y="0" width="60" height="60"></rect> -->
                <g id="编组" transform="translate(16.000000, 16.000000)" fill="" fill-rule="nonzero">
                    <path d="M28,26.3495252 L26.3439056,28 L18.0108956,19.6975425 C13.3995976,23.3637767 6.71573837,22.7920865 2.79870387,18.3963989 C-1.11833062,14.0007113 -0.898359867,7.31863994 3.29934836,3.18827616 C7.49705659,-0.942087632 14.2041419,-1.07594057 18.5644019,2.88363231 C22.9246618,6.8432052 23.4128753,13.5111434 19.675556,18.0595885 L28,26.3495252 Z M19.8257469,11.0092154 C19.827008,6.16395113 15.8867943,2.23506926 11.0250329,2.23381173 C6.16327145,2.23255479 2.22101242,6.15939828 2.21975049,11.0046625 C2.21848916,15.8499267 6.1587027,19.7788088 11.0204641,19.7800669 C13.3552572,19.7809721 15.594751,18.8573392 17.2461275,17.2124201 C18.897504,15.567501 19.8254438,13.3360861 19.8257469,11.0092154 L19.8257469,11.0092154 Z" id="形状"></path>
                </g>
            <!-- </g> -->
        <!-- </g> -->
    <!-- </g> -->
</svg>