<?xml version="1.0" encoding="UTF-8"?>
<svg width="18px" height="18px" viewBox="0 0 18 18" version="1.1" xmlns="http://www.w3.org/2000/svg" xmlns:xlink="http://www.w3.org/1999/xlink">
    <title>编组 32</title>
    <g id="云媒资" stroke="none" stroke-width="1" fill="none" fill-rule="evenodd">
        <g id="icon" transform="translate(-885.000000, -604.000000)">
            <g id="编组-32" transform="translate(885.000000, 604.000000)">
                <rect id="矩形" x="0" y="0" width="18" height="18"></rect>
                <g id="编组-31" transform="translate(3.000000, 1.500000)">
                    <rect id="矩形" fill="rgba(64, 64, 64, 1)" x="2" y="4" width="8" height="1" rx="0.5"></rect>
                    <rect id="矩形备份-7" fill="rgba(64, 64, 64, 1)" x="2" y="7" width="8" height="1" rx="0.5"></rect>
                    <rect id="矩形" fill="rgba(64, 64, 64, 1)" x="9" y="13" width="4" height="1" rx="0.5"></rect>
                    <rect id="矩形" fill="rgba(64, 64, 64, 1)" x="10.5" y="11.5" width="1" height="4" rx="0.5"></rect>
                    <path d="M12,11 L12,2 C12,0.8954305 11.1045695,6.85272294e-16 10,0 L2,0 C0.8954305,2.02906125e-16 -8.01404565e-16,0.8954305 0,2 L0,13 C1.3527075e-16,14.1045695 0.8954305,15 2,15 L8,15 L8,15" id="路径-4" stroke="rgba(64, 64, 64, 1)"></path>
                </g>
            </g>
        </g>
    </g>
</svg>