<?xml version="1.0" encoding="UTF-8"?>
<svg width="14px" height="14px" viewBox="0 0 14 14" version="1.1" xmlns="http://www.w3.org/2000/svg" xmlns:xlink="http://www.w3.org/1999/xlink">
    <title>形状</title>
    <g id="icon以及组件与规范" stroke="none" stroke-width="1" fill="none" fill-rule="evenodd">
        <g id="icon" transform="translate(-44.000000, -617.000000)" fill="#5675E8" fill-rule="nonzero">
            <path d="M51,617 C54.8599955,617 58,620.140004 58,624 C58,627.859996 54.8599955,631 51,631 C47.1400045,631 44,627.859996 44,624 C44,620.140004 47.1400045,617 51,617 Z M49.4289361,621.103332 C49.1292439,621.103332 48.8863004,621.346276 48.8863004,621.645968 L48.8863004,626.426384 C48.8863004,626.52131 48.9112065,626.614576 48.958526,626.696868 C49.107916,626.956672 49.4396315,627.046184 49.699436,626.896794 L53.8563083,624.506586 C53.9394384,624.458784 54.0084162,624.389806 54.0562184,624.306676 C54.2056241,624.046855 54.1161128,623.715156 53.8563083,623.565766 L49.699436,621.175558 C49.6171395,621.128236 49.5238682,621.103332 49.4289361,621.103332 Z" id="形状"></path>
        </g>
    </g>
</svg>