<?xml version="1.0" encoding="UTF-8"?>
<svg width="38px" height="38px" viewBox="0 0 38 38" version="1.1" xmlns="http://www.w3.org/2000/svg" xmlns:xlink="http://www.w3.org/1999/xlink">
    <title>编组 9</title>
    <defs>
        <linearGradient x1="7.98611111%" y1="0%" x2="92.0138889%" y2="100%" id="linearGradient-1">
            <stop stop-color="#68E0CF" offset="0%"></stop>
            <stop stop-color="#209CFF" offset="100%"></stop>
        </linearGradient>
        <linearGradient x1="13.2653061%" y1="0%" x2="86.7346939%" y2="100%" id="linearGradient-2">
            <stop stop-color="#68E0CF" offset="0%"></stop>
            <stop stop-color="#209CFF" offset="100%"></stop>
        </linearGradient>
    </defs>
    <g id="新页" stroke="none" stroke-width="1" fill="none" fill-rule="evenodd">
        <g id="icon" transform="translate(-1322.000000, -35.000000)">
            <g id="编组-9" transform="translate(1322.000000, 35.000000)">
                <g id="编组-10">
                    <path d="M2,16.2857143 L12.8710465,16.2857143 L12.8710465,16.2857143 L19.9047619,23.4954687 L19.9047619,36 C19.9047619,37.1045695 19.0093314,38 17.9047619,38 L2,38 C0.8954305,38 1.3527075e-16,37.1045695 0,36 L0,18.2857143 C-1.3527075e-16,17.1811448 0.8954305,16.2857143 2,16.2857143 Z" id="蒙版" fill="url(#linearGradient-1)" opacity="0.400000006"></path>
                    <rect id="矩形" fill="url(#linearGradient-2)" x="5.42857143" y="0" width="32.5714286" height="38" rx="2"></rect>
                </g>
                <path d="M22,11 C26.418278,11 30,14.581722 30,19 C30,23.418278 26.418278,27 22,27 C17.581722,27 14,23.418278 14,19 C14,14.581722 17.581722,11 22,11 Z M20.4,18.6 C19.2954305,18.6 18.4,19.4954305 18.4,20.6 C18.4,21.7045695 19.2954305,22.6 20.4,22.6 C21.5045695,22.6 22.4,21.7045695 22.4,20.6 C22.4,19.4954305 21.5045695,18.6 20.4,18.6 Z M22.3993287,12.6 L20.4146813,17.5314293 C20.6607443,17.4462622 20.9249696,17.4 21.2,17.4 C22.5254834,17.4 23.6,18.4745166 23.6,19.8 C23.6,20.0654649 23.5568999,20.3208632 23.4773155,20.559579 L23.4773155,20.559579 L23.5179671,20.6 L28.4,18.5988349 L22.3993287,12.6 Z" id="形状结合" fill="#FFFFFF"></path>
            </g>
        </g>
    </g>
</svg>