<?xml version="1.0" encoding="UTF-8"?>
<svg width="18px" height="18px" viewBox="0 0 18 18" version="1.1" xmlns="http://www.w3.org/2000/svg" xmlns:xlink="http://www.w3.org/1999/xlink">
    <title>编组 13</title>
    <g id="新页" stroke="none" stroke-width="1" fill="none" fill-rule="evenodd">
        <g id="icon" transform="translate(-40.000000, -557.000000)">
            <g id="编组-13" transform="translate(40.000000, 557.000000)">
                <rect id="矩形备份-74" x="0" y="0" width="18" height="18"></rect>
                <rect id="矩形备份-76" fill="#F16B6B" x="2" y="5" width="14" height="1"></rect>
                <path d="M4,6 L5,6 L5,15.5 C5,15.7761424 4.77614237,16 4.5,16 C4.22385763,16 4,15.7761424 4,15.5 L4,6 L4,6 Z" id="矩形备份-78" fill="#F16B6B"></path>
                <path d="M13,6 L14,6 L14,15.5 C14,15.7761424 13.7761424,16 13.5,16 C13.2238576,16 13,15.7761424 13,15.5 L13,6 L13,6 Z" id="矩形备份-80" fill="#F16B6B"></path>
                <rect id="矩形备份-82" fill="#F16B6B" x="4" y="15" width="10" height="1" rx="0.5"></rect>
                <rect id="矩形备份-84" fill="#F16B6B" x="7" y="9" width="1" height="4" rx="0.5"></rect>
                <rect id="矩形备份-86" fill="#F16B6B" x="10" y="9" width="1" height="4" rx="0.5"></rect>
                <rect id="矩形备份-88" fill="#F16B6B" x="5" y="2" width="1" height="4" rx="0.5"></rect>
                <rect id="矩形备份-90" fill="#F16B6B" x="12" y="2" width="1" height="4" rx="0.5"></rect>
                <rect id="矩形备份-92" fill="#F16B6B" x="5" y="2" width="8" height="1" rx="0.5"></rect>
            </g>
        </g>
    </g>
</svg>