<?xml version="1.0" encoding="UTF-8"?>
<svg width="40px" height="40px" viewBox="0 0 40 40" version="1.1" xmlns="http://www.w3.org/2000/svg" xmlns:xlink="http://www.w3.org/1999/xlink">
    <title>视频空</title>
    <g id="新页" stroke="none" stroke-width="1" fill="none" fill-rule="evenodd">
        <g id="icon" transform="translate(-1.000000, -377.000000)">
            <g id="视频空" transform="translate(1.000000, 377.000000)">
                <rect id="矩形" x="0" y="0" width="40" height="40"></rect>
                <path d="M31.8091171,10.5944304 C31.8091171,7.50424052 29.3760654,5 26.3744341,5 L5.43486627,5 C2.43323497,5 0,7.50424052 0,10.5944304 L0,29.4051899 C0,32.4953797 2.43323497,35 5.43468297,35 L26.3744341,35 C29.3760654,35 31.8091171,32.495 31.8091171,29.4053797 C31.8090843,29.2078124 31.8991671,29.0218447 32.0520905,28.9037835 C32.2050138,28.7857223 32.4027959,28.7494502 32.5855527,28.8059494 L37.1721319,30.2218354 C38.3362355,30.5812658 39.5613762,29.8950633 39.9083527,28.6889873 C39.9691148,28.4778202 40,28.2586394 40,28.0382911 L40,11.8726582 C40,10.6143671 39.0151585,9.59417723 37.8004656,9.59417723 C37.5876907,9.59417405 37.3760412,9.62615277 37.1721319,9.68911392 L32.5032535,11.130443 C32.3398495,11.1809466 32.163017,11.1484998 32.0263011,11.0429277 C31.8895851,10.9373555 31.809063,10.7710729 31.8091171,10.5944304 L31.8091171,10.5944304 Z M11.5475558,24.9735443 L11.5475558,15.2159494 C11.5475558,13.9574684 12.5323973,12.9374684 13.7470902,12.9374684 C14.1637308,12.9374684 14.5718146,13.0599636 14.9238411,13.2908228 L22.360467,18.1692405 C23.3869164,18.8425316 23.6919186,20.2502532 23.0419561,21.3133544 C22.8679978,21.5978763 22.6353138,21.8389118 22.3606503,22.0191139 L14.9240244,26.898481 C13.8977583,27.571962 12.5389959,27.2560126 11.8888502,26.1929114 C11.6658921,25.8282154 11.5475558,25.4054122 11.5475558,24.9737342 L11.5475558,24.9735443 Z" id="形状" fill="rgba(64, 64, 64, 0.2)" fill-rule="nonzero"></path>
            </g>
        </g>
    </g>
</svg>