<?xml version="1.0" encoding="UTF-8"?>
<svg width="70px" height="70px" viewBox="0 0 70 70" version="1.1" xmlns="http://www.w3.org/2000/svg" xmlns:xlink="http://www.w3.org/1999/xlink">
    <title>编组 20</title>
    <defs>
        <linearGradient x1="0%" y1="0%" x2="99.2214816%" y2="99.2214816%" id="linearGradient-1">
            <stop stop-color="#F35B56" offset="0%"></stop>
            <stop stop-color="#FE6984" offset="100%"></stop>
        </linearGradient>
    </defs>
    <g id="新页" stroke="none" stroke-width="1" fill="none" fill-rule="evenodd">
        <g id="icon" transform="translate(-794.000000, -328.000000)">
            <g id="编组-20" transform="translate(794.000000, 328.000000)">
                <g id="编组-18" fill="url(#linearGradient-1)">
                    <rect id="矩形" x="0" y="0" width="70" height="70" rx="4"></rect>
                </g>
                <g id="编组-23" transform="translate(12.250000, 12.250000)">
                    <g id="编组" fill="#FFFFFF" fill-rule="nonzero">
                        <path d="M36.8191797,0.519586289 C37.5066016,1.20537132 37.5134922,2.31303494 36.8397969,3.00734719 L36.8191797,3.0282826 L32.8198281,7.01814556 L40.25,7.01820023 C44.1159688,7.01820023 47.25,10.1507499 47.25,14.0148911 L47.25,38.5033091 C47.25,42.3674503 44.1159688,45.5 40.25,45.5 L7,45.5 C3.13403125,45.5 0,42.3674503 0,38.5033091 L0,14.0148911 C0,10.1507499 3.13403125,7.01820023 7,7.01820023 L14.4417656,7.01814556 L10.4424687,3.0282826 C9.74804688,2.33550088 9.74804688,1.21231335 10.4424687,0.519586289 C11.1368359,-0.17319543 12.2626875,-0.17319543 12.9571094,0.519586289 L19.4711016,7.01814556 L27.7904922,7.01814556 L34.3045391,0.519586289 C34.9989063,-0.17319543 36.1247578,-0.17319543 36.8191797,0.519586289 Z" id="形状"></path>
                    </g>
                    <path d="M20.6171875,20.5751161 C19.0816172,20.5751161 17.828125,21.8289449 17.828125,23.3628601 L17.828125,32.6553401 C17.828125,33.1531438 17.9679062,33.6543911 18.2109375,34.076543 C19.0326172,35.4150427 20.7539609,35.8388891 22.09375,35.0604526 L29.640625,30.4688742 C30.0367812,30.2222409 30.3567031,29.9051487 30.5703125,29.5396262 C31.4022734,28.2109656 30.9941406,26.4854067 29.6953125,25.6586493 L22.09375,21.0124092 C21.6565781,20.7196961 21.1473828,20.5751161 20.6171875,20.5751161 Z" id="路径" fill="#FB6679"></path>
                </g>
            </g>
        </g>
    </g>
</svg>