<?xml version="1.0" encoding="UTF-8"?>
<svg width="14px" height="14px" viewBox="0 0 14 14" version="1.1" xmlns="http://www.w3.org/2000/svg" xmlns:xlink="http://www.w3.org/1999/xlink">
    <title>形状结合</title>
    <g id="新页" stroke="none" stroke-width="1" fill="none" fill-rule="evenodd">
        <g id="icon" transform="translate(-11.000000, -277.000000)" fill="#b3b3b3">
            <path d="M11.5,287 C11.7761424,287 12,287.223858 12,287.5 L12,290 L14.5,290 C14.7761424,290 15,290.223858 15,290.5 C15,290.776142 14.7761424,291 14.5,291 L11.5,291 C11.2238576,291 11,290.776142 11,290.5 L11,287.5 C11,287.223858 11.2238576,287 11.5,287 Z M24.5,287 C24.7761424,287 25,287.223858 25,287.5 L25,290.5 C25,290.74546 24.8231248,290.949608 24.5898756,290.991944 L24.5,291 L21.5,291 C21.2238576,291 21,290.776142 21,290.5 C21,290.223858 21.2238576,290 21.5,290 L24,290 L24,287.5 C24,287.223858 24.2238576,287 24.5,287 Z M22,281 C22.5522847,281 23,281.447715 23,282 L23,286 C23,286.552285 22.5522847,287 22,287 L14,287 C13.4477153,287 13,286.552285 13,286 L13,282 C13,281.447715 13.4477153,281 14,281 L22,281 Z M22,282 L14,282 L14,286 L22,286 L22,282 Z M14.5,277 C14.7761424,277 15,277.223858 15,277.5 C15,277.74546 14.8231248,277.949608 14.5898756,277.991944 L14.5,278 L12,278 L12,280.5 C12,280.74546 11.8231248,280.949608 11.5898756,280.991944 L11.5,281 C11.2545401,281 11.0503916,280.823125 11.0080557,280.589876 L11,280.5 L11,277.5 C11,277.25454 11.1768752,277.050392 11.4101244,277.008056 L11.5,277 L14.5,277 Z M24.5,277 C24.7454599,277 24.9496084,277.176875 24.9919443,277.410124 L25,277.5 L25,280.5 C25,280.776142 24.7761424,281 24.5,281 C24.2545401,281 24.0503916,280.823125 24.0080557,280.589876 L24,280.5 L24,278 L21.5,278 C21.2545401,278 21.0503916,277.823125 21.0080557,277.589876 L21,277.5 C21,277.25454 21.1768752,277.050392 21.4101244,277.008056 L21.5,277 L24.5,277 Z" id="形状结合"></path>
        </g>
    </g>
</svg>