<?xml version="1.0" encoding="UTF-8"?>
<svg width="35px" height="30px" viewBox="0 0 35 30" version="1.1" xmlns="http://www.w3.org/2000/svg" xmlns:xlink="http://www.w3.org/1999/xlink">
    <title>形状</title>
    <g id="新页" stroke="none" stroke-width="1" fill="none" fill-rule="evenodd">
        <g id="企业信息默认" transform="translate(-461.000000, -417.000000)" fill="#DDDDDD" fill-rule="nonzero">
            <g id="编组" transform="translate(461.000000, 417.000000)">
                <path d="M29.7496088,0 L5.25039124,0 C2.3513302,0 0,2.37112046 0,5.2945818 L0,24.7054182 C0,27.6288795 2.3513302,30 5.25039124,30 L29.7496088,30 C32.6486698,30 35,27.6288795 35,24.7054182 L35,5.2945818 C35,2.37112046 32.6486698,0 29.7496088,0 L29.7496088,0 Z M7.43740219,5.2945818 C8.64632238,5.2945818 9.62441315,6.28090479 9.62441315,7.5 C9.62441315,8.71909521 8.64632238,9.7054182 7.43740219,9.7054182 C6.228482,9.7054182 5.25039124,8.71909521 5.25039124,7.5 C5.25039124,6.28090479 6.228482,5.2945818 7.43740219,5.2945818 L7.43740219,5.2945818 Z M31.4827856,27.3527091 L3.60328638,27.3527091 C2.14397496,27.3527091 1.32629108,25.6522883 2.23004695,24.4963177 L9.42488263,15.284061 C10.1251956,14.3884797 11.4749609,14.3884797 12.1752739,15.284061 L15.1682316,19.1188848 L20.9820031,8.86112572 C21.6549296,7.67359285 23.3489828,7.67359285 24.0219092,8.86112572 L33.0046948,24.7133088 C33.6697966,25.8890058 32.8286385,27.3527091 31.4827856,27.3527091 L31.4827856,27.3527091 Z" id="形状"></path>
            </g>
        </g>
    </g>
</svg>