<?xml version="1.0" encoding="UTF-8"?>
<svg width="111px" height="30px" viewBox="0 0 111 30" version="1.1" xmlns="http://www.w3.org/2000/svg" xmlns:xlink="http://www.w3.org/1999/xlink">
    <title>编组 3</title>
    <defs>
        <linearGradient x1="0%" y1="37.2166336%" x2="72.2246604%" y2="76.5668399%" id="linearGradient-1">
            <stop stop-color="#007DFF" offset="0%"></stop>
            <stop stop-color="#0F4DBE" offset="100%"></stop>
        </linearGradient>
        <linearGradient x1="71.0339954%" y1="40.1775549%" x2="26.7796236%" y2="58.2392967%" id="linearGradient-2">
            <stop stop-color="#007DFF" offset="0%"></stop>
            <stop stop-color="#0F48B8" offset="100%"></stop>
        </linearGradient>
        <linearGradient x1="97.2027972%" y1="50%" x2="0%" y2="50%" id="linearGradient-3">
            <stop stop-color="#1049B8" offset="0%"></stop>
            <stop stop-color="#007DFF" offset="100%"></stop>
        </linearGradient>
    </defs>
    <g id="云媒资" stroke="none" stroke-width="1" fill="none" fill-rule="evenodd">
        <g id="icon" transform="translate(-424.000000, -554.000000)">
            <g id="编组-3" transform="translate(424.000000, 554.000000)">
                <path d="M47.328,10.512 L48.504,10.08 C48.12,9.288 47.592,8.424 46.92,7.464 L50.856,7.464 L50.856,6.288 L44.208,6.288 C44.448,5.76 44.664,5.208 44.88,4.632 L43.632,4.368 C42.936,6.384 41.856,8.208 40.368,9.792 L41.472,10.512 C42.288,9.6 42.984,8.568 43.608,7.464 L45.552,7.464 C46.224,8.448 46.824,9.456 47.328,10.512 Z M57.672,10.32 L58.848,9.888 C58.464,9.144 57.936,8.328 57.288,7.464 L61.608,7.464 L61.608,6.288 L54.336,6.288 C54.552,5.76 54.744,5.208 54.936,4.656 L53.712,4.392 C53.136,6.24 52.248,7.896 51.048,9.36 L52.128,10.056 C52.752,9.288 53.304,8.424 53.808,7.464 L55.896,7.464 C56.592,8.376 57.192,9.336 57.672,10.32 Z M46.104,13.728 L47.088,13.032 C46.392,12.216 45.408,11.256 44.112,10.176 L43.152,10.776 C44.4,11.832 45.384,12.816 46.104,13.728 Z M58.032,26.304 C59.376,26.304 60.048,25.68 60.048,24.432 L60.048,11.112 L49.176,11.112 L49.176,12.312 L58.776,12.312 L58.776,24.096 C58.776,24.792 58.44,25.152 57.792,25.152 L55.416,25.104 L55.728,26.304 L58.032,26.304 Z M43.344,26.376 L43.344,13.584 L42.048,13.584 L42.048,26.376 L43.344,26.376 Z M55.224,23.664 L55.224,14.832 L46.872,14.832 L46.872,23.664 L55.224,23.664 Z M54,18.648 L48.096,18.648 L48.096,15.936 L54,15.936 L54,18.648 Z M54,22.536 L48.096,22.536 L48.096,19.752 L54,19.752 L54,22.536 Z M68.568,7.872 L69.696,7.464 C69.36,6.48 68.904,5.4 68.28,4.248 L67.056,4.584 C67.656,5.664 68.16,6.768 68.568,7.872 Z M75.408,18.624 L75.408,6.744 L82.704,6.744 L82.704,18.624 L84,18.624 L84,5.496 L74.112,5.496 L74.112,18.624 L75.408,18.624 Z M69.072,26.352 L69.072,15.792 C70.032,16.464 71.016,17.352 72,18.432 L72.72,17.328 C71.616,16.224 70.392,15.24 69.072,14.424 C70.416,12.696 71.4,10.92 72,9.144 L72,8.04 L64.632,8.04 L64.632,9.288 L70.728,9.288 C69.672,12.024 67.464,14.88 64.056,17.808 L64.464,19.152 C65.712,18.096 66.816,17.016 67.8,15.936 L67.8,26.352 L69.072,26.352 Z M72.264,26.472 C74.832,25.344 76.68,23.784 77.832,21.792 C78.984,19.656 79.584,16.8 79.632,13.248 L79.632,8.616 L78.384,8.616 L78.384,13.248 C78.336,16.368 77.832,18.888 76.896,20.856 C75.84,22.752 74.04,24.24 71.52,25.32 L72.264,26.472 Z M83.688,25.968 C84.408,25.968 84.912,25.776 85.248,25.416 C85.608,24.96 85.848,23.76 85.992,21.84 L84.792,21.432 C84.696,23.04 84.552,24.024 84.336,24.36 C84.144,24.6 83.856,24.744 83.448,24.744 L81.768,24.744 C81.168,24.744 80.88,24.432 80.88,23.832 L80.88,18.6 L79.584,18.6 L79.584,24.096 C79.584,25.344 80.184,25.968 81.408,25.968 L83.688,25.968 Z M98.16,13.152 L98.16,11.856 L94.392,11.856 L94.392,8.64 L97.872,8.64 L97.872,7.416 L94.392,7.416 L94.392,4.416 L93.12,4.416 L93.12,11.856 L90.912,11.856 L90.912,6.336 L89.664,6.336 L89.664,11.856 L88.104,11.856 L88.104,13.152 L98.16,13.152 Z M100.896,20.976 L100.896,10.992 L107.496,10.992 L107.496,20.976 L108.792,20.976 L108.792,9.768 L104.496,9.768 C104.64,8.808 104.76,7.8 104.832,6.744 L109.776,6.744 L109.776,5.52 L98.616,5.52 L98.616,6.744 L103.512,6.744 C103.44,7.8 103.32,8.808 103.176,9.768 L99.624,9.768 L99.624,20.976 L100.896,20.976 Z M98.376,26.28 C100.608,25.464 102.216,24.36 103.2,22.968 C104.208,21.456 104.736,19.44 104.784,16.92 L104.784,12.672 L103.488,12.672 L103.488,16.92 C103.44,19.032 103.032,20.76 102.216,22.08 C101.304,23.376 99.792,24.408 97.656,25.128 L98.376,26.28 Z M94.344,20.448 L94.344,14.28 L93.096,14.28 L93.096,20.448 L94.344,20.448 Z M89.04,26.112 C94.128,24.432 97.2,20.952 98.208,15.624 L97.056,15.36 C96.096,20.208 93.192,23.4 88.32,24.936 L89.04,26.112 Z M89.136,21.12 C90.072,19.92 90.816,18.168 91.392,15.912 L90.264,15.456 C89.784,17.472 89.088,19.08 88.176,20.28 L89.136,21.12 Z M109.104,26.424 L110.064,25.464 C108.912,24.072 107.496,22.656 105.816,21.264 L104.904,22.128 C106.68,23.616 108.072,25.056 109.104,26.424 Z" id="简视频" fill="#000000" fill-rule="nonzero" opacity="0.800000012"></path>
                <g id="编组-2">
                    <g id="编组">
                        <path d="M0,7.5955485 L0,22.4743776 C8.93345302,27.4914592 13.4001795,30 13.4001795,30 C13.4001795,30 17.6001197,27.4914592 26,22.4743776 L0,7.5955485 Z" id="路径" fill="url(#linearGradient-1)"></path>
                        <polygon id="路径-2" fill="url(#linearGradient-2)" points="13.2134671 15.1368371 26 7.5955485 13 0 -1.65745553e-14 7.5955485"></polygon>
                    </g>
                    <polygon id="路径-3" fill="url(#linearGradient-3)" points="16 15.0958568 29 22 29 8"></polygon>
                </g>
            </g>
        </g>
    </g>
</svg>