<?xml version="1.0" encoding="UTF-8"?>
<svg width="38px" height="38px" viewBox="0 0 38 38" version="1.1" xmlns="http://www.w3.org/2000/svg" xmlns:xlink="http://www.w3.org/1999/xlink">
    <title>编组 37</title>
    <defs>
        <linearGradient x1="0.475056689%" y1="0%" x2="99.5249433%" y2="100%" id="linearGradient-1">
            <stop stop-color="#AAD7FF" offset="0.0846809441%"></stop>
            <stop stop-color="#006FD2" offset="100%"></stop>
        </linearGradient>
        <linearGradient x1="13.2653061%" y1="0%" x2="86.7346939%" y2="100%" id="linearGradient-2">
            <stop stop-color="#AAD7FF" offset="0.0846809441%"></stop>
            <stop stop-color="#006FD2" offset="100%"></stop>
        </linearGradient>
    </defs>
    <g id="新页" stroke="none" stroke-width="1" fill="none" fill-rule="evenodd">
        <g id="编组-37">
            <path d="M2,18 L12.8710465,18 L12.8710465,18 L19.9047619,24.6405633 L19.9047619,36 C19.9047619,37.1045695 19.0093314,38 17.9047619,38 L2,38 C0.8954305,38 5.7935996e-16,37.1045695 0,36 L0,20 C-1.3527075e-16,18.8954305 0.8954305,18 2,18 Z" id="蒙版" fill="url(#linearGradient-1)" opacity="0.400000006"></path>
            <path d="M7.42857143,0 L36,0 C37.1045695,1.75920346e-15 38,0.8954305 38,2 L38,36 C38,37.1045695 37.1045695,38 36,38 L7.42857143,38 C6.32400193,38 5.42857143,37.1045695 5.42857143,36 L5.42857143,2 C5.42857143,0.8954305 6.32400193,2.02906125e-16 7.42857143,0 Z" id="蒙版" fill="url(#linearGradient-2)"></path>
            <g id="编组" transform="translate(13.571429, 10.857143)" fill="#FFFFFF" fill-rule="nonzero">
                <path d="M0,14.25 C0,15.3737143 0.912,16.2857143 2.03571429,16.2857143 L14.25,16.2857143 C15.3737143,16.2857143 16.2857143,15.3737143 16.2857143,14.25 L16.2857143,6.10714286 L0,6.10714286 L0,14.25 Z M14.25,2.03571429 L7.12337143,2.03571429 C7.12337143,0.911420331 6.2119511,9.25735679e-16 5.08765714,9.25735679e-16 L2.03734286,9.25735679e-16 C0.912,9.25735679e-16 0,0.912 0,2.03571429 L0,5.09091429 L16.2857143,5.09091429 L16.2857143,4.07305714 C16.2857143,2.94934286 15.3737143,2.03734286 14.25,2.03571429 Z" id="形状"></path>
            </g>
        </g>
    </g>
</svg>