<?xml version="1.0" encoding="UTF-8"?>
<svg width="38px" height="38px" viewBox="0 0 38 38" version="1.1" xmlns="http://www.w3.org/2000/svg" xmlns:xlink="http://www.w3.org/1999/xlink">
    <title>编组 11备份</title>
    <defs>
        <linearGradient x1="7.98611111%" y1="0%" x2="92.0138889%" y2="100%" id="linearGradient-1">
            <stop stop-color="#FF9E9E" offset="0.0846809441%"></stop>
            <stop stop-color="#C44D4D" offset="100%"></stop>
        </linearGradient>
        <linearGradient x1="13.2653061%" y1="0%" x2="86.7346939%" y2="100%" id="linearGradient-2">
            <stop stop-color="#FF9E9E" offset="0.0846809441%"></stop>
            <stop stop-color="#C44D4D" offset="100%"></stop>
        </linearGradient>
    </defs>
    <g id="新页" stroke="none" stroke-width="1" fill="none" fill-rule="evenodd">
        <g id="编组-11备份">
            <rect id="矩形" x="0" y="0" width="38" height="38"></rect>
            <path d="M2,16.2857143 L12.8710465,16.2857143 L12.8710465,16.2857143 L19.9047619,23.4954687 L19.9047619,36 C19.9047619,37.1045695 19.0093314,38 17.9047619,38 L2,38 C0.8954305,38 1.3527075e-16,37.1045695 0,36 L0,18.2857143 C-1.3527075e-16,17.1811448 0.8954305,16.2857143 2,16.2857143 Z" id="蒙版" fill="url(#linearGradient-1)" opacity="0.400000006"></path>
            <path d="M7.42857143,0 L36,0 C37.1045695,-2.02906125e-16 38,0.8954305 38,2 L38,36 C38,37.1045695 37.1045695,38 36,38 L7.42857143,38 C6.32400193,38 5.42857143,37.1045695 5.42857143,36 L5.42857143,2 C5.42857143,0.8954305 6.32400193,2.02906125e-16 7.42857143,0 Z" id="蒙版" fill="url(#linearGradient-2)"></path>
            <path d="M21.7142857,9.5 C23.9628736,9.5 25.7857143,11.3228407 25.7857143,13.5714286 L28.8571429,13.5714286 C29.4094276,13.5714286 29.8571429,14.0191438 29.8571429,14.5714286 L29.8571429,26.1428571 C29.8571429,26.6951419 29.4094276,27.1428571 28.8571429,27.1428571 L14.5714286,27.1428571 C14.0191438,27.1428571 13.5714286,26.6951419 13.5714286,26.1428571 L13.5714286,14.5714286 C13.5714286,14.0191438 14.0191438,13.5714286 14.5714286,13.5714286 L17.6428571,13.5714286 L17.6428571,13.5714286 C17.6428571,11.3228407 19.4656978,9.5 21.7142857,9.5 Z M18.6607143,20.3571429 L17.6428571,20.3571429 C17.6428571,22.6057308 19.4656978,24.4285714 21.7142857,24.4285714 C23.8947346,24.4285714 25.6748481,22.7145321 25.7807316,20.5603482 L25.7857143,20.3571429 L24.7678571,20.3571429 C24.7678571,22.0435838 23.4007266,23.4107143 21.7142857,23.4107143 C20.0278448,23.4107143 18.6607143,22.0435838 18.6607143,20.3571429 Z M21.7142857,10.5178571 C20.0278448,10.5178571 18.6607143,11.8849876 18.6607143,13.5714286 L24.7678571,13.5714286 L24.7678571,13.5714286 C24.7678571,11.8849876 23.4007266,10.5178571 21.7142857,10.5178571 Z" id="形状结合" fill="#FFFFFF"></path>
        </g>
    </g>
</svg>