<?xml version="1.0" encoding="UTF-8"?>
<svg width="14px" height="14px" viewBox="0 0 14 14" version="1.1" xmlns="http://www.w3.org/2000/svg" xmlns:xlink="http://www.w3.org/1999/xlink">
    <title>形状结合</title>
    <g id="新页" stroke="none" stroke-width="1" fill="none" fill-rule="evenodd">
        <g id="icon" transform="translate(-49.000000, -277.000000)" fill="#5675e8">
            <path d="M49.5,287 C49.7761424,287 50,287.223858 50,287.5 L50,290 L52.5,290 C52.7761424,290 53,290.223858 53,290.5 C53,290.776142 52.7761424,291 52.5,291 L49.5,291 C49.2238576,291 49,290.776142 49,290.5 L49,287.5 C49,287.223858 49.2238576,287 49.5,287 Z M62.5,287 C62.7761424,287 63,287.223858 63,287.5 L63,290.5 C63,290.74546 62.8231248,290.949608 62.5898756,290.991944 L62.5,291 L59.5,291 C59.2238576,291 59,290.776142 59,290.5 C59,290.223858 59.2238576,290 59.5,290 L62,290 L62,287.5 C62,287.223858 62.2238576,287 62.5,287 Z M56.57,279.432 L59.942,288 L58.874,288 L57.962,285.6 L54.026,285.6 L53.114,288 L52.058,288 L55.43,279.432 L56.57,279.432 Z M56.03,280.488 L55.982,280.488 L54.338,284.772 L57.65,284.772 L56.03,280.488 Z M52.5,277 C52.7761424,277 53,277.223858 53,277.5 C53,277.74546 52.8231248,277.949608 52.5898756,277.991944 L52.5,278 L50,278 L50,280.5 C50,280.74546 49.8231248,280.949608 49.5898756,280.991944 L49.5,281 C49.2545401,281 49.0503916,280.823125 49.0080557,280.589876 L49,280.5 L49,277.5 C49,277.25454 49.1768752,277.050392 49.4101244,277.008056 L49.5,277 L52.5,277 Z M62.5,277 C62.7454599,277 62.9496084,277.176875 62.9919443,277.410124 L63,277.5 L63,280.5 C63,280.776142 62.7761424,281 62.5,281 C62.2545401,281 62.0503916,280.823125 62.0080557,280.589876 L62,280.5 L62,278 L59.5,278 C59.2545401,278 59.0503916,277.823125 59.0080557,277.589876 L59,277.5 C59,277.25454 59.1768752,277.050392 59.4101244,277.008056 L59.5,277 L62.5,277 Z" id="形状结合"></path>
        </g>
    </g>
</svg>