<?xml version="1.0" encoding="UTF-8"?>
<svg width="70px" height="70px" viewBox="0 0 70 70" version="1.1" xmlns="http://www.w3.org/2000/svg" xmlns:xlink="http://www.w3.org/1999/xlink">
    <title>编组 5</title>
    <defs>
        <linearGradient x1="0%" y1="0%" x2="99.2214816%" y2="99.2214816%" id="linearGradient-1">
            <stop stop-color="#FFA1A1" offset="0%"></stop>
            <stop stop-color="#C41D1D" offset="100%"></stop>
        </linearGradient>
    </defs>
    <g id="新页" stroke="none" stroke-width="1" fill="none" fill-rule="evenodd">
        <g id="icon" transform="translate(-613.000000, -400.000000)">
            <g id="编组-5" transform="translate(613.000000, 400.000000)">
                <rect id="矩形" fill="url(#linearGradient-1)" x="0" y="0" width="70" height="70" rx="4"></rect>
                <path d="M17,18 L53,18 C54.1045695,18 55,18.8954305 55,20 L55,26 L55,26 L15,26 L15,20 C15,18.8954305 15.8954305,18 17,18 Z" id="矩形" fill="#FFFFFF"></path>
                <path d="M55,28 L55.001053,44.0359823 C53.8499241,42.2117609 51.816473,41 49.5,41 C45.9101491,41 43,43.9101491 43,47.5 C43,49.2469007 43.6891263,50.8328473 44.8103588,52.0008195 L17,52 C15.8954305,52 15,51.1045695 15,50 L15,28 L55,28 Z M33.1169319,33 C31.9514156,33 31,34.0115793 31,35.2491301 L31,42.7462305 C31,43.1478546 31.1060956,43.552257 31.2905593,43.8928459 C31.914224,44.9727371 33.2207445,45.314693 34.2376605,44.6866565 L39.965829,40.9822069 C40.2665164,40.783225 40.5093409,40.5273975 40.671473,40.2324969 C41.3029413,39.1605438 40.9931636,37.7683764 40.0073375,37.1013549 L34.2376605,33.3528047 C33.9058418,33.1166461 33.5193564,33 33.1169319,33 Z" id="形状结合" fill="#FFFFFF"></path>
                <path d="M49.5,42 C52.5375661,42 55,44.4624339 55,47.5 C55,50.5375661 52.5375661,53 49.5,53 C46.4624339,53 44,50.5375661 44,47.5 C44,44.4624339 46.4624339,42 49.5,42 Z M52,47 L47,47 L47,48 L52,48 L52,47 Z" id="形状结合" fill="#FFFFFF"></path>
            </g>
        </g>
    </g>
</svg>