<?xml version="1.0" encoding="UTF-8"?>
<svg width="70px" height="70px" viewBox="0 0 70 70" version="1.1" xmlns="http://www.w3.org/2000/svg" xmlns:xlink="http://www.w3.org/1999/xlink">
    <title>编组 6</title>
    <defs>
        <linearGradient x1="0%" y1="0%" x2="99.2214816%" y2="99.2214816%" id="linearGradient-1">
            <stop stop-color="#FB7031" offset="0.0300480769%"></stop>
            <stop stop-color="#D945D9" offset="99.923514%"></stop>
        </linearGradient>
    </defs>
    <g id="新页" stroke="none" stroke-width="1" fill="none" fill-rule="evenodd">
        <g id="icon" transform="translate(-711.000000, -400.000000)">
            <g id="编组-6" transform="translate(711.000000, 400.000000)">
                <rect id="矩形" fill="url(#linearGradient-1)" x="0" y="0" width="70" height="70" rx="4"></rect>
                <rect id="矩形" fill="#FFFFFF" x="12" y="13" width="45" height="45" rx="3.2"></rect>
                <path d="M34.5,21 C37.0629128,21 39.4705231,21.6649293 41.5597305,22.8316875 C42.2341685,22.3099973 43.0808824,22 44,22 C46.209139,22 48,23.790861 48,26 C48,26.9191176 47.6900027,27.7658315 47.1688593,28.4412902 C48.3350707,30.5294769 49,32.9370872 49,35.5 C49,43.5081289 42.5081289,50 34.5,50 C26.4918711,50 20,43.5081289 20,35.5 C20,27.4918711 26.4918711,21 34.5,21 Z M35,26 C34.4477153,26 34,26.4477153 34,27 L34,27 L34,45 C34,45.5522847 34.4477153,46 35,46 C35.5522847,46 36,45.5522847 36,45 L36,45 L36,27 C36,26.4477153 35.5522847,26 35,26 Z M31,30 C30.4477153,30 30,30.4477153 30,31 L30,31 L30,41 C30,41.5522847 30.4477153,42 31,42 C31.5522847,42 32,41.5522847 32,41 L32,41 L32,31 C32,30.4477153 31.5522847,30 31,30 Z M39,30 C38.4477153,30 38,30.4477153 38,31 L38,31 L38,41 C38,41.5522847 38.4477153,42 39,42 C39.5522847,42 40,41.5522847 40,41 L40,41 L40,31 C40,30.4477153 39.5522847,30 39,30 Z M27,33 C26.4477153,33 26,33.4477153 26,34 L26,34 L26,38 C26,38.5522847 26.4477153,39 27,39 C27.5522847,39 28,38.5522847 28,38 L28,38 L28,34 C28,33.4477153 27.5522847,33 27,33 Z M43,33 C42.4477153,33 42,33.4477153 42,34 L42,34 L42,38 C42,38.5522847 42.4477153,39 43,39 C43.5522847,39 44,38.5522847 44,38 L44,38 L44,34 C44,33.4477153 43.5522847,33 43,33 Z" id="形状结合" fill="url(#linearGradient-1)"></path>
                <circle id="椭圆形" fill="#FFFFFF" cx="44" cy="26" r="3"></circle>
            </g>
        </g>
    </g>
</svg>