<?xml version="1.0" encoding="utf-8"?>
<!-- Generator: Adobe Illustrator 16.0.0, SVG Export Plug-In . SVG Version: 6.00 Build 0)  -->
<!DOCTYPE svg PUBLIC "-//W3C//DTD SVG 1.1//EN" "http://www.w3.org/Graphics/SVG/1.1/DTD/svg11.dtd">
<svg version="1.1" id="图层_1" xmlns="http://www.w3.org/2000/svg" xmlns:xlink="http://www.w3.org/1999/xlink" x="0px" y="0px"
	 width="160px" height="120px" viewBox="0 0 160 120" enable-background="new 0 0 160 120" xml:space="preserve">
<path fill="#FFFFFF" stroke="#036EB8" stroke-miterlimit="10" d="M12.811,91.478c0,0-10.2-35.791,11.551-50.938
	c0,0,4.274-34.216,40.384-29.252c0,0,30.713-23.533,50.993,5.961c0,0,42.959,2.013,36.165,42.242c0,0,14.5,23.892-11.82,37.54
	c0,0-26.875,26.68-52.033,8.676c0,0-21.913,15.682-43.353,1.605C44.698,107.313,15.138,113.907,12.811,91.478z"/>
<g>
	<g>
		<path fill="#EA5514" d="M78.792,42.667c0.053,4.672-5.596,19.008-11.793,15.616c-5.692-3.116-9.044,2.903-10.473,7.552
			c-0.712,2.317,2.908,3.301,3.616,0.996c0.463-1.508,1.043-2.899,1.848-4.264c1.523-2.583,4.527-0.18,6.283,0.309
			c2.559,0.711,4.998-1.273,6.624-2.961c3.966-4.117,7.712-11.416,7.645-17.249C82.514,40.25,78.764,40.247,78.792,42.667
			L78.792,42.667z"/>
	</g>
</g>
<g>
	<g>
		<path fill="#EA5514" d="M79.474,43c-0.064,5.641,3.427,12.298,6.993,16.483c1.855,2.177,3.807,3.773,6.778,3.792
			c1.271,0.009,2.599-0.838,3.664-1.422c2.965-1.622,4.479,3.733,4.965,5.311c0.708,2.305,4.328,1.321,3.615-0.996
			c-1.219-3.969-4.313-10.45-9.607-7.959c-4.759,2.239-6.706-0.92-8.977-4.715C85.1,50.475,83.183,46.606,83.224,43
			C83.251,40.581,79.501,40.583,79.474,43L79.474,43z"/>
	</g>
</g>
<g>
	<g>
		<path fill="#036EB8" d="M94.964,73.025v13.027h0.042c0.597,3.395,8.123,6.079,17.327,6.079c9.203,0,16.729-2.685,17.327-6.079
			h0.042V73.025H94.964z"/>
		<linearGradient id="SVGID_1_" gradientUnits="userSpaceOnUse" x1="112.333" y1="79.8105" x2="112.333" y2="66.7832">
			<stop  offset="0" style="stop-color:#0056AA"/>
			<stop  offset="1" style="stop-color:#18AFFC"/>
		</linearGradient>
		
			<ellipse fill="url(#SVGID_1_)" stroke="#231815" stroke-width="0.5" stroke-miterlimit="10" cx="112.333" cy="73.297" rx="17.369" ry="6.514"/>
	</g>
	<polygon fill="#FFFFFF" stroke="#FFFFFF" stroke-width="0" stroke-linecap="round" stroke-linejoin="round" points="
		100.519,69.036 106.136,71.501 104.084,72.094 107.738,72.094 110.305,72.057 111.193,70.891 112.116,69.527 108.873,70.529 
		103.124,68.275 	"/>
	<polygon fill="#FFFFFF" stroke="#FFFFFF" stroke-width="0" stroke-linecap="round" stroke-linejoin="round" points="
		113.854,74.039 113.418,75.016 112.55,76.406 115.445,75.703 121.499,78.002 123.574,77.082 118.322,75.016 121.416,74.365 
		117.363,74.221 	"/>
	<polygon fill="#FFFFFF" stroke="#FFFFFF" stroke-width="0" stroke-linecap="round" stroke-linejoin="round" points="
		113.361,71.411 115.698,72.314 121.642,69.953 124.058,70.55 123.379,69.438 122.673,68.49 118.925,68.561 115.698,68.49 
		118.412,69.274 	"/>
	<polygon fill="#FFFFFF" stroke="#FFFFFF" stroke-width="0" stroke-linecap="round" stroke-linejoin="round" points="102.697,77.64 
		105.738,77.64 109.43,77.64 107.106,76.875 112.333,74.584 109.972,73.797 104.49,76.184 101.125,75.398 102.012,76.564 	"/>
</g>
<g>
	<g>
		<path fill="#036EB8" d="M30.964,73.025v13.027h0.042c0.596,3.395,8.123,6.079,17.327,6.079c9.203,0,16.729-2.685,17.327-6.079
			h0.042V73.025H30.964z"/>
		<linearGradient id="SVGID_2_" gradientUnits="userSpaceOnUse" x1="48.3335" y1="79.8105" x2="48.3335" y2="66.7832">
			<stop  offset="0" style="stop-color:#0056AA"/>
			<stop  offset="1" style="stop-color:#18AFFC"/>
		</linearGradient>
		
			<ellipse fill="url(#SVGID_2_)" stroke="#231815" stroke-width="0.5" stroke-miterlimit="10" cx="48.333" cy="73.297" rx="17.369" ry="6.514"/>
	</g>
	<polygon fill="#FFFFFF" stroke="#FFFFFF" stroke-width="0" stroke-linecap="round" stroke-linejoin="round" points="36.519,69.036 
		42.136,71.501 40.084,72.094 43.738,72.094 46.306,72.057 47.194,70.891 48.117,69.527 44.873,70.529 39.125,68.275 	"/>
	<polygon fill="#FFFFFF" stroke="#FFFFFF" stroke-width="0" stroke-linecap="round" stroke-linejoin="round" points="49.854,74.039 
		49.419,75.016 48.55,76.406 51.446,75.703 57.5,78.002 59.575,77.082 54.323,75.016 57.417,74.365 53.364,74.221 	"/>
	<polygon fill="#FFFFFF" stroke="#FFFFFF" stroke-width="0" stroke-linecap="round" stroke-linejoin="round" points="49.362,71.411 
		51.699,72.314 57.642,69.953 60.058,70.55 59.379,69.438 58.673,68.49 54.925,68.561 51.699,68.49 54.413,69.274 	"/>
	<polygon fill="#FFFFFF" stroke="#FFFFFF" stroke-width="0" stroke-linecap="round" stroke-linejoin="round" points="38.698,77.64 
		41.738,77.64 45.43,77.64 43.107,76.875 48.333,74.584 45.972,73.797 40.49,76.184 37.125,75.398 38.013,76.564 	"/>
</g>
<g>
	<g>
		<path fill="#036EB8" d="M62.298,21.943V34.97h0.042c0.596,3.395,8.123,6.079,17.327,6.079c9.203,0,16.729-2.685,17.327-6.079
			h0.042V21.943H62.298z"/>
		<linearGradient id="SVGID_3_" gradientUnits="userSpaceOnUse" x1="79.6675" y1="28.728" x2="79.6675" y2="15.7007">
			<stop  offset="0" style="stop-color:#0056AA"/>
			<stop  offset="1" style="stop-color:#18AFFC"/>
		</linearGradient>
		
			<ellipse fill="url(#SVGID_3_)" stroke="#231815" stroke-width="0.5" stroke-miterlimit="10" cx="79.667" cy="22.214" rx="17.369" ry="6.514"/>
	</g>
	<polygon fill="#FFFFFF" stroke="#FFFFFF" stroke-width="0" stroke-linecap="round" stroke-linejoin="round" points="67.853,17.953 
		73.47,20.418 71.417,21.011 75.072,21.011 77.639,20.974 78.527,19.808 79.45,18.444 76.207,19.446 70.458,17.193 	"/>
	<polygon fill="#FFFFFF" stroke="#FFFFFF" stroke-width="0" stroke-linecap="round" stroke-linejoin="round" points="81.188,22.956 
		80.752,23.933 79.884,25.324 82.779,24.621 88.833,26.919 90.908,26 85.656,23.933 88.75,23.282 84.697,23.137 	"/>
	<polygon fill="#FFFFFF" stroke="#FFFFFF" stroke-width="0" stroke-linecap="round" stroke-linejoin="round" points="80.695,20.328 
		83.032,21.231 88.976,18.87 91.392,19.467 90.713,18.354 90.007,17.407 86.259,17.478 83.032,17.407 85.746,18.191 	"/>
	<polygon fill="#FFFFFF" stroke="#FFFFFF" stroke-width="0" stroke-linecap="round" stroke-linejoin="round" points="70.031,26.557 
		73.072,26.557 76.763,26.557 74.44,25.792 79.667,23.501 77.306,22.714 71.824,25.1 68.458,24.315 69.346,25.482 	"/>
</g>
</svg>
