<?xml version="1.0" encoding="utf-8"?>
<!-- Generator: Adobe Illustrator 16.0.0, SVG Export Plug-In . SVG Version: 6.00 Build 0)  -->
<!DOCTYPE svg PUBLIC "-//W3C//DTD SVG 1.1//EN" "http://www.w3.org/Graphics/SVG/1.1/DTD/svg11.dtd">
<svg version="1.1" id="图层_1" xmlns="http://www.w3.org/2000/svg" xmlns:xlink="http://www.w3.org/1999/xlink" x="0px" y="0px"
	 width="160px" height="120px" viewBox="0 0 160 120" enable-background="new 0 0 160 120" xml:space="preserve">
<g>
	<linearGradient id="SVGID_1_" gradientUnits="userSpaceOnUse" x1="43.4917" y1="5.7773" x2="72.7349" y2="56.428">
		<stop  offset="0" style="stop-color:#FF5C00"/>
		<stop  offset="0.5" style="stop-color:#F8AD2D"/>
		<stop  offset="0.9892" style="stop-color:#F7F8F8"/>
	</linearGradient>
	<path fill="url(#SVGID_1_)" d="M39.829,7.892c0,0,29.279-13.74,49.177,2.937l-12.91,43.658c0,0-18.122-17.127-48.68-2.771
		L39.829,7.892z"/>
	<linearGradient id="SVGID_2_" gradientUnits="userSpaceOnUse" x1="12.8237" y1="79.6953" x2="74.4141" y2="79.6953">
		<stop  offset="0" style="stop-color:#0E00A9"/>
		<stop  offset="0.5" style="stop-color:#0091E9"/>
		<stop  offset="0.9892" style="stop-color:#F7F8F8"/>
	</linearGradient>
	<path fill="url(#SVGID_2_)" d="M25.237,59.059c0,0,29.279-13.74,49.177,2.936l-12.911,43.658c0,0-18.122-17.126-48.68-2.771
		L25.237,59.059z"/>
	<linearGradient id="SVGID_3_" gradientUnits="userSpaceOnUse" x1="113.6758" y1="115.5215" x2="84.4336" y2="64.8725">
		<stop  offset="0" style="stop-color:#FDD50A"/>
		<stop  offset="0.5" style="stop-color:#F9CC4C"/>
		<stop  offset="0.9892" style="stop-color:#F7F8F8"/>
	</linearGradient>
	<path fill="url(#SVGID_3_)" d="M117.338,113.407c0,0-29.279,13.74-49.177-2.937l12.912-43.657c0,0,18.122,17.126,48.68,2.771
		L117.338,113.407z"/>
	<linearGradient id="SVGID_4_" gradientUnits="userSpaceOnUse" x1="144.3438" y1="41.604" x2="82.7539" y2="41.604">
		<stop  offset="0" style="stop-color:#008819"/>
		<stop  offset="0.5" style="stop-color:#61D200"/>
		<stop  offset="0.9892" style="stop-color:#F7F8F8"/>
	</linearGradient>
	<path fill="url(#SVGID_4_)" d="M131.931,62.24c0,0-29.279,13.74-49.177-2.936l12.91-43.658c0,0,18.122,17.126,48.68,2.771
		L131.931,62.24z"/>
</g>
</svg>
