<?xml version="1.0" encoding="UTF-8"?>
<svg width="30px" height="30px" viewBox="0 0 30 30" version="1.1" xmlns="http://www.w3.org/2000/svg" xmlns:xlink="http://www.w3.org/1999/xlink">
    <title>编组</title>
    <defs>
        <rect id="path-1" x="0" y="0" width="100" height="210" rx="4"></rect>
        <filter x="-35.0%" y="-11.9%" width="170.0%" height="133.3%" filterUnits="objectBoundingBox" id="filter-2">
            <feOffset dx="0" dy="10" in="SourceAlpha" result="shadowOffsetOuter1"></feOffset>
            <feGaussianBlur stdDeviation="10" in="shadowOffsetOuter1" result="shadowBlurOuter1"></feGaussianBlur>
            <feColorMatrix values="0 0 0 0 0.364705882   0 0 0 0 0.494117647   0 0 0 0 0.921568627  0 0 0 0.1 0" type="matrix" in="shadowBlurOuter1"></feColorMatrix>
        </filter>
    </defs>
    <g id="简视页面" stroke="none" stroke-width="1" fill="none" fill-rule="evenodd">
        <g id="智能创作页面" transform="translate(-305.000000, -432.000000)">
            <rect fill="#F7F8F9" x="0" y="0" width="1920" height="1957"></rect>
            <g id="编组-11" transform="translate(270.000000, 302.000000)">
                <g id="矩形备份-17">
                    <use fill="black" fill-opacity="1" filter="url(#filter-2)" xlink:href="#path-1"></use>
                    <use fill="#FFFFFF" fill-rule="evenodd" xlink:href="#path-1"></use>
                </g>
                <g id="编组-13" transform="translate(0.000000, 110.000000)">
                    <rect id="矩形" x="0" y="0" width="100" height="100"></rect>
                    <g id="编组" transform="translate(35.000000, 20.000000)" fill="#D8D8D8" fill-rule="nonzero">
                        <path d="M15,0 C23.2842712,0 30,6.71572875 30,15 C30,23.2842712 23.2842712,30 15,30 C6.71572875,30 0,23.2842712 0,15 C0,6.71572875 6.71572875,0 15,0 Z M10.9090909,8.83333345 L4.54545455,15.1969698 L10.9090909,21.5606062 L13.0298031,19.4383942 L8.78837871,15.1969698 L13.0298031,10.9555455 L10.9090909,8.83333345 Z M19.9078696,8.83333345 L17.7871574,10.9555455 L22.0285818,15.1969698 L17.7871574,19.4383942 L19.9078696,21.5606062 L26.271506,15.1969698 L19.9078696,8.83333345 Z" id="形状结合"></path>
                    </g>
                </g>
            </g>
        </g>
    </g>
</svg>