<svg xmlns="http://www.w3.org/2000/svg" xmlns:xlink="http://www.w3.org/1999/xlink" width="20" height="20.135" viewBox="0 0 20 20.135"><defs><style>.a{fill:#dedede;opacity:0;}.b{fill:url(#a);}.c{fill:url(#b);}</style><linearGradient id="a" x1="0.271" y1="0.806" x2="0.957" y2="0.051" gradientUnits="objectBoundingBox"><stop offset="0" stop-color="#e5e5e5"/><stop offset="1" stop-color="#c7c7c7"/></linearGradient><linearGradient id="b" x1="0.5" x2="0.5" y2="1" gradientUnits="objectBoundingBox"><stop offset="0" stop-color="#999"/><stop offset="1" stop-color="#dedede"/></linearGradient></defs><g transform="translate(-532.607 -555.969)"><rect class="a" width="20" height="20" transform="translate(532.607 555.969)"/><path class="b" d="M175.878,117.526c0-.721-.71-1.718-2.109-3.419l-.254-.313v-4.839a5.919,5.919,0,0,0-1.842-4.287,6.367,6.367,0,0,0-2.019-1.3c0-.007,0-.014,0-.022a2.381,2.381,0,0,0-4.762,0c0,.006,0,.012,0,.018a6.367,6.367,0,0,0-2.028,1.3,5.919,5.919,0,0,0-1.842,4.287v4.776c-.087.108-.193.236-.307.376-1.4,1.7-2.109,2.7-2.109,3.419a1.372,1.372,0,0,0,.425,1.041,1.535,1.535,0,0,0,1.023.38h.056l7.133-.009,7.129.009h.056a1.517,1.517,0,0,0,1.023-.381A1.368,1.368,0,0,0,175.878,117.526Zm-8.6-15.348a1.167,1.167,0,0,1,1.116.827,6.415,6.415,0,0,0-2.232,0A1.167,1.167,0,0,1,167.275,102.178Z" transform="translate(375.397 455.003)"/><path class="c" d="M403.637,861.474a2.975,2.975,0,0,0,5.36,0Z" transform="translate(136.311 -287.052)"/></g></svg>