<svg xmlns="http://www.w3.org/2000/svg" xmlns:xlink="http://www.w3.org/1999/xlink" width="20" height="20" viewBox="0 0 20 20"><defs><style>.a{fill:none;}.b{fill:url(#a);}.c{fill:#dedede;}</style><linearGradient id="a" x1="0.14" y1="0.142" x2="1.323" y2="1.262" gradientUnits="objectBoundingBox"><stop offset="0" stop-color="#dedede"/><stop offset="1" stop-color="#999"/></linearGradient></defs><g transform="translate(-1426.814 -387.814)"><rect class="a" width="19.185" height="19.185" transform="translate(1426.814 387.814)"/><g transform="translate(1427 388)"><path class="b" d="M22.188,14.386V5.732a2.349,2.349,0,0,0-2.537-2.2H16.779v.011c-.064,0-.107-.01-.174-.01H15.112V3.281A2.438,2.438,0,0,0,12.574.963H8.405L4.976,4.794v9.592h-1.3v3.788a2.651,2.651,0,0,0,2.831,2.6H20.659a2.826,2.826,0,0,0,2.832-2.816V14.386ZM15.114,5.274h1c.39,0,.66.237.665.452v8.659H15.114ZM6.641,5.5l.1-.117,1.576,0a.776.776,0,0,0,.549-.223A.768.768,0,0,0,9.1,4.624v0l0-1.639.141-.3h3.683c.392,0,.422.386.422.6V14.385H6.641Zm9.736,13.109H10.749A1.143,1.143,0,0,1,9.6,17.475h0a1.114,1.114,0,0,1,.2-.6c.024-.035.045-.073.071-.1a1.082,1.082,0,0,1,.33-.276,1.241,1.241,0,0,1,.145-.076c.019-.007.041-.006.06-.012a.9.9,0,0,1,.184-.036.827.827,0,0,1,.156-.031H16.37a1.14,1.14,0,1,1,.111,2.277c-.035,0-.07,0-.106,0Zm3.939-4.227H18.651V5.732c0-.155.007-.309.012-.456h.987c.392,0,.665.24.665.456Z" transform="translate(-3.676 -0.963)"/><path class="c" d="M243.026,313.431a.792.792,0,0,0-.122-.179.611.611,0,0,0-.064-.072.877.877,0,0,0-.218-.146c-.013-.005-.022-.016-.034-.021a.87.87,0,0,0-.335-.067h-2.022a.671.671,0,0,0-.147.025.692.692,0,0,0-.14.027.869.869,0,0,0-.53.541.829.829,0,0,0-.057.279.874.874,0,0,0,.872.875h2.025a.875.875,0,0,0,.876-.872v0a.838.838,0,0,0-.064-.307.6.6,0,0,0-.039-.083Zm0,3.784a.779.779,0,0,0-.121-.179.832.832,0,0,0-.282-.215l-.034-.023a.913.913,0,0,0-.335-.065h-2.023a.675.675,0,0,0-.147.025.716.716,0,0,0-.14.029.867.867,0,0,0-.53.542.812.812,0,0,0-.057.277.876.876,0,0,0,.874.878h2.022a.877.877,0,0,0,.876-.875.821.821,0,0,0-.064-.3.594.594,0,0,0-.039-.083Z" transform="translate(-234.805 -307.002)"/></g></g></svg>