<svg xmlns="http://www.w3.org/2000/svg" xmlns:xlink="http://www.w3.org/1999/xlink" width="20" height="20" viewBox="0 0 20 20"><defs><style>.a{fill:none;}.b{fill:url(#a);}</style><linearGradient id="a" x1="0.536" y1="-0.062" x2="0.541" y2="1.07" gradientUnits="objectBoundingBox"><stop offset="0" stop-color="#fff"/><stop offset="1" stop-color="#fff"/></linearGradient></defs><g transform="translate(-372 -658)"><g transform="translate(-1051.001 272.005)"><rect class="a" width="20" height="20" transform="translate(1423.001 385.995)"/><g transform="translate(1423.001 387.741)"><path class="b" d="M18.437,16.445H1.418A1.4,1.4,0,0,1,0,15.074V6.851A1.4,1.4,0,0,1,1.418,5.482h17.02a1.4,1.4,0,0,1,1.417,1.369v8.223A1.4,1.4,0,0,1,18.437,16.445ZM9.1,9.081a1,1,0,0,0-1,1V12.5a1,1,0,0,0,1,1,.989.989,0,0,0,.484-.127l2.174-1.208a1,1,0,0,0,0-1.749L9.586,9.209A.987.987,0,0,0,9.1,9.081ZM18.438,4.11H1.42A1.4,1.4,0,0,1,2.839,2.74h14.18a1.4,1.4,0,0,1,1.419,1.37ZM17.019,1.37H2.839A1.4,1.4,0,0,1,4.255,0H15.6a1.4,1.4,0,0,1,1.418,1.367Z"/></g></g></g></svg>