<svg t="1594183446990" class="icon" viewBox="0 0 1024 1024" version="1.1" xmlns="http://www.w3.org/2000/svg" p-id="3319" width="1500" height="1500"><path d="M512 2C230.4 2 2 230.4 2 512s228.4 510 510 510 510-228.4 510-510S793.6 2 512 2z m31.4 755c-10.4 9-22.2 13.8-35.6 13.8-13.8 0-26-4.6-36.4-13.4-10.4-9-15.4-21.6-15.4-37.8 0-14.4 5-26.4 15-36.2 10-9.8 22.2-14.8 36.8-14.8 14.4 0 26.4 5 36.2 14.8 9.8 9.8 14.8 21.8 14.8 36.2 0 15.8-5 28.2-15.4 37.4zM671 440.8c-7.8 14.6-17.2 27.2-28 37.8-10.8 10.6-30.2 28.4-58.2 53.4-7.8 7-14 13.4-18.6 18.6-4.6 5.4-8.2 10.2-10.4 14.8-2.2 4.4-4 9-5.2 13.4-1.2 4.4-3.2 12.2-5.6 23.4-4.2 23.6-17.8 35.4-40.6 35.4-11.8 0-21.8-4-30-11.6-8-7.8-12-19.2-12-34.4 0-19.2 3-35.8 9-49.6 6-14 13.8-26.2 23.6-36.8 9.8-10.6 23-23.2 39.6-37.8 14.6-12.6 25.2-22.4 31.6-28.8 6.6-6.6 12-13.8 16.4-21.8 4.4-8 6.6-16.6 6.6-26 0-18.2-6.8-33.6-20.4-46.2-13.6-12.4-31-18.8-52.4-18.8-25 0-43.6 6.2-55.4 19-11.8 12.6-21.8 31.2-30 55.8-7.8 25.6-22.6 38.6-44.2 38.6-12.6 0-23.6-4.6-32.4-13.4-8.8-9-13-18.8-13-29.2 0-21.6 7-43.6 20.8-65.8 13.8-22.2 34-40.6 60.8-55.2 26.8-14.8 57.8-22.2 93.4-22.2 33 0 62.2 6 87.4 18.2 25.2 12.2 44.8 28.8 58.6 49.6 13.8 21 20.6 43.8 20.6 68.2-0.2 19.8-4.2 36.8-12 51.4z m0 0" p-id="3320" fill="#bfbfbf"></path></svg>