<svg xmlns="http://www.w3.org/2000/svg" xmlns:xlink="http://www.w3.org/1999/xlink" width="20" height="20" viewBox="0 0 20 20"><defs><style>.a{fill:none;}.b{fill:url(#a);}.c{fill:url(#b);}</style><linearGradient id="a" x2="0.539" y2="0.89" gradientUnits="objectBoundingBox"><stop offset="0" stop-color="#dedede"/><stop offset="1" stop-color="#999"/></linearGradient><linearGradient id="b" x1="0.234" y1="0.075" x2="0.798" y2="1.1" gradientUnits="objectBoundingBox"><stop offset="0" stop-color="#e5e5e5"/><stop offset="1" stop-color="#c7c7c7"/></linearGradient></defs><g transform="translate(-1429 -389)"><rect class="a" width="20" height="20" transform="translate(1429 389)"/><g transform="translate(1429 390.96)"><path class="b" d="M3.581,6.185A1.765,1.765,0,0,1,5.213,4.92H17.181A1.961,1.961,0,0,0,15.22,2.959H7.866L7.13,1.616A.981.981,0,0,0,6.223,1H2.473A1.961,1.961,0,0,0,.512,2.959V13.253a1.961,1.961,0,0,0,1.127,1.769L3.581,6.185Zm13.369,7.97a1.938,1.938,0,0,0,.23-.647l-.231.647Z" transform="translate(-0.512 -0.998)"/><path class="c" d="M144.152,320.358H131.976a1.764,1.764,0,0,0-1.632,1.262l-2.088,9.495h13.725a1.774,1.774,0,0,0,1.637-1.261l2.162-6.845A1.933,1.933,0,0,0,144.152,320.358Zm-4.029,5.012-1.255,1.232.294,1.74a.376.376,0,0,1-.127.382.246.246,0,0,1-.191.063.393.393,0,0,1-.211-.063l-1.554-.826-1.554.826a.354.354,0,0,1-.4,0,.376.376,0,0,1-.127-.381l.294-1.741-1.255-1.232a.366.366,0,0,1-.128-.381.363.363,0,0,1,.319-.235l1.745-.254.789-1.589a.338.338,0,0,1,.637,0l.789,1.589,1.745.255a.363.363,0,0,1,.319.234.366.366,0,0,1-.127.381Z" transform="translate(-126.3 -315.433)"/></g></g></svg>