<svg xmlns="http://www.w3.org/2000/svg" xmlns:xlink="http://www.w3.org/1999/xlink" width="20" height="20.002" viewBox="0 0 20 20.002"><defs><style>.a{fill:#dedede;opacity:0;}.b{fill:url(#a);}.c{fill:url(#b);}</style><linearGradient id="a" x1="0.332" y1="0.286" x2="0.732" y2="0.706" gradientUnits="objectBoundingBox"><stop offset="0" stop-color="#e5e5e5"/><stop offset="1" stop-color="#c7c7c7"/></linearGradient><linearGradient id="b" x1="0.5" y1="-0.151" x2="0.5" y2="1" xlink:href="#a"/></defs><g transform="translate(-298.148 -319.83)"><rect class="a" width="20" height="20" transform="translate(298.148 319.832)"/><path class="b" d="M4.89,18.841a4.891,4.891,0,0,1-3.459-8.35L4.025,7.9a1.223,1.223,0,0,1,1.729,1.73L3.16,12.221A2.446,2.446,0,1,0,6.619,15.68l2.595-2.594a1.217,1.217,0,0,1,.336-.241,3.753,3.753,0,0,0-.045.582,3.556,3.556,0,0,0,.7,2.127L8.348,17.41A4.862,4.862,0,0,1,4.89,18.841ZM6.31,13.8a1.266,1.266,0,0,1-.916-2.138L11.654,5.4a1.278,1.278,0,0,1,.9-.372,1.263,1.263,0,0,1,.891,2.161l-6.26,6.26A1.261,1.261,0,0,1,6.31,13.8Zm8.73-3.024h0a3.251,3.251,0,0,0-2.191-.855h-.067a1.222,1.222,0,0,1,.328-.689l2.6-2.612a2.459,2.459,0,1,0-3.475-3.481l-2.6,2.612a1.237,1.237,0,0,1-.871.363,1.217,1.217,0,0,1-.316-.042A1.231,1.231,0,0,1,7.9,4.005l2.6-2.611a4.912,4.912,0,0,1,8.337,3.5,4.907,4.907,0,0,1-1.39,3.467l-2.41,2.414Z" transform="translate(298.678 319.83)"/><path class="c" d="M486.059,562.032c.209-.019.189.043.189-.19v-.525c0-.293-.062-.356-.354-.356h-1.254a.9.9,0,0,1-.23-.336c-.733-.818-.316-1.363.146-2.119a1.955,1.955,0,0,0,.228-.335,2.269,2.269,0,0,0,.293-1.134,2.367,2.367,0,1,0-4.733,0,2.34,2.34,0,0,0,.5,1.446c.5.8,1.318,1.446,0,2.474h-1.258a.321.321,0,0,0-.355.356v.545c0,.217.146.173.378.173Zm.413.293h-7.548a.2.2,0,0,0-.184.211v.21a.2.2,0,0,0,.184.211h7.526a.2.2,0,0,0,.184-.211v-.21A.2.2,0,0,0,486.473,562.325Z" transform="translate(-170.693 -223.126)"/></g></svg>