<?xml version="1.0" encoding="utf-8"?>
<!-- Generator: Adobe Illustrator 16.0.0, SVG Export Plug-In . SVG Version: 6.00 Build 0)  -->
<!DOCTYPE svg PUBLIC "-//W3C//DTD SVG 1.1//EN" "http://www.w3.org/Graphics/SVG/1.1/DTD/svg11.dtd">
<svg version="1.1" id="图层_1" xmlns="http://www.w3.org/2000/svg" xmlns:xlink="http://www.w3.org/1999/xlink" x="0px" y="0px"
	 width="16px" height="16px" viewBox="0 0 16 16" enable-background="new 0 0 16 16" xml:space="preserve">
<path fill="#1E0478" d="M16,3.715v0.699c0,0.279-0.207,0.521-0.482,0.562c-0.123,0.018-0.25,0.036-0.379,0.054
	c-0.063,0.215-0.148,0.422-0.257,0.619c0.078,0.102,0.155,0.205,0.229,0.306c0.166,0.224,0.143,0.541-0.055,0.738l-0.494,0.493
	c-0.197,0.197-0.517,0.222-0.738,0.057c-0.102-0.075-0.203-0.152-0.307-0.23c-0.197,0.106-0.404,0.192-0.619,0.257
	c-0.018,0.128-0.035,0.255-0.053,0.378c-0.041,0.275-0.283,0.482-0.563,0.482h-0.699c-0.277,0-0.521-0.207-0.563-0.482
	c-0.02-0.123-0.037-0.25-0.055-0.378c-0.215-0.064-0.422-0.15-0.619-0.257c-0.102,0.078-0.205,0.155-0.306,0.23
	c-0.22,0.164-0.537,0.139-0.733-0.058L8.814,6.692C8.617,6.495,8.593,6.177,8.758,5.954C8.833,5.853,8.91,5.75,8.988,5.648
	C8.882,5.451,8.796,5.244,8.73,5.029C8.604,5.011,8.477,4.993,8.353,4.975C8.078,4.934,7.871,4.692,7.871,4.414V3.715
	c0-0.278,0.207-0.52,0.482-0.561C8.477,3.135,8.604,3.117,8.73,3.1C8.794,2.886,8.88,2.678,8.988,2.481
	C8.91,2.378,8.833,2.276,8.758,2.176C8.593,1.952,8.617,1.634,8.814,1.437l0.492-0.494c0.196-0.197,0.516-0.221,0.737-0.055
	c0.103,0.075,0.204,0.152,0.308,0.23c0.195-0.106,0.402-0.192,0.619-0.257c0.018-0.128,0.033-0.255,0.053-0.378
	C11.064,0.207,11.307,0,11.586,0h0.699c0.277,0,0.52,0.208,0.561,0.483c0.021,0.124,0.037,0.25,0.055,0.378
	c0.215,0.064,0.423,0.15,0.619,0.257c0.104-0.078,0.203-0.155,0.307-0.23c0.224-0.166,0.541-0.142,0.736,0.055l0.494,0.494
	c0.197,0.197,0.221,0.515,0.055,0.738c-0.072,0.101-0.149,0.203-0.229,0.306c0.105,0.197,0.192,0.405,0.258,0.619
	c0.127,0.017,0.254,0.035,0.379,0.054C15.793,3.195,16,3.437,16,3.715z M15.318,4.316V3.813c-0.111-0.016-0.228-0.032-0.342-0.047
	c-0.229-0.03-0.412-0.191-0.475-0.411c-0.061-0.21-0.145-0.414-0.25-0.604c-0.111-0.199-0.096-0.444,0.044-0.626
	c0.071-0.092,0.142-0.184,0.208-0.275L14.15,1.493c-0.092,0.068-0.186,0.138-0.275,0.208c-0.182,0.14-0.428,0.157-0.626,0.044
	c-0.19-0.108-0.394-0.192-0.604-0.25c-0.22-0.061-0.381-0.247-0.41-0.474c-0.016-0.115-0.029-0.229-0.047-0.342h-0.504
	c-0.017,0.113-0.033,0.227-0.047,0.342c-0.029,0.227-0.191,0.413-0.412,0.474c-0.211,0.058-0.412,0.142-0.604,0.25
	c-0.199,0.113-0.444,0.095-0.626-0.044c-0.093-0.07-0.185-0.14-0.274-0.208L9.363,1.85c0.068,0.091,0.139,0.183,0.209,0.275
	c0.14,0.182,0.156,0.427,0.044,0.626c-0.108,0.19-0.192,0.394-0.25,0.604c-0.062,0.22-0.247,0.381-0.474,0.411
	C8.777,3.781,8.662,3.797,8.55,3.813v0.504c0.111,0.016,0.228,0.032,0.343,0.047c0.228,0.029,0.412,0.19,0.475,0.411
	c0.058,0.211,0.142,0.414,0.25,0.604c0.111,0.199,0.096,0.444-0.044,0.626C9.502,6.096,9.432,6.19,9.363,6.279l0.357,0.357
	c0.092-0.068,0.184-0.139,0.273-0.209c0.182-0.14,0.427-0.156,0.626-0.044c0.188,0.108,0.396,0.192,0.604,0.25
	c0.221,0.061,0.383,0.247,0.412,0.474c0.014,0.115,0.029,0.23,0.047,0.342h0.504c0.017-0.111,0.03-0.227,0.047-0.342
	c0.029-0.227,0.189-0.413,0.41-0.474c0.211-0.058,0.414-0.142,0.604-0.25c0.197-0.112,0.443-0.096,0.626,0.044
	c0.092,0.07,0.185,0.141,0.274,0.209l0.354-0.357c-0.067-0.09-0.137-0.184-0.208-0.274c-0.141-0.182-0.156-0.427-0.044-0.626
	c0.106-0.19,0.19-0.393,0.25-0.604c0.062-0.22,0.246-0.381,0.474-0.411C15.093,4.349,15.207,4.333,15.318,4.316z"/>
<path fill="#9B8CCC" d="M15.318,3.813v0.504c-0.111,0.016-0.228,0.032-0.342,0.047c-0.229,0.029-0.412,0.19-0.475,0.411
	c-0.061,0.211-0.145,0.414-0.25,0.604c-0.111,0.199-0.096,0.444,0.044,0.626c0.071,0.091,0.142,0.185,0.208,0.274L14.15,6.636
	c-0.092-0.068-0.186-0.139-0.275-0.209c-0.182-0.14-0.428-0.156-0.626-0.044c-0.19,0.108-0.394,0.192-0.604,0.25
	c-0.22,0.061-0.381,0.247-0.41,0.474c-0.016,0.115-0.029,0.23-0.047,0.342h-0.504c-0.017-0.111-0.033-0.227-0.047-0.342
	c-0.029-0.227-0.191-0.413-0.412-0.474c-0.209-0.058-0.412-0.142-0.604-0.25c-0.199-0.112-0.444-0.096-0.626,0.044
	C9.904,6.498,9.813,6.568,9.721,6.636L9.363,6.279c0.068-0.09,0.139-0.184,0.209-0.274c0.14-0.182,0.156-0.427,0.044-0.626
	c-0.108-0.19-0.192-0.393-0.25-0.604c-0.062-0.22-0.247-0.381-0.474-0.411C8.777,4.349,8.662,4.333,8.55,4.317V3.813
	c0.111-0.016,0.228-0.032,0.343-0.047c0.228-0.03,0.412-0.191,0.475-0.411c0.058-0.21,0.142-0.414,0.25-0.604
	c0.111-0.199,0.096-0.444-0.044-0.626C9.502,2.033,9.432,1.941,9.363,1.85l0.357-0.357c0.092,0.068,0.184,0.138,0.272,0.208
	c0.183,0.14,0.428,0.157,0.627,0.044c0.188-0.108,0.394-0.192,0.604-0.25c0.221-0.061,0.383-0.247,0.41-0.474
	c0.016-0.115,0.03-0.229,0.049-0.342h0.504c0.017,0.113,0.03,0.227,0.047,0.342c0.029,0.228,0.189,0.414,0.41,0.474
	c0.211,0.058,0.414,0.142,0.604,0.25c0.197,0.113,0.443,0.095,0.626-0.044c0.092-0.07,0.185-0.14,0.274-0.208l0.354,0.356
	c-0.067,0.091-0.137,0.183-0.208,0.275c-0.141,0.182-0.156,0.427-0.044,0.626c0.106,0.19,0.19,0.394,0.25,0.604
	c0.062,0.22,0.246,0.381,0.474,0.411C15.093,3.781,15.207,3.796,15.318,3.813z M13.385,4.064c0-0.799-0.65-1.45-1.449-1.45
	c-0.801,0-1.449,0.65-1.449,1.45s0.648,1.45,1.449,1.45C12.734,5.514,13.385,4.864,13.385,4.064z"/>
<g>
	<path fill="#1E0478" d="M11.936,2.615c0.799,0,1.449,0.65,1.449,1.45s-0.65,1.45-1.449,1.45c-0.801,0-1.449-0.65-1.449-1.45
		C10.484,3.265,11.135,2.615,11.936,2.615z M12.74,4.064c0-0.444-0.361-0.805-0.805-0.805c-0.445,0-0.808,0.361-0.808,0.805
		s0.36,0.805,0.808,0.805C12.379,4.87,12.74,4.508,12.74,4.064z"/>
	<path fill="#1E0478" d="M10.549,9.045c0.127,0.305,0.01,0.662-0.271,0.832c-0.168,0.1-0.342,0.203-0.514,0.303
		c0.039,0.344,0.039,0.695,0,1.041c0.172,0.1,0.344,0.201,0.514,0.303c0.281,0.168,0.398,0.525,0.271,0.83l-0.367,0.891
		c-0.127,0.305-0.461,0.475-0.781,0.396c-0.188-0.049-0.383-0.1-0.574-0.148c-0.219,0.271-0.464,0.52-0.736,0.736
		c0.052,0.191,0.102,0.387,0.149,0.574c0.08,0.318-0.09,0.654-0.395,0.781L6.955,15.95c-0.305,0.127-0.662,0.008-0.831-0.272
		c-0.102-0.169-0.203-0.343-0.302-0.515c-0.346,0.041-0.696,0.041-1.042,0c-0.1,0.174-0.202,0.349-0.302,0.515
		C4.354,15.881,4.13,16,3.9,16c-0.086,0-0.172-0.018-0.254-0.051l-0.888-0.367c-0.305-0.127-0.474-0.463-0.395-0.781
		c0.047-0.189,0.098-0.385,0.149-0.578c-0.273-0.215-0.521-0.463-0.736-0.732c-0.193,0.05-0.387,0.101-0.576,0.146
		c-0.32,0.08-0.655-0.09-0.781-0.395L0.05,12.354c-0.126-0.305-0.008-0.662,0.273-0.83c0.167-0.102,0.34-0.203,0.513-0.303
		c-0.04-0.346-0.04-0.695,0-1.041c-0.173-0.1-0.345-0.201-0.513-0.303C0.042,9.707-0.076,9.35,0.05,9.045l0.368-0.887
		C0.544,7.853,0.88,7.683,1.199,7.762c0.19,0.048,0.384,0.098,0.577,0.15c0.216-0.273,0.463-0.521,0.736-0.736
		C2.461,6.983,2.411,6.789,2.363,6.599c-0.08-0.319,0.09-0.655,0.395-0.781L3.646,5.45C3.95,5.324,4.308,5.441,4.477,5.723
		c0.101,0.167,0.202,0.34,0.302,0.514c0.346-0.04,0.695-0.04,1.042,0c0.1-0.173,0.201-0.346,0.302-0.514
		C6.292,5.441,6.649,5.324,6.954,5.45l0.888,0.368C8.147,5.944,8.316,6.28,8.237,6.599C8.19,6.789,8.139,6.982,8.088,7.175
		c0.273,0.217,0.521,0.463,0.736,0.736C9.018,7.86,9.211,7.81,9.4,7.762c0.317-0.079,0.654,0.091,0.781,0.396L10.549,9.045
		L10.549,9.045z M9.873,9.283L9.535,8.467C9.354,8.514,9.167,8.561,8.982,8.611C8.721,8.682,8.442,8.59,8.277,8.377
		c-0.19-0.244-0.411-0.465-0.655-0.654C7.41,7.556,7.318,7.279,7.388,7.018c0.05-0.185,0.098-0.371,0.144-0.554L6.716,6.126
		C6.619,6.288,6.522,6.454,6.427,6.62C6.291,6.855,6.031,6.985,5.763,6.951c-0.308-0.038-0.62-0.038-0.927,0
		C4.569,6.984,4.309,6.854,4.173,6.619C4.078,6.453,3.98,6.288,3.884,6.126L3.068,6.464c0.045,0.184,0.094,0.369,0.144,0.553
		C3.282,7.279,3.19,7.556,2.978,7.72C2.733,7.912,2.513,8.132,2.322,8.376C2.156,8.589,1.88,8.682,1.619,8.611
		C1.433,8.561,1.247,8.514,1.066,8.467L0.727,9.283C0.889,9.381,1.054,9.479,1.22,9.572c0.235,0.137,0.365,0.396,0.332,0.664
		c-0.039,0.309-0.039,0.619,0,0.928c0.033,0.268-0.097,0.527-0.332,0.662c-0.166,0.096-0.332,0.193-0.493,0.289l0.338,0.816
		c0.182-0.047,0.368-0.096,0.553-0.146c0.262-0.068,0.538,0.021,0.703,0.234c0.19,0.244,0.411,0.463,0.656,0.654
		c0.213,0.166,0.305,0.441,0.234,0.703c-0.05,0.186-0.098,0.371-0.144,0.553l0.816,0.338c0.096-0.158,0.193-0.324,0.289-0.492
		c0.135-0.232,0.396-0.363,0.664-0.332c0.308,0.039,0.62,0.039,0.927,0c0.268-0.029,0.528,0.1,0.663,0.332
		c0.095,0.166,0.192,0.332,0.289,0.492l0.816-0.338c-0.045-0.18-0.094-0.365-0.144-0.553c-0.07-0.262,0.021-0.537,0.234-0.703
		c0.244-0.189,0.465-0.41,0.655-0.654c0.166-0.213,0.442-0.305,0.705-0.232c0.186,0.049,0.371,0.098,0.555,0.145l0.338-0.816
		c-0.162-0.096-0.328-0.193-0.493-0.289c-0.233-0.135-0.362-0.396-0.331-0.664c0.038-0.307,0.038-0.619,0-0.926
		C9.016,9.969,9.146,9.709,9.381,9.572C9.546,9.479,9.712,9.381,9.873,9.283z"/>
</g>
<path fill="#6F7CCD" d="M9.535,8.467l0.338,0.816C9.712,9.381,9.547,9.479,9.381,9.572c-0.234,0.137-0.365,0.396-0.332,0.664
	c0.038,0.307,0.038,0.619,0,0.926c-0.033,0.268,0.096,0.529,0.331,0.664c0.165,0.096,0.331,0.193,0.493,0.289l-0.338,0.816
	c-0.184-0.047-0.369-0.096-0.555-0.146c-0.263-0.068-0.539,0.021-0.705,0.234c-0.19,0.244-0.411,0.465-0.655,0.654
	c-0.213,0.166-0.304,0.441-0.234,0.703c0.05,0.188,0.099,0.373,0.144,0.553l-0.815,0.34c-0.097-0.16-0.194-0.326-0.289-0.492
	c-0.135-0.232-0.396-0.361-0.663-0.332c-0.307,0.039-0.619,0.039-0.927,0c-0.268-0.031-0.528,0.1-0.664,0.332
	c-0.096,0.168-0.193,0.334-0.289,0.492l-0.816-0.338c0.045-0.182,0.094-0.367,0.144-0.553c0.07-0.262-0.021-0.537-0.234-0.703
	c-0.245-0.191-0.465-0.41-0.656-0.654c-0.165-0.215-0.441-0.305-0.703-0.234c-0.185,0.051-0.371,0.1-0.553,0.146l-0.338-0.816
	c0.161-0.096,0.327-0.193,0.493-0.289c0.235-0.135,0.365-0.395,0.332-0.662c-0.039-0.309-0.039-0.619,0-0.928
	c0.032-0.27-0.098-0.529-0.333-0.666C1.054,9.479,0.889,9.381,0.727,9.283l0.338-0.816c0.182,0.047,0.368,0.094,0.553,0.145
	c0.261,0.07,0.538-0.021,0.704-0.233c0.19-0.244,0.411-0.465,0.655-0.656C3.19,7.556,3.282,7.279,3.212,7.017
	c-0.05-0.184-0.099-0.369-0.144-0.553l0.816-0.338C3.98,6.288,4.078,6.453,4.173,6.619c0.135,0.235,0.396,0.365,0.663,0.332
	c0.307-0.038,0.619-0.038,0.927,0C6.031,6.985,6.291,6.855,6.427,6.62c0.095-0.166,0.192-0.332,0.289-0.493l0.816,0.338
	C7.486,6.647,7.438,6.833,7.388,7.018C7.318,7.279,7.41,7.556,7.623,7.722c0.245,0.189,0.465,0.41,0.656,0.654
	c0.165,0.213,0.442,0.306,0.704,0.233C9.167,8.561,9.354,8.514,9.535,8.467z M7.741,10.697c0-0.313-0.06-0.627-0.186-0.932
	C7.04,8.521,5.609,7.929,4.366,8.445C3.122,8.96,2.53,10.391,3.045,11.633c0.25,0.604,0.719,1.072,1.321,1.322
	c0.301,0.125,0.617,0.188,0.934,0.188c0.317,0,0.633-0.063,0.934-0.188C7.173,12.566,7.741,11.654,7.741,10.697z"/>
<path fill="#1E0478" d="M7.555,9.766c0.126,0.305,0.186,0.621,0.186,0.934c0,0.955-0.568,1.867-1.507,2.258
	C5.933,13.08,5.617,13.143,5.3,13.143c-0.316,0-0.633-0.063-0.934-0.188c-0.603-0.25-1.072-0.719-1.321-1.322
	C2.53,10.391,3.123,8.959,4.366,8.445C5.609,7.929,7.04,8.521,7.555,9.766z M5.96,12.293c0.879-0.363,1.297-1.375,0.934-2.254
	C6.619,9.377,5.975,8.975,5.298,8.975c-0.22,0-0.442,0.043-0.658,0.131c-0.879,0.365-1.297,1.375-0.934,2.254
	c0.176,0.427,0.508,0.759,0.934,0.935C5.066,12.469,5.535,12.469,5.96,12.293z"/>
<g display="none">
	<g display="inline">
		<g>
			<path fill="#1E0478" d="M12.484,12.531c-0.149,0-0.25-0.051-0.352-0.15l-1.5-1.5c-0.197-0.201-0.197-0.5,0-0.701
				c0.2-0.199,0.5-0.199,0.7,0l1.5,1.5c0.2,0.201,0.2,0.5,0,0.701C12.734,12.48,12.635,12.531,12.484,12.531z"/>
		</g>
	</g>
	<g display="inline">
		<g>
			<path fill="#1E0478" d="M12.484,12.531c-0.149,0-0.25-0.051-0.352-0.15c-0.197-0.201-0.197-0.5,0-0.701l3-3
				c0.2-0.2,0.5-0.2,0.7,0c0.2,0.2,0.2,0.5,0,0.701l-3,3C12.734,12.48,12.635,12.531,12.484,12.531z"/>
		</g>
	</g>
</g>
<path display="none" fill="#1E0478" d="M14.67,14.061c-0.145,0-0.251-0.057-0.305-0.108l-1.389-1.388l-1.332,1.332
	c-0.053,0.053-0.172,0.113-0.332,0.113c-0.119,0-0.304-0.035-0.476-0.207c-0.174-0.174-0.212-0.345-0.213-0.455
	c-0.003-0.147,0.056-0.261,0.108-0.313l1.354-1.354l-1.321-1.318c-0.119-0.12-0.218-0.491,0.096-0.805
	c0.179-0.179,0.353-0.215,0.469-0.215c0.145,0,0.25,0.057,0.303,0.11l1.344,1.341l1.332-1.333c0.053-0.054,0.174-0.116,0.334-0.116
	c0.121,0,0.303,0.037,0.475,0.213c0.296,0.297,0.236,0.637,0.104,0.77l-1.357,1.355l1.365,1.363
	c0.055,0.055,0.115,0.172,0.115,0.331c0,0.122-0.035,0.302-0.207,0.476C14.958,14.023,14.785,14.061,14.67,14.061L14.67,14.061
	L14.67,14.061z"/>
<g>
	<path fill="#1E0478" d="M11.807,11.029h-0.285v-0.002c0-0.795,0.637-1.465,1.444-1.461c0.396,0.002,0.759,0.162,1.017,0.422
		l0.473-0.454c-0.381-0.384-0.905-0.621-1.487-0.621c-1.159,0-2.102,0.946-2.103,2.116h-0.289c-0.18,0-0.25,0.119-0.161,0.264
		l0.614,0.611c0.123,0.123,0.197,0.127,0.322,0l0.616-0.611C12.057,11.148,11.984,11.029,11.807,11.029z M15.557,10.775
		l-0.617-0.609c-0.125-0.126-0.203-0.118-0.32,0l-0.616,0.609c-0.089,0.146-0.019,0.264,0.161,0.264h0.285
		c-0.006,0.79-0.639,1.454-1.445,1.449c-0.396,0-0.757-0.159-1.018-0.42l-0.471,0.453c0.381,0.383,0.905,0.621,1.486,0.621
		c1.158,0,2.096-0.94,2.104-2.104h0.289C15.572,11.039,15.645,10.921,15.557,10.775z"/>
</g>
</svg>
