<?xml version="1.0" encoding="utf-8"?>
<!-- Generator: Adobe Illustrator 16.0.0, SVG Export Plug-In . SVG Version: 6.00 Build 0)  -->
<!DOCTYPE svg PUBLIC "-//W3C//DTD SVG 1.1//EN" "http://www.w3.org/Graphics/SVG/1.1/DTD/svg11.dtd">
<svg version="1.1" id="图层_1" xmlns="http://www.w3.org/2000/svg" xmlns:xlink="http://www.w3.org/1999/xlink" x="0px" y="0px"
	 width="160px" height="120px" viewBox="0 0 160 120" enable-background="new 0 0 160 120" xml:space="preserve">
<rect x="5.066" y="62.289" fill="#C90630" stroke="#DCDDDD" stroke-width="0.75" stroke-miterlimit="10" width="118.318" height="32.354"/>
<polygon fill="#C9022D" stroke="#DCDDDD" stroke-miterlimit="10" points="154.667,63.667 124.234,93.891 124.156,62.031 
	154.563,33.031 "/>
<polygon fill="#C60236" stroke="#DCDDDD" stroke-width="0.75" stroke-miterlimit="10" points="123.254,61.818 5.607,61.67 
	40.094,31.893 154.167,32.25 "/>
<line fill="none" stroke="#DCDDDD" stroke-width="1.1" stroke-miterlimit="10" x1="55.719" y1="31.953" x2="24" y2="61.667"/>
<line fill="none" stroke="#DCDDDD" stroke-width="1.1" stroke-miterlimit="10" x1="73.938" y1="32.021" x2="42.25" y2="61.667"/>
<line fill="none" stroke="#DCDDDD" stroke-width="1.1" stroke-miterlimit="10" x1="92.672" y1="32.047" x2="60.891" y2="61.781"/>
<line fill="none" stroke="#DCDDDD" stroke-width="1.1" stroke-miterlimit="10" x1="112.771" y1="32.104" x2="81.125" y2="61.844"/>
<line fill="none" stroke="#DCDDDD" stroke-width="1.1" stroke-miterlimit="10" x1="135" y1="32.219" x2="103.406" y2="61.813"/>
<line fill="none" stroke="#DCDDDD" stroke-width="1.1" stroke-miterlimit="10" x1="154.75" y1="55.469" x2="123.156" y2="85.063"/>
<line fill="none" stroke="#DCDDDD" stroke-width="1.1" stroke-miterlimit="10" x1="23.25" y1="62.313" x2="23.188" y2="94.625"/>
<line fill="none" stroke="#DCDDDD" stroke-width="1.1" stroke-miterlimit="10" x1="41.75" y1="62.313" x2="41.688" y2="94.625"/>
<line fill="none" stroke="#DCDDDD" stroke-width="1.1" stroke-miterlimit="10" x1="61.083" y1="62.313" x2="61.021" y2="94.625"/>
<line fill="none" stroke="#DCDDDD" stroke-width="1.1" stroke-miterlimit="10" x1="80.75" y1="62.313" x2="80.688" y2="94.625"/>
<line fill="none" stroke="#DCDDDD" stroke-width="1.1" stroke-miterlimit="10" x1="102.917" y1="62.313" x2="102.854" y2="94.625"/>
<line fill="none" stroke="#DCDDDD" stroke-width="1.1" stroke-miterlimit="10" x1="30.958" y1="39.792" x2="47.333" y2="39.708"/>
<line fill="none" stroke="#DCDDDD" stroke-width="1.1" stroke-miterlimit="10" x1="65.833" y1="39.792" x2="84.542" y2="39.708"/>
<line fill="none" stroke="#DCDDDD" stroke-width="1.1" stroke-miterlimit="10" x1="104.625" y1="39.792" x2="127.208" y2="39.708"/>
<line fill="none" stroke="#DCDDDD" stroke-width="1.1" stroke-miterlimit="10" x1="33" y1="53.219" x2="51.125" y2="53.25"/>
<line fill="none" stroke="#DCDDDD" stroke-width="1.1" stroke-miterlimit="10" x1="69.833" y1="53.219" x2="90.417" y2="53.25"/>
<line fill="none" stroke="#DCDDDD" stroke-width="1.1" stroke-miterlimit="10" x1="112.542" y1="53.167" x2="132.75" y2="53.25"/>
<line fill="none" stroke="#DCDDDD" stroke-width="1.1" stroke-miterlimit="10" x1="5.375" y1="71.625" x2="22.75" y2="71.625"/>
<line fill="none" stroke="#DCDDDD" stroke-width="1.1" stroke-miterlimit="10" x1="23.25" y1="84.459" x2="41.75" y2="84.459"/>
<line fill="none" stroke="#DCDDDD" stroke-width="1.1" stroke-miterlimit="10" x1="42" y1="71.625" x2="60.875" y2="71.625"/>
<line fill="none" stroke="#DCDDDD" stroke-width="1.1" stroke-miterlimit="10" x1="61.042" y1="84.459" x2="80.75" y2="84.459"/>
<line fill="none" stroke="#DCDDDD" stroke-width="1.1" stroke-miterlimit="10" x1="80.875" y1="71.625" x2="102.833" y2="71.625"/>
<line fill="none" stroke="#DCDDDD" stroke-width="1.1" stroke-miterlimit="10" x1="102.667" y1="84.459" x2="123.792" y2="84.459"/>
<line fill="none" stroke="#DCDDDD" stroke-width="1.1" stroke-miterlimit="10" x1="132.75" y1="53.25" x2="132.75" y2="76.5"/>
<line fill="none" stroke="#DCDDDD" stroke-width="1.1" stroke-miterlimit="10" x1="147.542" y1="62.209" x2="147.542" y2="70.709"/>
</svg>
