<?xml version="1.0" encoding="utf-8"?>
<!-- Generator: Adobe Illustrator 16.0.0, SVG Export Plug-In . SVG Version: 6.00 Build 0)  -->
<!DOCTYPE svg PUBLIC "-//W3C//DTD SVG 1.1//EN" "http://www.w3.org/Graphics/SVG/1.1/DTD/svg11.dtd">
<svg version="1.1" id="图层_1" xmlns="http://www.w3.org/2000/svg" xmlns:xlink="http://www.w3.org/1999/xlink" x="0px" y="0px"
	 width="160px" height="120px" viewBox="0 0 160 120" enable-background="new 0 0 160 120" xml:space="preserve">
<image display="none" overflow="visible" enable-background="new    " width="200" height="118" xlink:href="DDF5B192.jpeg"  transform="matrix(0.7542 0 0 0.7542 5.5762 8)">
</image>
<g>
	<ellipse fill="none" cx="43.906" cy="72.438" rx="6.094" ry="9.438"/>
	<path fill="#0A4085" d="M43.938,59.25c-6.179,0-11.188,5.877-11.188,13.125S37.759,85.5,43.938,85.5s11.188-5.877,11.188-13.125
		S50.117,59.25,43.938,59.25z M43.906,81.876c-3.366,0-6.094-4.226-6.094-9.438c0-5.212,2.729-9.438,6.094-9.438
		C47.271,63,50,67.226,50,72.438C50,77.65,47.271,81.876,43.906,81.876z"/>
</g>
<path fill="#0A4085" d="M65.25,59.375h-5.375v23.5c0,0,2.625,4.71,11.125,2.084v-3.042c0,0-5.969,0.958-5.833-0.834L65.25,59.375z"
	/>
<g>
	
		<ellipse transform="matrix(-0.4589 -0.8885 0.8885 -0.4589 54.4629 188.0858)" fill="none" cx="84.507" cy="77.458" rx="4.041" ry="5.751"/>
	<path fill="#0A4085" d="M93.084,62.417C87.167,55.75,75.667,61.5,75.667,61.5c-0.75,2.083,1,3.167,1,3.167
		c7.499-3.417,11.916,0.167,11.916,0.167v5c-5.084,0.167-6,0.666-6,0.666c-11.833,2.438-8.02,12.5-4.916,14.167
		c8.063,4.33,12.417-2.25,12.417-2.25v2.833h4.334V66.084C94.252,63.751,93.084,62.417,93.084,62.417z M86.361,81.049
		c-2.822,1.457-5.939,1.031-6.964-0.951c-1.024-1.983,0.433-4.772,3.255-6.23c2.82-1.457,5.938-1.031,6.963,0.951
		C90.64,76.802,89.183,79.591,86.361,81.049z"/>
</g>
<path fill="#0A4085" d="M105.875,60.125h-4.25V85h5.125V68.625c0,0,2.375-4.875,7.125-4l0.375-5.375c0,0-4.375-1.125-8.25,4.875
	L105.875,60.125z"/>
<polygon fill="#0A4085" points="119.25,60 124.25,60 124.25,84.75 119,84.75 "/>
<path fill="#EE1B21" d="M61.333,48.833c0,0,5.111-2.359,7,0.667c1.391,2.227,3.25,7.25,8.5,6.167c0,0-1-5.333,2.583-7.417
	c0,0-7.266-0.233-8.917-1.917C68.837,44.638,63.333,45.167,61.333,48.833z"/>
<path fill="#EE1B21" d="M70.53,33.593c0,0,5.629-0.007,6.081,3.531c0.333,2.604-0.078,7.945,5.145,9.155c0,0,1.32-5.263,5.445-5.659
	c0,0-6.503-3.249-7.299-5.467C79.1,32.917,73.879,31.098,70.53,33.593z"/>
<path fill="#EE1B21" d="M83.662,23.224c0,0,5.236,2.064,4.357,5.52c-0.649,2.544-2.994,7.36,1.416,10.406
	c0,0,3.164-4.409,7.146-3.26c0,0-4.854-5.412-4.777-7.768C91.88,25.747,87.693,22.135,83.662,23.224z"/>
<path fill="#EE1B21" d="M99.82,18.803c0,0,4.076,3.881,1.962,6.753c-1.558,2.113-5.54,5.695-2.599,10.176
	c0,0,4.59-2.897,7.848-0.335c0,0-2.463-6.839-1.508-8.994C106.486,24.23,103.966,19.31,99.82,18.803z"/>
<path fill="#EE1B21" d="M116.059,20.531c0,0,2.482,5.051-0.494,7.015c-2.192,1.444-7.168,3.426-5.959,8.648
	c0,0,5.309-1.131,7.479,2.4c0,0,0.056-7.269,1.697-8.96C120.436,27.93,119.773,22.441,116.059,20.531z"/>
<path fill="#EE1B21" d="M130.878,28.021c0,0,0.563,5.599-2.91,6.401c-2.559,0.588-7.913,0.711-8.601,6.028
	c0,0,5.369,0.791,6.172,4.857c0,0,2.587-6.793,4.716-7.806C132.4,36.481,133.693,31.105,130.878,28.021z"/>
<path fill="#EE1B21" d="M142.18,40.836c0,0-1.848,5.316-5.337,4.58c-2.567-0.544-7.477-2.688-10.339,1.844
	c0,0,4.536,2.979,3.551,7.005c0,0,5.209-5.071,7.565-5.093C139.995,49.151,143.434,44.82,142.18,40.836z"/>
<g>
	<path fill="#0A4085" d="M130.16,78.882c2.025,1.69,4.326,2.535,6.902,2.535c1.463,0,2.563-0.253,3.299-0.76
		c0.736-0.509,1.104-1.159,1.104-1.955c0-0.688-0.292-1.336-0.877-1.947c-0.584-0.61-2.127-1.438-4.629-2.485
		c-3.932-1.68-5.896-4.123-5.896-7.328c0-2.355,0.892-4.187,2.672-5.488c1.781-1.303,4.141-1.955,7.074-1.955
		c2.459,0,4.521,0.322,6.189,0.965v5.071c-1.689-1.155-3.666-1.734-5.93-1.734c-1.321,0-2.377,0.243-3.168,0.729
		c-0.791,0.484-1.187,1.137-1.187,1.955c0,0.654,0.271,1.257,0.813,1.808c0.541,0.551,1.879,1.295,4.012,2.231
		c2.502,1.08,4.221,2.221,5.158,3.42c0.936,1.199,1.404,2.629,1.404,4.285c0,2.433-0.855,4.287-2.566,5.563
		s-4.143,1.914-7.293,1.914c-2.881,0-5.241-0.469-7.082-1.406V78.882L130.16,78.882z"/>
</g>
<g>
	<path fill="#0A4085" d="M12.16,78.882c2.025,1.69,4.326,2.535,6.903,2.535c1.462,0,2.561-0.253,3.297-0.76
		c0.736-0.509,1.104-1.159,1.104-1.955c0-0.688-0.292-1.336-0.877-1.947c-0.585-0.61-2.128-1.438-4.629-2.485
		c-3.931-1.68-5.896-4.123-5.896-7.328c0-2.355,0.891-4.187,2.672-5.488c1.781-1.303,4.139-1.955,7.074-1.955
		c2.458,0,4.521,0.322,6.189,0.965v5.071c-1.689-1.155-3.666-1.734-5.929-1.734c-1.321,0-2.377,0.243-3.167,0.729
		s-1.186,1.137-1.186,1.955c0,0.654,0.271,1.257,0.812,1.808s1.879,1.295,4.012,2.231c2.501,1.08,4.221,2.221,5.157,3.42
		c0.937,1.199,1.405,2.629,1.405,4.285c0,2.433-0.856,4.287-2.566,5.563c-1.711,1.275-4.142,1.914-7.293,1.914
		c-2.881,0-5.241-0.469-7.082-1.406V78.882z"/>
</g>
</svg>
