<?xml version="1.0" encoding="utf-8"?>
<!-- Generator: Adobe Illustrator 16.0.0, SVG Export Plug-In . SVG Version: 6.00 Build 0)  -->
<!DOCTYPE svg PUBLIC "-//W3C//DTD SVG 1.1//EN" "http://www.w3.org/Graphics/SVG/1.1/DTD/svg11.dtd">
<svg version="1.1" id="图层_1" xmlns="http://www.w3.org/2000/svg" xmlns:xlink="http://www.w3.org/1999/xlink" x="0px" y="0px"
	 width="160px" height="120px" viewBox="0 0 160 120" enable-background="new 0 0 160 120" xml:space="preserve">
<g>
	<polygon fill="#637BB5" points="68.947,40.424 85.747,40.424 91.22,50.994 97.071,40.424 113.682,40.424 98.77,60.998 
		113.304,83.458 97.259,83.458 90.843,71.945 84.236,83.27 68.192,83.27 82.537,61.375 	"/>
	<path fill="#637BB5" d="M37.614,52.126l-4.86-11.562h-15.43L3.024,83.458h17.696l9.201-11.89l3.398,12.032h14.864l-8.352-22.367
		l12.033-11.608v33.975h14.723V40.707c0,0,34.542-24.632,58.607,0.566l2.931,0.352C128.125,41.625,106.32,0.785,37.614,52.126z
		 M20.06,70.435l5.285-18.497l2.454,9.627L20.06,70.435z"/>
	<path d="M125.194,41.273h19.254l-5.852,30.672h19.63l-2.265,11.89h-31.521C124.441,83.835,139.352,58.732,125.194,41.273z"/>
</g>
</svg>
