<?xml version="1.0" encoding="utf-8"?>
<!-- Generator: Adobe Illustrator 16.0.0, SVG Export Plug-In . SVG Version: 6.00 Build 0)  -->
<!DOCTYPE svg PUBLIC "-//W3C//DTD SVG 1.1//EN" "http://www.w3.org/Graphics/SVG/1.1/DTD/svg11.dtd">
<svg version="1.1" id="图层_1" xmlns="http://www.w3.org/2000/svg" xmlns:xlink="http://www.w3.org/1999/xlink" x="0px" y="0px"
	 width="150px" height="150px" viewBox="0 0 150 150" enable-background="new 0 0 150 150" xml:space="preserve">
<g>
	<path d="M62.746,28.321c0.956-9.463,23.515-26.382,35.177-0.191c3.618,8.125,0.143,22.784,4.396,28.676
		c4.79,6.632,15.579,21.208,16.44,28.294c0.416,3.421,1.34,12.426-0.764,13.764c0,0,1.051,0.384,1.529,1.339
		c0,0-0.382,5.831,0.765,6.404c0,0,6.117,7.169,7.838,7.169c0,0,1.721,3.25-1.146,4.588c0,0,4.438,11.962-7.456,16.059
		c-4.006,1.381-9.368,2.772-16.633,3.251c-4.875,0.321-15.004,0.283-19.499-1.339c-4.832-1.742-11.458,0.321-20.457,1.912
		c-7.052,1.248-22.347,0.932-28.484-3.059c-4.46-2.9-14.837-4.417-3.824-20.934c0.956-1.434-0.072-3.943-0.263-5.448
		c-0.304-2.394-1.508-2.619,8.364-4.445c2.29-0.424,6.078-2.478,5.95-7.169c-0.085-3.148-1.757-4.388,2.581-12.331
		c3.97-7.269,11.317-14.359,16.345-28.819C65.884,49.493,62.362,32.122,62.746,28.321z"/>
	
		<ellipse fill="#FFFFFF" stroke="#EAEAEA" stroke-width="0.25" stroke-miterlimit="10" cx="69.198" cy="40.125" rx="3.871" ry="5.975"/>
	
		<ellipse fill="#FFFFFF" stroke="#EAEAEA" stroke-width="0.25" stroke-miterlimit="10" cx="83.584" cy="40.604" rx="5.831" ry="7.217"/>
	<ellipse transform="matrix(0.9703 -0.2417 0.2417 0.9703 -7.814 17.9184)" cx="69.123" cy="40.807" rx="2.462" ry="3.394"/>
	<ellipse cx="83.728" cy="41.058" rx="3.106" ry="3.705"/>
	<path fill="#FFFFFF" d="M65.9,52.743c-1.532,0.782,0.533,5.246,0,6.882c-1.137,3.49-5.026,6.894-6.739,13.048
		c-1.136,4.086-5.143,12.701-5.878,15.916c-0.448,1.958-2.007,4.157-0.287,8.029c0,0,10.467,9.75,13.765,11.9
		c0,0,2.725,6.021-3.871,5.735c0,0,3.584,5.879,5.735,6.882c0,0,8.029,1.577,14.911-1.003c0,0,9.464-2.868,12.331-11.041
		c0,0-0.86-10.467,0.431-10.467c0,0,0.573-1.29,4.444-0.43c0,0,1.396-10.93,0.144-14.769c-1.507-4.62-4.396-12.334-7.169-18.066
		c-1.082-2.238-2.616-6.063-4.158-9.033c-0.573-1.104,0.151-4.414-1.004-4.875c-3.172-1.268-6.738,5.09-12.044,6.452
		c-1.169,0.3-2.079,0.574-4.827,0C69.787,57.509,67.627,51.862,65.9,52.743z"/>
	<path opacity="0.3" fill="#C5C5C5" d="M65.757,52.457c-1.313,1.112,0.12,3.489,0,6.882c-0.019,0.517,0.793-2.494,1.721-1.147
		c0.88,1.278,2.51,3.873,4.015,4.732c2.175,1.241,3.178,2.081,9.176-4.015c1.45-1.474,5.555-3.801,7.456-3.584
		c0.32,0.036,1.073,0.238,1.29,0c0.72-0.791-0.196-3.458-1.004-4.158C87.84,50.67,85.4,50.879,85.4,50.879l-6.883,1.577L70.202,52.6
		C70.202,52.6,66.605,51.738,65.757,52.457z"/>
	<path fill="#FFCB05" d="M65.136,50.306c1.456,2.06,3.678,6.541,6.38,7.599c0.937,0.367,2.974,2.131,7.838-0.668
		c2.188-1.26,7.33-3.103,8.795-4.971c1.082-1.38,3.383-4.698-2.391-6.596c-1.756-0.578-5.641-2.336-6.691-3.154
		c-1.339-1.043-5.57-0.725-6.786-0.096C69.863,43.67,63.292,47.697,65.136,50.306z"/>
	<path fill="none" stroke="#CD9A00" stroke-width="0.75" stroke-linecap="round" stroke-miterlimit="10" d="M68.768,53.269
		c0,0,8.125,4.78,18.64-5.353"/>
	
		<ellipse transform="matrix(-0.9409 0.3386 -0.3386 -0.9409 155.5855 60.4485)" fill="#B17600" cx="72.521" cy="43.794" rx="0.526" ry="1.051"/>
	
		<ellipse transform="matrix(-0.871 -0.4912 0.4912 -0.871 124.6402 120.0255)" fill="#B17600" cx="78.076" cy="43.651" rx="0.526" ry="1.051"/>
	<path opacity="0.3" fill="#C5C5C5" d="M62.89,64.931c0,0,1.85,3.781,2.175,4.254c0.876,1.274-1.912,3.991-5.568,2.294l1.434-3.37
		L62.89,64.931z"/>
	<path opacity="0.3" fill="#C5C5C5" d="M71.253,69.328c0,0,4.206-0.382,4.588,0.191c0,0-2.294,2.868-2.868,2.581
		C72.4,71.813,72.4,71.813,72.4,71.813L71.253,69.328z"/>
	<path opacity="0.3" fill="#C5C5C5" d="M83.298,70.857c0,0,9.177-1.051,14.625,6.692c0,0-2.104-7.361-5.258-9.273
		C92.665,68.276,84.731,68.276,83.298,70.857z"/>
	<path opacity="0.3" fill="#C5C5C5" d="M71.063,84.335v16.537c0,0-0.734-1.34-0.863-2.104c0,0-0.043-13.477,0.216-14.242
		L71.063,84.335z"/>
	<path opacity="0.3" fill="#C5C5C5" d="M95.724,110.909c0,0-1.338,2.198-2.007,2.294c0,0-2.868-8.985,1.912-10.323L95.724,110.909z"
		/>
	<path fill="#FFD133" d="M30.199,108.877c0.663,2.587,1.98,6.733,0,10.682c-1.147,2.288-1.728,5.486,7.313,7.169
		c4.57,0.851,12.456,2.574,17.779,5.449c3.023,1.632,7.447,3.452,12.904-4.732c1.912-2.866,2.342-6.88-1.721-10.035
		c-5.662-4.397-14.211-21.146-17.636-21.508c-1.961-0.209-5.712-0.978-7.026,3.584c-0.508,1.766-0.614,5.109-5.735,4.588
		C34.189,103.881,29.029,104.31,30.199,108.877z"/>
	<path fill="#FFD133" d="M95.502,99.198c-1.131,4.984-0.289,14.458-1.826,20.36c-0.722,2.776-0.89,9.15,1.826,11.327
		c2.376,1.904,4.563,3.729,12.166,0.573c7.604-3.154,3.194-6.452,19.618-12.904c0,0,5.877-2.616-0.608-7.169
		c-3.473-2.438-4.906-2.724-6.018-11.398c-0.126-0.98-1.744-3.063-3.919-0.55c-2.144,2.479-6.371,12.877-11.963,5.354
		c-1.084-1.46,0.114-2.546-2.566-6.703C101.313,96.693,96.077,96.666,95.502,99.198z"/>
</g>
</svg>
