<?xml version="1.0" encoding="utf-8"?>
<!-- Generator: Adobe Illustrator 16.0.0, SVG Export Plug-In . SVG Version: 6.00 Build 0)  -->
<!DOCTYPE svg PUBLIC "-//W3C//DTD SVG 1.1//EN" "http://www.w3.org/Graphics/SVG/1.1/DTD/svg11.dtd">
<svg version="1.1" id="图层_1" xmlns="http://www.w3.org/2000/svg" xmlns:xlink="http://www.w3.org/1999/xlink" x="0px" y="0px"
	 width="160px" height="120px" viewBox="0 0 160 120" enable-background="new 0 0 160 120" xml:space="preserve">
<linearGradient id="SVGID_1_" gradientUnits="userSpaceOnUse" x1="-5469.2021" y1="-18349.9453" x2="-4771.54" y2="-19165.7402" gradientTransform="matrix(0.0095 -0.0203 -0.0203 -0.0095 -222.6222 -272.1286)">
	<stop  offset="0" style="stop-color:#F69923"/>
	<stop  offset="0.3123" style="stop-color:#F79A23"/>
	<stop  offset="0.8383" style="stop-color:#E97826"/>
</linearGradient>
<path fill="url(#SVGID_1_)" d="M104.209,4.338c-1.739,1.028-4.627,3.933-8.077,8.145l3.17,5.982
	c2.225-3.181,4.484-6.043,6.763-8.487c0.177-0.195,0.271-0.287,0.271-0.287c-0.09,0.095-0.177,0.191-0.271,0.287
	c-0.736,0.813-2.973,3.422-6.349,8.609c3.249-0.161,8.245-0.829,12.318-1.523c1.214-6.791-1.189-9.899-1.189-9.899
	S107.787,2.225,104.209,4.338z"/>
<path fill="none" d="M98.841,38.46c0.023-0.004,0.047-0.007,0.07-0.012l-0.457,0.05c-0.027,0.012-0.054,0.027-0.08,0.039
	C98.53,38.51,98.688,38.483,98.841,38.46z"/>
<path fill="none" d="M95.606,49.173c-0.257,0.057-0.524,0.104-0.794,0.14C95.086,49.276,95.35,49.229,95.606,49.173z"/>
<path fill="none" d="M73.624,73.206c0.034-0.087,0.069-0.18,0.1-0.267c0.698-1.843,1.389-3.634,2.072-5.376
	c0.767-1.956,1.527-3.851,2.275-5.689c0.791-1.933,1.569-3.806,2.337-5.611c0.806-1.896,1.601-3.722,2.378-5.479
	c0.635-1.431,1.259-2.815,1.876-4.154c0.207-0.451,0.411-0.891,0.614-1.328c0.404-0.872,0.805-1.719,1.202-2.55
	c0.363-0.768,0.728-1.521,1.084-2.257c0.121-0.247,0.237-0.491,0.357-0.732c0.021-0.039,0.039-0.077,0.057-0.119l-0.391,0.042
	l-0.307-0.609c-0.03,0.06-0.062,0.117-0.092,0.175c-0.556,1.105-1.11,2.221-1.654,3.346c-0.313,0.647-0.629,1.304-0.944,1.956
	c-0.866,1.819-1.718,3.652-2.554,5.498c-0.848,1.864-1.677,3.74-2.49,5.621c-0.798,1.844-1.584,3.688-2.348,5.531
	c-0.767,1.842-1.516,3.672-2.244,5.494c-0.763,1.899-1.504,3.785-2.226,5.647c-0.161,0.418-0.326,0.84-0.487,1.259
	c-0.575,1.502-1.139,2.984-1.688,4.449l0.487,0.963l0.438-0.046c0.016-0.042,0.031-0.089,0.05-0.131
	C72.235,76.913,72.933,75.032,73.624,73.206z"/>
<path fill="none" d="M94.613,49.345L94.613,49.345c0.004,0,0.004,0,0.004-0.005C94.617,49.345,94.617,49.345,94.613,49.345z"/>
<path fill="#BE202E" d="M93.563,54.57c-0.406,0.073-0.821,0.146-1.247,0.217c-0.004,0-0.004,0.005-0.007,0.005
	c0.214-0.031,0.429-0.065,0.636-0.1C93.156,54.653,93.36,54.612,93.563,54.57z"/>
<path opacity="0.35" fill="#BE202E" enable-background="new    " d="M93.563,54.57c-0.406,0.073-0.821,0.146-1.247,0.217
	c-0.004,0-0.004,0.005-0.007,0.005c0.214-0.031,0.429-0.065,0.636-0.1C93.156,54.653,93.36,54.612,93.563,54.57z"/>
<path fill="#BE202E" d="M94.625,49.34C94.622,49.34,94.622,49.34,94.625,49.34c-0.003,0.005-0.008,0.005-0.008,0.005
	c0.068-0.009,0.135-0.019,0.2-0.032c0.269-0.036,0.532-0.083,0.793-0.14C95.284,49.229,94.959,49.283,94.625,49.34L94.625,49.34
	L94.625,49.34z"/>
<path opacity="0.35" fill="#BE202E" enable-background="new    " d="M94.625,49.34C94.622,49.34,94.622,49.34,94.625,49.34
	c-0.003,0.005-0.008,0.005-0.008,0.005c0.068-0.009,0.135-0.019,0.2-0.032c0.269-0.036,0.532-0.083,0.793-0.14
	C95.284,49.229,94.959,49.283,94.625,49.34L94.625,49.34L94.625,49.34z"/>
<linearGradient id="SVGID_2_" gradientUnits="userSpaceOnUse" x1="-10632.6992" y1="-18259.8711" x2="-5655.1743" y2="-18259.8711" gradientTransform="matrix(0.0095 -0.0203 -0.0203 -0.0095 -222.6222 -272.1286)">
	<stop  offset="0.3233" style="stop-color:#9E2064"/>
	<stop  offset="0.6302" style="stop-color:#C92037"/>
	<stop  offset="0.7514" style="stop-color:#CD2335"/>
	<stop  offset="1" style="stop-color:#E97826"/>
</linearGradient>
<path fill="url(#SVGID_2_)" d="M89.955,33.918c0.965-1.799,1.938-3.561,2.925-5.271c1.024-1.78,2.06-3.502,3.104-5.168
	c0.061-0.1,0.122-0.2,0.184-0.295c1.035-1.638,2.08-3.211,3.132-4.715l-3.17-5.985c-0.238,0.292-0.479,0.587-0.721,0.891
	c-0.913,1.139-1.864,2.363-2.836,3.664c-1.098,1.465-2.225,3.027-3.368,4.668c-1.058,1.515-2.13,3.104-3.204,4.746
	c-0.911,1.4-1.829,2.839-2.739,4.316c-0.035,0.054-0.068,0.112-0.099,0.166l4.123,8.146C88.159,37.329,89.054,35.606,89.955,33.918z
	"/>
<linearGradient id="SVGID_3_" gradientUnits="userSpaceOnUse" x1="-10031.6689" y1="-18758.6211" x2="-7065.6924" y2="-18758.6211" gradientTransform="matrix(0.0095 -0.0203 -0.0203 -0.0095 -222.6222 -272.1286)">
	<stop  offset="0" style="stop-color:#282662"/>
	<stop  offset="0.0955" style="stop-color:#662E8D"/>
	<stop  offset="0.7882" style="stop-color:#9F2064"/>
	<stop  offset="0.9487" style="stop-color:#CD2032"/>
</linearGradient>
<path fill="url(#SVGID_3_)" d="M71.172,79.813c-0.545,1.501-1.093,3.026-1.646,4.588c-0.007,0.023-0.015,0.047-0.023,0.07
	c-0.077,0.217-0.157,0.44-0.233,0.659c-0.373,1.05-0.691,1.998-1.432,4.151c1.216,0.558,2.191,2.015,3.112,3.668
	c-0.101-1.716-0.806-3.322-2.157-4.569c5.989,0.267,11.149-1.243,13.814-5.625c0.238-0.391,0.457-0.801,0.652-1.234
	c-1.212,1.538-2.715,2.189-5.543,2.032c-0.007,0.004-0.012,0.004-0.019,0.007c0.007-0.003,0.012-0.003,0.019-0.007
	c4.167-1.864,6.258-3.655,8.102-6.622c0.438-0.701,0.865-1.473,1.299-2.323c-3.642,3.74-7.866,4.807-12.313,3.997l-3.333,0.364
	C71.379,79.25,71.276,79.53,71.172,79.813z"/>
<linearGradient id="SVGID_4_" gradientUnits="userSpaceOnUse" x1="-10352.9121" y1="-18213.3965" x2="-5375.6255" y2="-18213.3965" gradientTransform="matrix(0.0095 -0.0203 -0.0203 -0.0095 -222.6222 -272.1286)">
	<stop  offset="0.3233" style="stop-color:#9E2064"/>
	<stop  offset="0.6302" style="stop-color:#C92037"/>
	<stop  offset="0.7514" style="stop-color:#CD2335"/>
	<stop  offset="1" style="stop-color:#E97826"/>
</linearGradient>
<path fill="url(#SVGID_4_)" d="M72.73,72.345c0.721-1.862,1.461-3.748,2.225-5.647c0.729-1.819,1.477-3.652,2.245-5.494
	c0.767-1.843,1.549-3.688,2.347-5.531c0.814-1.881,1.646-3.754,2.491-5.621c0.836-1.846,1.688-3.679,2.555-5.498
	c0.311-0.658,0.626-1.309,0.943-1.956c0.544-1.125,1.098-2.241,1.653-3.346c0.032-0.062,0.063-0.119,0.092-0.175l-4.124-8.146
	c-0.068,0.112-0.135,0.223-0.201,0.331c-0.965,1.569-1.92,3.173-2.856,4.811c-0.947,1.653-1.879,3.342-2.789,5.053
	c-0.768,1.442-1.52,2.899-2.248,4.37c-0.146,0.298-0.292,0.594-0.434,0.889c-0.897,1.85-1.711,3.639-2.443,5.353
	c-0.833,1.944-1.562,3.806-2.207,5.566c-0.421,1.158-0.805,2.279-1.154,3.354c-0.288,0.92-0.564,1.836-0.826,2.754
	c-0.613,2.16-1.146,4.313-1.581,6.456l4.14,8.188c0.548-1.462,1.108-2.947,1.688-4.449C72.404,73.185,72.569,72.766,72.73,72.345z"
	/>
<linearGradient id="SVGID_5_" gradientUnits="userSpaceOnUse" x1="-9989.9238" y1="-18280.7734" x2="-7374.1563" y2="-18280.7734" gradientTransform="matrix(0.0095 -0.0203 -0.0203 -0.0095 -222.6222 -272.1286)">
	<stop  offset="0" style="stop-color:#282662"/>
	<stop  offset="0.0955" style="stop-color:#662E8D"/>
	<stop  offset="0.7882" style="stop-color:#9F2064"/>
	<stop  offset="0.9487" style="stop-color:#CD2032"/>
</linearGradient>
<path fill="url(#SVGID_5_)" d="M66.357,70.162c-0.521,2.615-0.89,5.224-1.074,7.817c-0.007,0.094-0.015,0.181-0.019,0.273
	c-1.292-2.072-4.757-4.099-4.749-4.075c2.479,3.595,4.362,7.163,4.638,10.665c-1.328,0.273-3.146-0.122-5.248-0.894
	c2.19,2.015,3.836,2.57,4.477,2.719c-2.015,0.127-4.109,1.509-6.219,3.102c3.087-1.259,5.582-1.758,7.369-1.355
	c-2.834,8.018-5.673,16.874-8.517,26.273c0.871-0.257,1.389-0.841,1.684-1.636c0.506-1.702,3.867-12.875,9.131-27.552
	c0.149-0.419,0.299-0.838,0.452-1.264c0.043-0.115,0.085-0.233,0.127-0.352c0.557-1.539,1.132-3.111,1.731-4.717
	c0.133-0.364,0.272-0.728,0.41-1.095c0.004-0.011,0.004-0.017,0.008-0.023l-4.14-8.182C66.4,69.969,66.377,70.065,66.357,70.162z"/>
<linearGradient id="SVGID_6_" gradientUnits="userSpaceOnUse" x1="-10352.959" y1="-18728.4688" x2="-5375.6113" y2="-18728.4688" gradientTransform="matrix(0.0095 -0.0203 -0.0203 -0.0095 -222.6222 -272.1286)">
	<stop  offset="0.3233" style="stop-color:#9E2064"/>
	<stop  offset="0.6302" style="stop-color:#C92037"/>
	<stop  offset="0.7514" style="stop-color:#CD2335"/>
	<stop  offset="1" style="stop-color:#E97826"/>
</linearGradient>
<path fill="url(#SVGID_6_)" d="M87.923,39.761c-0.119,0.242-0.237,0.485-0.357,0.732c-0.357,0.736-0.721,1.489-1.085,2.257
	c-0.396,0.831-0.794,1.682-1.201,2.55c-0.204,0.437-0.408,0.877-0.614,1.328c-0.618,1.342-1.242,2.728-1.876,4.154
	c-0.778,1.758-1.572,3.583-2.377,5.479c-0.768,1.806-1.547,3.679-2.337,5.611c-0.749,1.839-1.508,3.733-2.275,5.689
	c-0.684,1.742-1.378,3.533-2.072,5.376c-0.034,0.087-0.069,0.18-0.1,0.267c-0.69,1.826-1.389,3.707-2.095,5.633
	c-0.015,0.042-0.03,0.089-0.049,0.131l3.333-0.364c-0.065-0.012-0.134-0.019-0.199-0.035c3.985-0.497,9.289-3.475,12.714-7.155
	c1.577-1.695,3.011-3.693,4.336-6.033c0.984-1.742,1.909-3.677,2.792-5.813c0.771-1.867,1.511-3.89,2.225-6.085
	c-0.916,0.482-1.963,0.836-3.122,1.083c-0.202,0.04-0.411,0.084-0.618,0.117c-0.212,0.04-0.422,0.07-0.636,0.101l0,0l0,0
	c0.003,0,0.003-0.004,0.007-0.004c3.719-1.432,6.062-4.189,7.764-7.574c-0.978,0.667-2.564,1.539-4.473,1.961
	c-0.257,0.058-0.524,0.104-0.794,0.142c-0.063,0.012-0.134,0.023-0.199,0.03l0,0l0,0c0.004,0,0.004,0,0.004-0.004h0.005l0,0
	c1.288-0.54,2.378-1.143,3.321-1.855c0.203-0.153,0.4-0.311,0.587-0.473c0.287-0.249,0.564-0.511,0.825-0.786
	c0.168-0.177,0.33-0.357,0.487-0.544c0.367-0.442,0.718-0.918,1.039-1.432c0.101-0.157,0.195-0.319,0.293-0.484
	c0.121-0.237,0.24-0.471,0.356-0.701c0.518-1.044,0.935-1.976,1.266-2.794c0.165-0.407,0.311-0.786,0.434-1.138
	c0.05-0.144,0.096-0.277,0.142-0.407c0.131-0.391,0.239-0.741,0.322-1.047c0.127-0.46,0.204-0.825,0.245-1.09l0,0l0,0
	c-0.126,0.1-0.271,0.2-0.432,0.295c-1.125,0.671-3.051,1.281-4.602,1.566l3.063-0.338l-3.063,0.338
	c-0.021,0.003-0.045,0.007-0.068,0.011c-0.153,0.027-0.311,0.05-0.468,0.077c0.027-0.011,0.054-0.027,0.08-0.039l-10.475,1.148
	C87.961,39.685,87.942,39.723,87.923,39.761z"/>
<linearGradient id="SVGID_7_" gradientUnits="userSpaceOnUse" x1="-10661.7393" y1="-18702.7676" x2="-5684.3926" y2="-18702.7676" gradientTransform="matrix(0.0095 -0.0203 -0.0203 -0.0095 -222.6222 -272.1286)">
	<stop  offset="0.3233" style="stop-color:#9E2064"/>
	<stop  offset="0.6302" style="stop-color:#C92037"/>
	<stop  offset="0.7514" style="stop-color:#CD2335"/>
	<stop  offset="1" style="stop-color:#E97826"/>
</linearGradient>
<path fill="url(#SVGID_7_)" d="M99.712,18.587c-0.931,1.431-1.949,3.053-3.046,4.891c-0.058,0.096-0.115,0.196-0.172,0.292
	c-0.944,1.592-1.949,3.341-3.004,5.256c-0.914,1.654-1.862,3.426-2.851,5.332c-0.861,1.662-1.749,3.422-2.664,5.288l10.475-1.147
	c3.05-1.404,4.417-2.674,5.738-4.512c0.354-0.506,0.708-1.036,1.055-1.584c1.075-1.681,2.133-3.53,3.074-5.367
	c0.908-1.776,1.716-3.538,2.328-5.122c0.393-1.009,0.706-1.949,0.925-2.774c0.192-0.729,0.343-1.416,0.456-2.075
	C107.961,17.759,102.962,18.426,99.712,18.587z"/>
<path fill="#BE202E" d="M92.944,54.688c-0.212,0.038-0.422,0.068-0.636,0.099l0,0C92.522,54.761,92.732,54.727,92.944,54.688z"/>
<path opacity="0.35" fill="#BE202E" enable-background="new    " d="M92.944,54.688c-0.212,0.038-0.422,0.068-0.636,0.099l0,0
	C92.522,54.761,92.732,54.727,92.944,54.688z"/>
<linearGradient id="SVGID_8_" gradientUnits="userSpaceOnUse" x1="-10344.0967" y1="-18881.7227" x2="-5380.9692" y2="-18881.7227" gradientTransform="matrix(0.0095 -0.0203 -0.0203 -0.0095 -222.6222 -272.1286)">
	<stop  offset="0.3233" style="stop-color:#9E2064"/>
	<stop  offset="0.6302" style="stop-color:#C92037"/>
	<stop  offset="0.7514" style="stop-color:#CD2335"/>
	<stop  offset="1" style="stop-color:#E97826"/>
</linearGradient>
<path fill="url(#SVGID_8_)" d="M92.944,54.688c-0.212,0.038-0.422,0.068-0.636,0.099l0,0C92.522,54.761,92.732,54.727,92.944,54.688
	z"/>
<path fill="#BE202E" d="M94.613,49.345c0.068-0.009,0.136-0.019,0.199-0.032C94.749,49.326,94.682,49.336,94.613,49.345
	L94.613,49.345z"/>
<path opacity="0.35" fill="#BE202E" enable-background="new    " d="M94.613,49.345c0.068-0.009,0.136-0.019,0.199-0.032
	C94.749,49.326,94.682,49.336,94.613,49.345L94.613,49.345z"/>
<linearGradient id="SVGID_9_" gradientUnits="userSpaceOnUse" x1="-10386.5176" y1="-18864.127" x2="-5359.2622" y2="-18864.127" gradientTransform="matrix(0.0095 -0.0203 -0.0203 -0.0095 -222.6222 -272.1286)">
	<stop  offset="0.3233" style="stop-color:#9E2064"/>
	<stop  offset="0.6302" style="stop-color:#C92037"/>
	<stop  offset="0.7514" style="stop-color:#CD2335"/>
	<stop  offset="1" style="stop-color:#E97826"/>
</linearGradient>
<path fill="url(#SVGID_9_)" d="M94.613,49.345c0.068-0.009,0.136-0.019,0.199-0.032C94.749,49.326,94.682,49.336,94.613,49.345
	L94.613,49.345z"/>
<path fill="#BE202E" d="M94.622,49.34L94.622,49.34L94.622,49.34L94.622,49.34L94.622,49.34L94.622,49.34z"/>
<path opacity="0.35" fill="#BE202E" enable-background="new    " d="M94.622,49.34L94.622,49.34L94.622,49.34L94.622,49.34
	L94.622,49.34L94.622,49.34z"/>
<linearGradient id="SVGID_10_" gradientUnits="userSpaceOnUse" x1="-7006.6162" y1="-18860.6719" x2="-7006.6162" y2="-18860.6719" gradientTransform="matrix(0.0095 -0.0203 -0.0203 -0.0095 -222.6222 -272.1286)">
	<stop  offset="0.3233" style="stop-color:#9E2064"/>
	<stop  offset="0.6302" style="stop-color:#C92037"/>
	<stop  offset="0.7514" style="stop-color:#CD2335"/>
	<stop  offset="1" style="stop-color:#E97826"/>
</linearGradient>
<path fill="url(#SVGID_10_)" d="M94.622,49.34L94.622,49.34L94.622,49.34L94.622,49.34L94.622,49.34L94.622,49.34z"/>
</svg>
