<?xml version="1.0" encoding="utf-8"?>
<!-- Generator: Adobe Illustrator 16.0.0, SVG Export Plug-In . SVG Version: 6.00 Build 0)  -->
<!DOCTYPE svg PUBLIC "-//W3C//DTD SVG 1.1//EN" "http://www.w3.org/Graphics/SVG/1.1/DTD/svg11.dtd">
<svg version="1.1" id="图层_1" xmlns="http://www.w3.org/2000/svg" xmlns:xlink="http://www.w3.org/1999/xlink" x="0px" y="0px"
	 width="160px" height="120px" viewBox="0 0 160 120" enable-background="new 0 0 160 120" xml:space="preserve">
<g>
	<path d="M83.542,13.616c0,0,36-17,61.25,2l-0.75,91c0,0-25.25-14-60.5,0V13.616z"/>
	<path fill="#E60012" d="M83.417,25.417c0,0,10.667-4.667,20.75-4.667l0.583,29c0,0-9.834-0.083-21.25,5.667L83.417,25.417z"/>
	<path fill="#51FF00" d="M112.333,19l0.084,30.583c0,0,11-0.833,21.25,1.667L133.5,22.583C133.5,22.583,126.916,18.25,112.333,19z"
		/>
	<path fill="#0076E9" d="M83.417,63.167c0,0,10.667-4.667,20.75-4.667l0.583,29c0,0-9.834-0.083-21.25,5.667L83.417,63.167z"/>
	<path fill="#FAEE00" d="M112.333,56.75l0.084,30.584c0,0,11-0.834,21.25,1.666L133.5,60.334C133.5,60.334,126.916,56,112.333,56.75
		z"/>
	<polygon points="69.917,19.75 81.917,14.417 81.834,26.5 69.917,31.833 	"/>
	<polygon points="69.917,33.333 81.917,28 81.834,40.083 69.917,45.417 	"/>
	<polygon points="69.917,46.417 81.917,41.083 81.834,53.167 69.917,58.5 	"/>
	<polygon points="69.917,60 81.917,54.667 81.834,66.75 69.917,72.084 	"/>
	<polygon points="69.917,73.25 81.917,67.916 81.834,80 69.917,85.333 	"/>
	<polygon points="69.917,86.833 81.917,81.5 81.834,93.583 69.917,98.917 	"/>
	<polygon points="69.917,100.208 81.917,94.875 81.834,106.958 69.917,112.292 	"/>
	<polygon points="57.375,23.25 68,19.375 68.125,28.25 57.5,32.125 	"/>
	<polygon points="57.375,63.416 68,59.541 68.125,68.416 57.5,72.291 	"/>
	<polygon fill="#E60012" points="57.375,49.583 68,45.708 68.125,54.583 57.5,58.457 	"/>
	<polygon fill="#0076E9" points="57.375,89.416 68,85.541 68.125,94.416 57.5,98.291 	"/>
	<polygon points="57.375,102.416 68,98.541 68.125,107.416 57.5,111.291 	"/>
	<polygon fill="#0076E9" points="57.375,75.582 68,71.707 68.125,80.582 57.5,84.457 	"/>
	<polygon fill="#E60012" points="57.333,36.541 67.958,32.666 68.083,41.541 57.458,45.416 	"/>
	<polygon points="44.75,23.583 54.917,20.083 54.833,28.333 44.833,31.667 	"/>
	<polygon fill="#E60012" points="44.75,36.5 54.917,33 54.833,41.25 44.833,44.584 	"/>
	<polygon fill="#E60012" points="44.75,49.833 54.917,46.333 54.833,54.583 44.833,57.917 	"/>
	<polygon fill="#231815" points="44.75,62.917 54.917,59.417 54.833,67.667 44.833,71 	"/>
	<polygon fill="#0076E9" points="44.75,76.084 54.917,72.584 54.833,80.834 44.833,84.167 	"/>
	<polygon fill="#0076E9" points="44.75,89.251 54.917,85.751 54.833,94.001 44.833,97.334 	"/>
	<polygon fill="#231815" points="44.75,102.251 54.917,98.751 54.833,107.001 44.833,110.334 	"/>
	<polygon fill="#231815" points="34.125,23.25 42.313,20.563 42.375,26.938 34,29.5 	"/>
	<polygon fill="#E60012" points="34.125,36.375 42.313,33.688 42.375,40.063 34,42.625 	"/>
	<polygon fill="#E60012" points="34.125,49.375 42.313,46.688 42.375,53.063 34,55.625 	"/>
	<polygon fill="#231815" points="34.125,62.458 42.313,59.771 42.375,66.146 34,68.708 	"/>
	<polygon fill="#0076E9" points="34.125,75.458 42.313,72.771 42.375,79.146 34,81.708 	"/>
	<polygon fill="#0076E9" points="34.125,88.458 42.313,85.771 42.375,92.146 34,94.708 	"/>
	<polygon fill="#231815" points="34.125,101.791 42.313,99.104 42.375,105.479 34,108.041 	"/>
	<polygon fill="#231815" points="23.625,99.188 23.688,104.125 30.875,102.375 30.75,97 	"/>
	<polygon fill="#231815" points="13.5,95.813 13.5,99.563 18.563,98.063 18.625,94.25 	"/>
	<polygon fill="#0076E9" points="23.625,86.104 23.688,91.042 30.875,89.292 30.75,83.917 	"/>
	<polygon fill="#0076E9" points="13.5,82.729 13.5,86.479 18.563,84.979 18.625,81.167 	"/>
	<polygon fill="#0076E9" points="23.625,72.938 23.688,77.875 30.875,76.125 30.75,70.75 	"/>
	<polygon fill="#0076E9" points="13.5,69.563 13.5,73.313 18.563,71.813 18.625,68 	"/>
	<polygon fill="#231815" points="23.625,59.938 23.688,64.875 30.875,63.125 30.75,57.75 	"/>
	<polygon fill="#231815" points="13.5,56.563 13.5,60.313 18.563,58.813 18.625,55 	"/>
	<polygon fill="#E60012" points="23.656,46.49 23.719,51.427 30.906,49.677 30.781,44.302 	"/>
	<polygon fill="#E60012" points="13.5,43.615 13.5,47.365 18.563,45.865 18.625,42.052 	"/>
	<polygon fill="#E60012" points="23.625,33.146 23.688,38.083 30.875,36.333 30.75,30.958 	"/>
	<polygon fill="#E60012" points="13.5,30.646 13.5,34.396 18.563,32.896 18.625,29.083 	"/>
	<polygon fill="#231815" points="23.959,20.063 24.021,25 31.209,23.25 31.084,17.875 	"/>
	<polygon fill="#231815" points="13.542,17.563 13.542,21.313 18.604,19.813 18.667,16 	"/>
</g>
</svg>
