<?xml version="1.0" encoding="UTF-8"?>
<svg width="52px" height="42px" viewBox="0 0 52 42" version="1.1" xmlns="http://www.w3.org/2000/svg" xmlns:xlink="http://www.w3.org/1999/xlink">
    <title>编组 5</title>
    <g id="icon以及组件与规范" stroke="none" stroke-width="1" fill="none" fill-rule="evenodd">
        <g id="icon" transform="translate(-424.000000, -613.000000)">
            <g id="编组-5" transform="translate(424.000000, 613.000000)">
                <path d="M9,20 C6.790861,20 5,18.209139 5,16 L5,4 C5,1.790861 6.790861,4.05812251e-16 9,0 L25.9418684,0 L35,5.99099675 L35,6 L44,6 C46.209139,6 48,7.790861 48,10 L48,16 C48,18.209139 46.209139,20 44,20 L9,20 Z" id="形状结合" fill="#D2812A"></path>
                <rect id="矩形" fill="#FAB755" x="0" y="8" width="52" height="34" rx="4"></rect>
                <path d="M20.8042476,27 C20.2519629,27 19.8042476,26.5522847 19.8042476,26 C19.8042476,25.8125803 19.8569171,25.6289327 19.9562493,25.4700011 L25.6520017,16.3567973 C25.944712,15.8884608 26.5616624,15.7460876 27.0299989,16.0387979 C27.1587681,16.1192786 27.2675176,16.2280282 27.3479983,16.3567973 L33.0437507,25.4700011 C33.336461,25.9383376 33.1940878,26.555288 32.7257513,26.8479983 C32.5668197,26.9473306 32.3831721,27 32.1957524,27 L29,27 L29,33.5 C29,34.8807119 27.8807119,36 26.5,36 C25.1192881,36 24,34.8807119 24,33.5 L24,27 L20.8042476,27 Z" id="形状结合" fill="#D89636"></path>
            </g>
        </g>
    </g>
</svg>