<?xml version="1.0" encoding="UTF-8"?>
<svg width="42px" height="40px" viewBox="0 0 42 40" version="1.1" xmlns="http://www.w3.org/2000/svg" xmlns:xlink="http://www.w3.org/1999/xlink">
    <title>编组备份</title>
    <g id="交互流转图" stroke="none" stroke-width="1" fill="none" fill-rule="evenodd">
        <g id="icon切图" transform="translate(-88.000000, -800.000000)" fill="#D3E1F2">
            <g id="编组备份" transform="translate(88.000000, 800.000000)">
                <path d="M14.0917351,32.0468736 C14.6309959,32.0468736 15.1418745,32.1461105 15.624371,32.3445842 C16.1068675,32.5430579 16.5255041,32.8195035 16.8802809,33.1739209 C17.2350577,33.5283383 17.5188792,33.9465508 17.7317453,34.4285585 C17.9446114,34.9105662 18.0510444,35.4209272 18.0510444,35.9596417 C18.0510444,36.4983561 17.9446114,37.0087172 17.7317453,37.4907248 C17.5188792,37.9727325 17.2350577,38.390945 16.8802809,38.7453624 C16.5255041,39.0997798 16.1068675,39.3833137 15.624371,39.5959642 C15.1418745,39.8086146 14.6309959,39.9149398 14.0917351,39.9149398 C13.5240922,39.9149398 12.9990226,39.8086146 12.5165261,39.5959642 C12.0340296,39.3833137 11.615393,39.0997798 11.2606162,38.7453624 C10.9058393,38.390945 10.6220179,37.9727325 10.4091518,37.4907248 C10.1962857,37.0087172 10.0898527,36.4983561 10.0898527,35.9596417 C10.0898527,35.4209272 10.1962857,34.9105662 10.4091518,34.4285585 C10.6220179,33.9465508 10.9058393,33.5283383 11.2606162,33.1739209 C11.615393,32.8195035 12.0340296,32.5430579 12.5165261,32.3445842 C12.9990226,32.1461105 13.5240922,32.0468736 14.0917351,32.0468736 Z M31.8021938,32.1319338 C32.3414546,32.1319338 32.8594287,32.2311706 33.3561163,32.4296444 C33.8528038,32.6281181 34.278536,32.9045637 34.6333128,33.2589811 C34.9880896,33.6133985 35.2719111,34.031611 35.4847772,34.5136187 C35.6976433,34.9956263 35.8040763,35.5059874 35.8040763,36.0447018 C35.8040763,36.5834163 35.6976433,37.0937773 35.4847772,37.575785 C35.2719111,38.0577927 34.9880896,38.4760052 34.6333128,38.8304226 C34.278536,39.18484 33.8528038,39.4683739 33.3561163,39.6810243 C32.8594287,39.8936748 32.3414546,40 31.8021938,40 C31.2629331,40 30.7520544,39.8936748 30.269558,39.6810243 C29.7870615,39.4683739 29.3684249,39.18484 29.013648,38.8304226 C28.6588712,38.4760052 28.3750498,38.0577927 28.1621837,37.575785 C27.9493176,37.0937773 27.8428846,36.5834163 27.8428846,36.0447018 C27.8428846,35.5059874 27.9493176,34.9956263 28.1621837,34.5136187 C28.3750498,34.031611 28.6588712,33.6133985 29.013648,33.2589811 C29.3684249,32.9045637 29.7870615,32.6281181 30.269558,32.4296444 C30.7520544,32.2311706 31.2629331,32.1319338 31.8021938,32.1319338 Z M38.9544944,7.97484391 C39.7491945,7.97484391 40.3665062,8.08116912 40.8064294,8.29381956 C41.2463527,8.50647 41.5585563,8.76873888 41.7430402,9.08062619 C41.9275242,9.3925135 42.0126706,9.72566585 41.9984795,10.0800833 C41.9842885,10.4345006 41.9346197,10.7392996 41.8494733,10.9944801 C41.7643268,11.2496607 41.5798429,11.7741984 41.2960214,12.5680934 C41.0122,13.3619884 40.7070919,14.2338552 40.3806972,15.1836938 C40.0543026,16.1335324 39.7279079,17.0762827 39.4015132,18.0119446 C39.0751186,18.9476066 38.8125837,19.6847947 38.6139087,20.2235092 C38.2449408,21.3576449 37.7837309,22.1444515 37.2302791,22.5839291 C36.6768273,23.0234066 35.9885603,23.2431454 35.165478,23.2431454 L33.6754154,23.2431454 L30.9507295,23.2431454 L27.3745792,23.2431454 L23.3726967,23.2431454 L12.8145386,23.2431454 L13.4105637,27.0708533 L34.9100387,27.0708533 C36.2723817,27.0708533 36.9535532,27.6520978 36.9535532,28.8145869 C36.9535532,29.3816548 36.818738,29.8707508 36.5491076,30.2818749 C36.2794772,30.6929991 35.747312,30.8985612 34.952612,30.8985612 L32.9090975,30.8985612 L28.9923614,30.8985612 L24.0538682,30.8985612 L19.0728017,30.8985612 L14.9431995,30.8985612 L12.6442457,30.8985612 C12.0766028,30.8985612 11.6012019,30.770971 11.2180429,30.5157904 C10.834884,30.2606099 10.5155848,29.9274575 10.2601455,29.5163334 C10.0047062,29.1052092 9.79893567,28.6586433 9.64283387,28.1766356 C9.48673207,27.6946279 9.36610795,27.2409737 9.28096152,26.8156728 C9.25257937,26.6455524 9.17452847,26.2344283 9.04680882,25.5823002 C8.91908916,24.9301722 8.76298737,24.1150122 8.57850342,23.1368202 C8.39401948,22.1586282 8.18824892,21.0670226 7.96119176,19.8620034 C7.7341346,18.6569843 7.50707744,17.4448768 7.28002027,16.2256809 C6.74075951,13.3619884 6.13054339,10.1722318 5.4493719,6.65641118 L2.25638055,6.65641118 C1.83064837,6.65641118 1.47587156,6.55008597 1.1920501,6.33743553 C0.90822865,6.12478509 0.674075951,5.86960456 0.489592007,5.57189395 C0.305108062,5.27418333 0.177388408,4.95520767 0.106433045,4.61496697 C0.0354776816,4.27472627 0,3.96283896 0,3.67930504 C0,3.1122372 0.191579481,2.64440624 0.574738443,2.27581214 C0.957897404,1.90721805 1.47587156,1.722921 2.1286609,1.722921 L3.02269848,1.722921 L3.91673605,1.722921 L4.9810665,1.722921 L6.42855591,1.722921 C6.99619882,1.722921 7.45031314,1.80798118 7.79089889,1.97810153 C8.13148463,2.14822188 8.40111501,2.36087232 8.59979003,2.61605285 C8.79846505,2.87123337 8.94037577,3.1405906 9.02552221,3.42412451 C9.11066865,3.70765843 9.18162401,3.94866226 9.2383883,4.14713601 C9.29515259,4.37396314 9.35191688,4.6929388 9.40868117,5.10406298 C9.46544546,5.51518716 9.52220975,5.93339969 9.57897404,6.35870057 C9.66412048,6.86906162 9.74926692,7.40777607 9.83441335,7.97484391 L38.9544944,7.97484391 L38.9544944,7.97484391 Z M35.7615031,6.6138811 L20.1797053,6.6138811 L25.7993701,0.99990951 C26.4521594,0.347781498 27.1688086,0.0146291437 27.9493176,0.000452447742 C28.7298266,-0.0137242482 29.4464758,0.30525141 30.0992651,0.957379423 L35.7615031,6.6138811 Z" id="形状"></path>
            </g>
        </g>
    </g>
</svg>